<mxfile host="Electron" modified="2023-11-27T18:58:56.977Z" agent="Mozilla/5.0 (Windows NT 10.0; Win64; x64) AppleWebKit/537.36 (KHTML, like Gecko) draw.io/22.1.2 Chrome/114.0.5735.289 Electron/25.9.4 Safari/537.36" etag="jel5PBgjytDS0sO8oe--" version="22.1.2" type="device">
  <diagram name="Page-1" id="t1ZmIGjZz3hqTGcBfMyi">
    <mxGraphModel dx="1036" dy="606" grid="1" gridSize="10" guides="1" tooltips="1" connect="1" arrows="1" fold="1" page="1" pageScale="1" pageWidth="850" pageHeight="1100" math="0" shadow="0">
      <root>
        <mxCell id="0" />
        <mxCell id="1" parent="0" />
        <mxCell id="GsrIig_swuiITAdy08ty-2" value="" style="rounded=0;whiteSpace=wrap;html=1;" vertex="1" parent="1">
          <mxGeometry y="405" width="850" height="265" as="geometry" />
        </mxCell>
        <mxCell id="JDOVnYZvjsqRy1ZlSJWy-1" value="" style="shape=image;verticalLabelPosition=bottom;labelBackgroundColor=default;verticalAlign=top;aspect=fixed;imageAspect=0;image=data:image/png,iVBORw0KGgoAAAANSUhEUgAAAz4AAAEbCAIAAACUV8YjAAAAAXNSR0IArs4c6QAAIABJREFUeJzs3Xd4VMXaAPCZU7elbHovJKGGFhJApPciCBKQekVAFK58SlcQxRL0CoIQiigqchEUkd4ioPSiSA8lFQghySbZzfbdU2a+P443N5cmSirM70GfsOyZM6fk7LtT3oEYY0AQBEEQBEHUBVRNV4AgCIIgCIJ4WCR0IwiCIAiCqDNI6EYQBEEQBFFnkNCNIAiCIAiiziChG0EQBEEQRJ1BQjeCIAiCIIg6g4RuBEEQBEEQdQYJ3QiCIAiCIOoMEroRBEEQBEHUGSR0IwiCIAiCqDNI6EYQBEEQBFFnkNCNIAiCIAiiziChG0EQBEEQRJ1BQjeCIAiCIIg6g4RuBEEQBEEQdQbzVzfAGFdFPQiimrnd7kuXLh09evTatWsGg8HpdJJ7u6pRFOXh4eHv7x8bG9uxY8fGjRtzHFfTlfovjPGlS5eOHTt2+fLloqIim81GbomqBiHU6XR+fn7h4eFt27Z96qmneJ6v6UoRRGWCEFZ+mX/12USeZURdhzE+efLkokWLLly4EBkZ2aRJk8DAQLVaXdP1evxhjK1Wq8FguHr1akFBQY8ePV5//fWIiIiqeLT9Vb///ntqauqxY8eCgoISEhICAgJ0Ol1NV+qJYLPZjEZjZmbm1atXExISpk+fnpiYWNOVIohKQ0I3gnhUkiS9/fbbX3zxRbdu3aZMmdK0aVOGYSCEtSF6eBJgjDHGkiSdPHny3XffzcvLW7BgweDBg2uwSlardfXq1ampqfHx8TNnzmzZsiXLsuSWqDbKLSHL8q1btz744IMjR47885//nDBhgoeHR01XjSAqAQndCOKRWCyWMWPGnD59eunSpc8++yz5bK5ZDodj4cKFixcvfvfddydNmsQwf3n8xqMrLS1dsmTJ5s2bp0yZMmzYMK1WW/11IMrZ7fbvv/9+0aJFzz777NSpU319fWu6RgTxqKrig4aeN29epRdKELWQ1WqdOXPm+fPnt23b1qFDBxK31TiWZTt16hQcHPzuu+8GBAQ0adKEpunqrIDVal27du22bdvmzp07dOhQlUpVnXsn7sZxXLNmzcLDw9etWyfLcpMmTcjQN6KuI6EbQfxNoih++eWX27Zt+/TTT1u3bl3T1SH+q0WLFm63+/PPP2/VqlV4eHi17VeSpCNHjixbtmzUqFHDhg1jWbbadk08AEVR9erVk2V5w4YNMTExUVFRFEUyIRB1WFWEbuRXgngiXLt2bdOmTSNHjmzfvn1N14W40+TJkxs1arRixQqLxVJtOy0rK1u7dm3jxo2HDh1aqya6EhzHDRkyJD4+/t///rfJZKrp6hBErUNCN+LxhzHes2ePh4fH4MGDyYd0LaTVal955ZWcnJxff/21evaIMb5y5cqVK1dGjhzp7+9fPTslHp6fn9+IESOuXr16+fJlMsCaIO5AQjfi8VdSUnLmzJmuXbsGBQXVdF2Ie6AoKj4+vn79+keOHKmePWKM9+3bFxsb27Zt2+rZI/FXtWnTJi4ubv/+/bIs13RdCKJ2IaEb8fjLzc11OBzNmjXTaDQ1XRfi3jw8PFq1anXt2rXq6TNFCP32229PPfUUyedXa6nV6qeeeur06dMIoZquC0HULiR0Ix5/BoNBpVLp9Xoyq7TW4nk+JibGZDKVlJRUw+4wxrm5uXFxcdWwL+Jvi42NvX79OukwJYg7VHLoVqUfjQ8u/E93/YhvqOWbV2nhtXnzhynf4XBQFFUViSdq/NBq8+Z/qXCKotRqtSAIDoejGuoGITSbzffL4lbjF+5RPE73pEajsVgsFUM38pysqfIfRS0/tNr8nLyfSg7dqvTr0YML/9NdP+IbavnmVVp4bd78YcrHGFdRn0uNH1pt3vxvFI4QUl6vhkNT/O3Nq7R6j+Jxuifv/s0lz8maKv9R1PJDq83PyfshHaYEQRAEQRB1BgndCIIgCIIg6gwSuhEEQRAEQdQZJHQjCIIgCIKoM0joRhAEQRAEUWeQ0I0gCIIgCKLOIKEbQRAEQRBEnUFCN4IgCIIgiDqDhG4EQRAEQRB1BlO5xUEIqy4p84ML/9NdP+IbavnmD1anD+3Ry3/Ato+oxg+tNm/+YDV+aBX/ijF2Op2SJN29Oc/zoigCADQaDUVR1VO9O2CM7XY7xtjDw+N+b3C73RhjlUpFUVRVnFibzYYx1ul0oiiKoviANcQkSaIo6n6/dxXLdzqdAACVSgUhlGWZoqgHV/5P61/X78na/DB5FLX80Kp68wds+7eRhbCqqfxauOjQwxdemzd/9PIfRS0/NHJPPuQbSkpKxo8fHxMTExMTExERodfro6OjY2JiYmNjP/roo6lTp44dO7agoKDaqncHu90+YcKE8ePH3+8NJSUls2bNGjt27O3bt6voxL766qtjx441m83vv/9+3759H1DV7du337hx40/Ld7vdr7322vjx44uKilwu148//pidnU3uySra/NHLfxS1/NBq83Pyfiq51Y0gCKLO0el0o0eP7tixIwDg0qVLa9asmTFjhre3N4SwSZMma9euVZ6/yhKrNE1X3BZjjDEub5C7H1mWyzdECEEI7/g6LooihJBh7v1MVvby4J0+4ENCWQn07koihMpfvGet7q5AYmKit7d3xRKUQ1PKKS4ufvnllxcsWBAVFVV+4MpJu6NkmqY7duzodrs1Gk1paeno0aMXLlw4efLk+x0CQRDlSOhGEMSTTq1W9+nTR/l59+7d69evHz16dGhoKADA7XavXbtWEITjx4/bbDZRFOvVq9e+fXuVSiUIQmZmZnp6us1m8/b2btmyZXR0dMViS0tLz5075+Pjc+vWrcLCQj8/vxYtWuTl5eXk5Hh4eLRu3TosLAxCWFRUdOLEifz8fJZlY2NjW7Ro4ePj43a7L1y4kJWVJUmS8lclqhNF8erVq+np6Q6Hw8fHJyEhISIi4n7H9fPPP6tUKpfLlZuby/N88+bN69evz3Hc7t27w8LCioqKrFZrt27dKIq6dOlSdna2LMvR0dHt2rVjWVaSpMzMzEuXLrnd7tDQULPZrFQgNjZWCd1kWb558+bp06eLi4t1Ol3jxo1btmy5f/9+QRDOnTvXqlWryMjIixcvZmRkuFyugICAdu3aBQUFldeNoqjGjRtLkuRwOH766SeM8aVLl65du9agQYMquMIE8VghoRtBEMSfuHz58pIlS7RabUlJiSiKK1eubNu27a+//vrpp5/m5+drtdri4uImTZqkpKRUjN6ys7Pff/99pUVKluVr16516tSppKTEYrGYzeaRI0dOnDiRoqiPPvpo165dsbGxkiTZbLZ//OMfI0eOPHr06IIFC8rKyvz8/Gw2W2lpafPmzQEA58+fX7Bgwa1bt9RqdVFRUatWrd577z21Wn3Par/zzjuSJOn1eoSQwWCIiIiYN29ekyZNpk2bFhUVpbxSv379c+fOffXVV8poM0EQpk2b9txzz2VmZr711lvXrl0LCAhgGObatWutWrUCAGzatOn48eOdOnXKzc39+OOPz5w54+fnV1RU5OPj8+mnn+7du9ftdp8+fbpFixY5OTnLly8HALAsm5OT0717908++YRlWaVuoih+/fXXdrv9pZde2r17N0LowoULV65cIaEbQfwpEroRBEH8idLS0gkTJnTr1s1sNk+aNOnIkSNRUVHr1q0zGo1Tp06NjY29cOHClClTYmNj33vvvfKtZFm22WwURb311lthYWEzZszYt2/fxIkTu3fv/vnnn//yyy/PPffc6dOnv/rqqzlz5vTt29fpdK5Zs2bLli1RUVHffPONKIpvv/12ZGTk4cOH33rrrebNm9vt9t27dwuCMGvWrPDw8DNnzrz22msNGzYcN27cPatdUlJitVpffvnlhISE33//PTU19cCBA9HR0RaL5cSJEykpKa1atTKZTKtXr46Kiho7dqxGo1m6dOm7777brVu3DRs2XLx4cebMmc2aNTt+/Hh2drbS6+pwOEwmk9JUdvz48TFjxvTs2fP69euvvfbapk2bXnrppQMHDvTp0ychIWH16tWSJM2cOTM8PHzTpk27du0qLS0tb3jDGFutVpvNFhgY+Morr2zbtq1Lly7t2rWrhqtJEHUdCd0IgiD+ROPGjQcNGhQbG4sxjo6ONhqNeXl5p06datKkiU6nKysrCwoKCgoK2rVrV8XQTdG3b99u3bpptdrmzZsXFBQ8//zzjRs3Pnz4cGZmptvt3rVrl7+//yuvvOLp6YkxLi4uXrRo0YEDBzIyMl544YVevXqp1eqwsLDvv/8eAHD79u2LFy8GBgbyPF9WVhYWFubv779///77hW5Kp+Tzzz+vVqsjIyMPHjyYkZFht9sBAE8//fRLL71E0/T333+fm5vboUMHJdCMjo7etGnT1atX9+7d26pVqxEjRmg0mri4uP3791ccrGY2m0+dOhUdHT1w4MDY2NjGjRtjjL29vaOiohiGCQ0NDQsLY1k2Nzc3LS2tc+fOgwYN6tWr1z1nyKrV6oYNG0IIg4ODAwICKu2aEcTji4RuBEEQfyIwMFClUik/8zyvRDkGg8FgMKSnpyuvm0yme47xj4iIUHoJWZZlWdbX1xdCqGTBwBjn5+dHRUV5enoCACCEHh4eKpUqLy/PYrHUr1+f53kAgBJ4ybJssVhKS0t//fXXU6dOKYU7nU6Xy3W/atM0HRERoXSnenp66vX6kpISJQdKbGwsz/NOp7OkpKSkpGTDhg27du1SClSpVKWlpXl5eZ07d9ZoNAAAvV6v9NuWl+x2u4uKioKCggIDAwEADMP069cPAJCfn6+8wcvLa+TIkTabbdeuXVu2bPHy8urWrVuLFi0e5SoQBKEgoRvxOLjfBDriiVVxRuejuztRGU3TWq121KhREyZMUF4pKiq65x1YcdKoErRV/Fe9Xl9UVFT+V7vd7na7IyIiOI4zm83K+DOEkNFo9PLyYhhGo9FMmzZt6NChyvsLCws5jrtftTHGDodD+VkQBJvNxrKsUgGlVhRF8TwfGRn59ttvd+nSBQDgcrmKioqio6O1Wq3FYlG2VQbhybJcXjLLsp6enoIguFwupS1t27ZtKpUqPj6+fJPAwMC5c+fOnTv3woULa9asWbVqVbt27QYPHvyA80wQxMMgH3XE4+Dw4cMLFiy4evWqEsP9Kbvdvnr16mH/MWbMmJSUlNzc3CrKwYMxTktLmz59+u3bt6ui/PT09Dlz5hw8eLAqCv+rbt269e677yodfPd07ty52bNnnzx5skqrYbfbR48effr06Sq6pv7+/pGRkdnZ2aIoBgYGyrLcq1evf/3rX3+1nGbNml28eFGpp8Vi+fXXXxFCbdq08fX13bJli8ViwRhnZWUdPXoUABAcHBwSEpKZmQkhDAwMFEWxY8eOy5Ytu1/hkiSdPXv2+vXrGONff/314sWLUVFRSkOaguf5qKgom82Wn5/v4+MTGBi4fv363r17QwgbN2585syZjIwMjPHRo0ezsrIqnkmdTteoUaOrV6+eP39emRw6a9as48ePK/+KMc7IyBg3btwXX3zh7e3dp0+f999/XxAEg8HwgFPxkL+8BEGQVjficdC8efN169Z16tRp+PDhr7zySnh4uEajeUAaa0EQfvvtt7S0tJiYGJVKZTab9+7du2jRos8//3zQoEFV0XqXmZmZlpY2bty4kJCQSi+8rKzs999/b9q0aaWX/DfYbLYTJ0484OQXFBTs27evZcuWbdu2rbpqeHp61q9fv1u3bgMGDJg4cWLTpk01Gs3DtMPRNK3k9y9/hWVZjuPKX+F5nmXZuLi45OTkDz/8cPz48XFxcb/88gvHcXPmzKlYlNKmxTCMsi3LsjzPV/yZoqhJkyZt27Zt4MCBAwYMKC4uPnXq1JgxY4YMGVJYWJiamjp8+PCGDRvu2bPH09OT47iAgICuXbt+8MEHN27ciIiISEtL8/PzmzJlCoTwjkoqIIS3bt16/vnn4+Pjz54963K5unTpovTJls/0bNas2aBBg5YvX3769GmVSnXgwIE333zT19d36tSpo0aNGjFiRPPmzS9evJifn9+wYUMAAMMwPM97eXk988wzaWlpM2bMaN68+dmzZxmGGTNmjNICt2rVKoTQU0899eWXX2ZlZUVHR6elpQUGBvbu3bti3TiOU+qs1+s9PDy++eab2NhYpeOVIIgHIKEb8TjQ6/X9+/c/fvz4smXLNmzYoHz4hYSE+Pr6KqOF7ikhIWHFihUNGjSQZfnEiRNTpkx56aWX4uPjGzRogBCyWq0lJSWCIKjV6oCAAKWtQpIkg8FgtVoxxlqt1t/fX4n8jEajt7d3cXGxJEnK6xXbNu7gdruVqX/Kh5a/v7+yEJDJZDKZTKIoMgyj1+t9fX0piiooKFDyprpcLk9PT5fLxXGcw+FwOBw0TQcHB3t4eDRt2nTBggVBQUHK2CmO4wRBsFqtNE37+fn5+PgAAGw2W0lJicvl4nne29vbZrMFBwdX7MsrKSlxOp1qtbq0tBRjrMQKRqMRIeTl5eXv76+82WAwmEwmSZI0Gk1AQICyIJIkSUVFRTabDUJoMBjKm08kSSopKTGbzQghjUbz4NNS6caNG/ftt9+uX7/+p59+Gjhw4NChQ+vXr69csgdsFR0dPXHixPIB9QzDdO/e3eVy6XQ65ZX+/fvr9Xqe50eOHOnj47N58+asrKxOnTqNHz++UaNGFYsKDg4eMWJE48aNlS8DHTp0CAwMVM5A69atdTpdQEBASEjIDz/8sHTp0oyMDA8Pj1mzZg0ZMkSj0UyePFmv1+/cuTM7O3vSpElhYWFKf+WAAQMQQlu2bMnOzu7Vq9fEiRPj4uLsdnvnzp1tNlt5JRVK2tvExMQzZ84kJSWNGDGibdu2NE1PmDChWbNmyntCQkJmzZoVGRl56NAhu90+ffr0SZMmURTVtm3bzz777N///rfBYBg2bJiXl5dOp1OpVB06dAgLCwMAtGzZcsmSJevXr8/Pz+/Wrdvo0aNjYmIQQh999NHZs2d9fX179OjB8/yhQ4cKCwubNWu2YsWKiplTaJru2bOnIAharVaZ2Xry5MnygJIgHg9VtBDWX162rEqXy6hSNb6Q2eN66mp8bT6FzWZ76623vvrqK2UCnZ+fX48ePXr27Pn000+fPHly+/bts2fPVjJjAQBMJtMbb7yRlZWlhG7Kizt27EhOTp48efKCBQtu3Ljx7bffnjt3TslZ37Vr19GjR2s0mgMHDqxfv95sNkMItVptcnJyt27d9u7d+9lnn7Vp0+bmzZsWi4XjuOTk5L59+5av84gxXr58+apVqzZu3BgREXHgwIGtW7darVZJkoKDg8ePH9+yZcusrKwvvvji+vXrSmQWHh4+bdq0yMjIGTNm5OXleXp6Qgg7dOhw9OhRhmFcLldZWVlJScngwYNfeeWVixcvrlq16tlnn+3atev//d//KVnEzGZzWVlZx44dJ06cCAD48ccflUmCLMuGhobeunVrwYIFwcHB5Sdw2bJlBw8ejIqKun37ttFo9PX1DQ8Pz8nJUWYyvvHGG3FxcdeuXVu2bNmNGzeU9pIuXbo899xzfn5+P//88xdffOFwODw8PARBuHz58vPPP//mm28eOXJkw4YNyvh9jHHPnj2HDBly4sSJt99+e+bMmUOGDKl4BQ8ePPjOO+8sW7bsYZoPH+amEgRhzZo106ZNU8Z7+fn5tWvXrlevXq1bt27QoEFMTMyGDRuUAV5/qfCHeUMt0bRp09atW3/55ZcPv0mtek7+8ssvI0aMyM3NfXC0XUvUiedkXVSr7sm/qopCtyeo1e2xXMiselTKmXG5XL///vu5c+cqs2b/y263l39rVybN7d69u0ePHhqNpnyw9gN069aNZdmzZ8/abLaNGzd+9913o0aNatq06fbt21NSUho0aNCoUSOlL+mll15iGOa7775bvXp1gwYN8vPzDx06hDGeOnWqLMtr165dvnx5eHj4PTsEz549+8knn4SEhIwePdrpdM6bNy87O3vTpk2nTp06dOjQuHHjWrRocezYsYULF7Zu3ToiIuLSpUunTp165plnnn32WY7jLl68WFBQMHny5GbNmn3xxRdLly4dPHiw0mHaunVrWZYvXLiQnp4+a9as1q1b7969e8OGDa1btzabzZ999lmHDh169uyZn58/f/58hJCy+He569ev7927d9CgQaNHj7506dL8+fOfeuqpsWPHZmRkrFq1qn379uHh4W+99db58+ffeuut6Ojobdu2LVu2LCAgoHXr1vPmzXM4HNOmTdNqtZs2bVIGV2VnZ3/00UcURY0fP16v12/duvWjjz7y9fW9X/5YAEBBQcF33313+PDhv3jl78tgMKjVauXql5SUbN++fdeuXUlJScnJyQ/Y6tEXVawlIiMj/2q6jVr4nCwoKLhjmYraqTavpFmn1cJ78uFhjKsienuCQjeiZtnt9s2bN+/ZsychIaGKdlFYWKgkPihns9kuXboUHBz8gFl45TQaDcuyymy+vXv3hoSEJCUleXt7d+nSZc+ePfv27SspKcnKyhowYIDyQZKYmPj999+XlZUpm0+ZMqVPnz4IIVEU586dm5WVdXfopgwbz8vLGzRoUGhoKIQwMTFxx44dt2/fbty48bRp06Kjo5WISlkfSfkhMjLyvffei4yMPH36NACgf//+L7zwgl6vNxqNx44dqzg/UdGqVavp06dzHKfRaLZt25aXl5eZmenh4TF27Filmyw7O3vDhg13nwGO4+bNmxcTE1OvXr3169f36tUrOTn50qVLSg3z8vL27Nnz0ksv/eMf/4AQ0jR9/PjxCxcu2O32zMzMhQsXDh8+HGPs4+Pz22+/AQBOnDhx7dq1SZMmRURE0DTdvXv3HTt2HD16tEePHve7BBaL5fz58w9YvPyvumNeJABAluX09PQ7ejYfV1OnTtXr9TVdi0c1b968adOmlffwEgRBQjeiWrVr127u3LlVUTLGeOXKlb///nv5K8oAuCFDhuTm5h46dOhPS1BGtoWEhLhcrhs3bkiS9PHHHwMAJElyuVxGo/Hy5csul2vXrl3Hjh0DAFgsluLi4vLIIDExEQBAUZSfn59KpVLGw93xfcvlchkMBqPRuGHDhr179wIACgsLeZ43Go0cx/388885OTnKsdhsNuXbHoTQz88vMjKyvBBlagUAQKfTYYxFUbzjQBo0aMCyLIRQo9EghEwmU3FxcURERPmq4YmJifcM3by9vZVhTBRFKWnAAAAMwyg9sDdv3hQEITExUTkoX19fPz+/srKyK1euuN1uJQ8+hFDpaQUAFBQUWCyWrVu3/vzzzwAAURRFUayYG+xuUVFRkydPVobDPzqE0IkTJ3755ZfyVzw8PLp27Tpo0KB27drt3LmzUvZSm3Xt2rWmq1AJTCbTzJkzZ86c2aVLlyrqfiKIuoWEbkS18vT0rBiFVKLs7GylBQgAwLLsc889N2LEiBYtWgQHB2/atOlhnvg7d+5Usi0oc98SEhImT54MAEAIlZSUREZG/vTTTzqd7sUXX1TabARBsNvtcXFxSmNYeQjldrsFQag4A6CcktYrNDT0xRdfbNy4MQDAbrfbbDY/P7+PPvro4sWLL730UqNGjUpKSmbMmFG+1R1F0TT94MMpf7/yNiUEFEWxfPaA0Wi854YVRxTdnYFMGQJfngBWmSrh6empUqkoiirvkpYkSWk4VOZXjhs3Li4uTjmNJpMpNDS0tLT0fjXneT4kJKSy7hCHw/HLL78owaJGo+ncufOoUaOSkpIiIiIe496lx89HH320YsWKuXPnvv76688991wlpusjiDqK5HUjHhO7d+8+e/YsRVEDBw5MS0tbsmRJ7969w8LCHuZBjzE+cODAv/71r+Dg4MGDBysr/7jd7vDw8I4dO2KMlyxZkpWV1bp1a0mS7HZ7x44dO3ToUFxcvHHjxuLiYqUQpRXH4XBcuHBByfV1d4Cl0WjCwsLsdrter3/66ac7dOiwdevWhQsXIoQuXbrUqFGjUaNGtW/f3m633zEQ7VF4e3sHBgaeO3cuLy8PY+x0OteuXfs3yomJidHpdLt27VKiwKtXr966dSs2NjYhIYHneaUZT5KkjIyMy5cvAwCio6N1Op0oim3atOnYsaOPj8/ChQvPnj1bWcf1p9LT0zdu3MjzfKdOnb766qtVq1YNGjSoXr1694yq6xCXy7Vy5cpt27YdPXp0xowZJpPpjjd89tlnynLyf6lYp9OZmpp66NChzz777AG54qpfvXr15s6d269fv0WLFm3bto2E3QRRtx9hBKHIzMw8ePBgQkLCzJkzk5KSHpzUrdzp06cHDx7M87zZbC4uLuZ5/ocffvDz8xMEYdiwYVOmTJk4cWKjRo12797NMEynTp18fX1bt269cOHCjIwMiqLS0tJ69uxZPpbozTffVJr99uzZ069fP6X/9A4Qwvbt2zdt2nT27NnHjx8vKSnZsmXL7Nmz9Xp9XFzc4cOHZ82a5XK5Dh48WFxcvHv37ueff/7RTw7P8927d//pp5/Gjx/frl278+fPX7t2zc/P76+Wo9PpZs2a9cEHHwwePDguLm7fvn2NGjVKTEyMjY1t167d4sWLb926pdfrt2zZ4na7AQDdu3f/8ccf586de+nSJV9f37Vr1/r4+HTt2jUrK+vRD+phfPrpp7GxsW+88Ubv3r0fMqlbnYAQ2rFjR4sWLWJiYlauXDlt2rQ73pCWlqbVakePHv2XDhkhtHXrVpqmf/rpJ7fb/eqrr1ZqrR9JYGDg5MmTfXx8Fi1aRFFU//79H5urSRB/AwndiMeBy+VSUoM+YPZiRTzPt2vXTokwAABKM9vQoUNDQ0MBABzHDRw4kOO41NTUvXv3tm3b9s033wwODoYQrlu3LiUlJS0tjabp/v37T548OSgoSCnk/fff//e//+1wOF588cWJEyfekXpUFkZpAAAgAElEQVS3YcOGAwYM8Pb2Dg4OXrBgQWpq6p49ezw8PBYuXKgk75g9e3ZKSsr+/fvr1auXmpp67ty5PXv2WCyWbt26lRfi5+fXp0+fhg0bKp9boaGhycnJfn5+Op3umWeeiYuLYximb9++UVFRSuTq4+OTnJwcExPTpk2bzz//fNOmTVeuXOnatevw4cOXL19+R8a7xMREnueVkj09PXv37l2vXj0AgJeXV58+fZo2bcowzMyZMxmGWbdu3eXLlzt37vz6668r49K++OKLuXPn7tq1y8fHZ+zYsR4eHjExMT4+PkuXLl28ePHWrVtlWe7UqdPMmTPj4uKcTuczzzwTFRX19671QzKZTP369VuzZk0tTxWmJDFRWsgYhlEGKQIAJEkSRVEZLqkk7y3fROmhVqvVOp1OlmWlI1uZH4MQomlakqTyznGEkCAICCElL0x5i6Msy0r55RmD1Wq1MlSgdoa5Hh4ew4cPN5vNb7/9ttlsTk5OLk++QxBPmicorxtRs0pLS+fPn48xXrRoUTXv+vvvv9+8eXPFvG6VKzU1dfr06fn5+X+jKat6HDhw4PTp0/3794+Ojna73TNmzDh58uSpU6eqM0Hun/pLed0ekSiK4eHh98vrVm0wxunp6V9//XVGRgZN040aNRo2bFjTpk1tNtuOHTv27t1bVFSk1+vHjBnTvXv3ijFocnJy+/btGzRoMHjwYLvdLorimTNnvvvuu7y8vObNm2/fvj0uLk7pFj927Ng333xz8+ZNLy+vfv36DRgwwM/Pz+VypaWlbdy4EWPcokULb29vPz+/Xr16DRs2bOTIkYcPH3Y6nWvWrKm5E/OHu/O6mc3mr7/+ev369SNGjBgxYoSSzrpmK0kQD0aSgxAE8XdYrdaNGzdeunSpbdu2169f/+mnn15++eVaFbc9mUwm0+TJk41G44ABA5TJy5mZmcuWLdu3b9/HH3/cqlWrdu3anThxYuzYsTt27KjYBd+sWbOYmJjQ0FAl9Lx8+fKMGTOsVmvLli0PHTqUlZUVGxsLADh9+vT48ePDwsLatm2r5PNzOBxjx47dvn37yy+/3L59+7CwsG3btl2+fHnEiBEdOnRo2bJlaGhofHx8eYN0bePl5fXyyy97e3uvXr26tLR07NixdSLlG0FULhK6EcSjatSo0ejRo2tzwvdu3bo5nc4DBw4cPHiQZdnXXntt/PjxNV0pAlgsloYNG3bv3r1NmzalpaUul+vMmTO3b9/OycnBGPfq1SspKWno0KGLFi0ym80VN5w6dSrLsjRNr1u3zuVy/fLLL0ajMSUlpX///hcuXBgzZozSPbJ06VKtVrtkyZLmzZsbjcbZs2cfOnSoZ8+eixYtSkhI+Pbbbz09PQ8ePDh16lSl2FmzZvE8f89hmrWHWq0eNWqUj4/PV199tWDBglGjRrVq1eoB690RRA0iqylUucd4Jaua9difuu7du3fv3r0qSq6sU6eMExo0aJDT6VSpVA85IvAxVkt62fR6ffPmzY8cObJnzx4IYUZGBkJIluX27dtfvHhx9erVW7ZsCQ8Pb9269R0JacvXKlUyM586dSomJqZDhw40TTdr1iwkJEQZG3f8+PEOHToo4wR8fHyaNGmiNOzduHFjzpw5ygyb+vXrl2fJVop98OjA2vDrzDBM//79lcTR77///rPPPvv888/X9eTDteHE1lFP4Kkjodt/PcYrWdUscur+tso9dSqVqjY3DVanWnJPHjlyZOnSpQkJCU8//bSHh4darf7tt98QQi1btpw+fXp2dnZWVtbvv/++ceNGhNArr7xyz0IwxrIsl+fhgxCWz1GgKKpiHCaKIsuybrdbmZ1Qvnn5+x9GLTl1EML4+PhZs2Z99913a9euzc/Pf/nll5WE0nVULTmxdVFtPnWPz0JYLpfr2rVrZ8+evXHjRllZWVlZmc1m+0vPDqKcMvtMr9f7+PhERUU1a9YsPj6efDwTRJ3w66+/FhcXz5o1Kz4+vqys7OjRowAAl8v1zTffSJI0duxYnufz8/P79et36tSp+4VuHMfFxcWlpaVdvHixY8eOWVlZJSUlysoZjRo1Sk9Pv337dkhISGlpaXp6ure3d1xcnFqt3rt374QJE2iazs3NPXv2bPv27av1yCuJl5fXmDFjAgMDV65caTabp0+fHhERUdOVIogqV62hW3Fx8ZYtW7Zu3Xrz5k1lbR9PT8+QkBCtVntH3nbiIWGM3W632Wy+efPmkSNHSktLfX19e/XqNXLkSGUxIoIgaq3Q0FCaplesWJGYmHjkyJH9+/ezLHvlypWSkpIffvjBYDC0bNnywoULZrP5ASv/arXa3r17b968+b333uvevfvZs2evX7+urGDxz3/+c/To0ZMnT+7YsePly5cPHDjwxhtvxMbGjho1KjU1dcyYMREREYcPH87Ozq6joRsAgOf5vn37+vj4LF++fMmSJdOmTbsjLw9BPH6qKXRzu92HDx/+5JNPjEZjnz593nnnnaioKCVZEU3TJG57FEp3iZKl6ebNmz/99NP333+/evXqsWPHTpgwodamqyAIYtiwYTdv3vzxxx8PHTrUuXPnpUuXrlmz5tatW0OHDnW73du3b1+/fr2fn9+UKVPGjh17v0IoikpKSvrggw8WL168atWqDh06jBw5Usnt17Vr108++WT58uULFy709/efNGnSoEGD1Gr17Nmz69evv3PnzvT09KSkJG9vb2XSQ3UeeyXiOO7pp59WqVQpKSlvv/32nDlzyLRT4vFWHaGbwWCYM2fO1q1bhw0bNnPmTNIaVHX8/f1btWr1xhtvfPXVV/Pnz9+4cWNKSkqfPn1IcEwQtZCXl1dKSkpKSkr5K88995zyQ/PmzRcuXPiQ5ajV6uTk5OTk5DteZxjmxRdffPHFF+94fc2aNYGBgZs2bQIAXLp0adq0aXq9vnzqQ11E03RSUtKbb775xhtvTJky5eOPP46Li6slk1EIotJV7Se6JEknTpzo06dPZmbm+vXrlyxZQuK2agAhHDdu3NGjR7t37z5jxoz58+cXFxfX5oGcBEFUp2PHjk2YMGHVqlXbtm1bvHixwWB4DPJrQAjbtm2bmpoKIZw0adLvv/8uSVJNV4ogqkQVtroJgpCWljZlypTevXvPeWtuQECAjJBTcMpIBgBACGmaYWmWghBCADBA4I+JThSklC9LEEAAMMIYYQwhpCBFQQAAwP+ZUaL8ByGAf3y9eoK+Zf03FMMAA4wxRhhLkiTJEpIRBlit1b45Z3ZSUlJqaioAYNKkST4+PjVZY4IgaoePP/6YpulVq1YhhAICAqZNm1ZF2W2qX9OmTRcvXpySkvLqq6++8847nTt3JqlwapyS8gbdRZkWfQeapp+gD/K/q6pCN1mW9+3bN3v27OHDh894402rIN0oMRaZSnJuZRhNBgCASq319w+LDozy1mo5hgEACKJktdsoSHnpNDxDU5CCACCMrC6X0WZhaFqv89TyPAUpCcmiJLlFUZBEGkINr9byHMcyNEVXvOIQwpq6A+6530ds96q4uTKfHyGMEEIyEkXJ4XRZHbZ8Q2Fu/s3S0lJBEGmKatW8+eDBg3U63eeff56WljZo0CAy+ZQgiPDw8HXr1hUXF7vdbh8fn8dsXY2oqKgPP/xw8eLFs2fPnjhx4uDBg319fWu6Uo8/jLHD4bDZbHa73eFwOJ1O1384nU6n0+l2uwVBqPh/Zc1cnudVKhXP8zzPcxynqkCtVqvVaq1W6+npqdPpavl6xNWpqkK3kydPfvjhh88888ycOXMcknz86pWCksKsm5npmWdKSwopmvL08okIrx9fr1m4f6ifp4+GVyEkW202Nc9TEMosQ0OIMHaLYr6x9EpeJsByuF+wn6e3ildhDB0uV4nVZLZbdSptZEBIoLeXVqXiOBb+4Y9AR4niQbU3x2GMRVE2me2yiFQqVqtV8TzzkHnjyn9Q6nz36whhhGRZQpLSyCZJdpujxFhmMJVcu5517Pzpq9euWiw2hmXGiMN6dezcq1evwsLCb7/9NiQkpEOHDmTcG0EQAAB/f/+arkJV8fPzmzNnTlBQ0Jdffpmfn//iiy9GRUXVdKUeNwghq9VaXFxcVFRUVFRkMBgMBkNhYaHD4RBFUfoPWZaV/IIMwzAMU/4DwzBY6SmSJFEURVFUJttJkqTkHSzHcZyfn19gYGBAQICvr6//f2g0mie2fa5KQrcrV66kpqYmJiZOnTpVpVJZysx5+TfPXvv9duFNo7FYcAsMw7idLrOpJOf6NZvZEhUcFe4XoFPxeo1arebVLMNRFACYAtCNsSA4nfYyjGQrp+IhFN0ujHGZw1ZoLLI6bbRPCAMQDTDACMkypCiaooASu2EAIAYYAwjL0+JV6GfEAABYBXEMQrjMYs/OyU+/mu10Ct5aVUhocFxMuL+/F8vS9wvgMMZ3RGl335R/dBNjjBCWkSxJsiCIgiC5BVmQJIwBBSmWYWiG/k93MgAAMAwzcODAq1evpqamhoaGKosbVqcnMNV1ZSErfFSRJ/aJ/+jqyj2p0WgmTpwYFha2cePGBQsWDB8+PCkpqTaP56s9p+5+HA5HUVFRQUFBYWFhUVFRcXGxzWYrD9EQQlqtNjg42MvLy8vLy9PT08PDQ6vV6nQ6tVrN83x53MayrPKDErqJoigIghK0KTFceeud1Wo1m81lZWVGozE3NzcjI6M8nmNZ1tPTMyAgICAgICwsLDw83NfX954NEzV7YuvMQlgmk+nLL79Uq9WTJk1SMlNwNB2o0XpCqkgQsSBCGWCIRadgs5hLIadm1KLeJjnVkAZatUbDsQDJApIpCGUZ2R32UpPBZjN56/Q6lUbHqxmatjsdbqfVbCmRZAnIboAkgGUsizJGkKYphgUAYowBBkpvesWgDWOkDAxDCFMUpAANIPXoJ7c82EIYF5WaL13OvXw543penlsQWQp6Z+Xezo9p3apJRGQgy93Z/Hb3X+9IUHxH9ZQgT5aRKEpOp9vucLkFUULIJQomu9lmt0AkswwNAYD/KdjX13fy5MnTpk2bP3/+6tWrq7nhrZY/j2ozssJHFSGn7m+rQ/ckwzADBgyoV6/e5s2bFyxYMHTo0EGDBtXa3uFaderKYYzLysrOnDlz8uTJa9eulZWV6XS6gIAAf3//wMDARo0aeXp6lsdqOp1Oq9WWL9TxMGia/tN4GmPscrlsNpvNZrNarRaLRQnpSktL8/Pzz507V1BQgDEOCQlp2rRpy5YtGzduXHG6dO08sY+o8kO3EydOXLhw4bXXXqtXr54Sc/AME6HXlwaGYrdTFIRScxlGQBZFh9XKQEby8gEuu+hQyyxHqdUUBpIoSZIsyZLVZjWUFd+4fd3pdPp7+lIYAVnCEFIAIFmWJQFggCTR5bC5eZ5SqyCEGFJIpWIo+o/ZD4jCf0TcWImAkKyMmJQxRhRFMyyk6P+2yd3hT0O6u+8Ji815/nLOxXNXjUYjxICGEEBYZim7kJ4uSwJFt4qIDKSo+34JUFrUlD8YY4wRAEBJfldeF4yxLGNZRrKMBEFyOF02h93mshvKiotKC+02K8AYAgCVo/6PiIiIKVOmJCcnHzx4sGvXrg97OQmCIOosZVHXwMDA77777ttvv+U4rn///mTI78NwOBxHjx49ePDg6dOnHQ5HZGRkfHx806ZNg4KCvL29lViteloxIYTKoLeKXfxKPGc2m81ms9FovHr16oULF3bs2PH1118HBga2adOmS5cuCQkJNd7OWjcWwrLZbIcOHYqOjm7RokV56M1QlL+3vn54A4pS2QUk4xsOt5OiKYCALCEWQA5SFAayKMiSJIqi3eUSBEkQhSJjYVb+tVxDnlalQwhJoiCIAoMARbEatc5T4+Vwu+wuh91pt3M8RjJFUZhiJIRUHM8yDEVRkMJYkvEf81UBBgDJsqjEhrLMshwPKeY/ExruOL9/o5VVkuS828UXLl0rKCigZMSwLMOxoiRIkmSVndeyc3RarUaj8g/wumPD8v5NZYcIYUmWZRlJkgwx4DgMAK2M28MYYKxEdsosXZphWAigILjdbrcoSQAACSEMMAAQo/+pf+vWrTt16pSamkpCN4IgnhAQwsDAQGVVsZUrV7pcruTkZDLt9H4EQTh58uT27dv379/vcDiaNm36zDPPPP3006GhoUrXZy1J3VwezwUFBQEAWrVqNXDgQKvVqiwsdOjQoW+++cbf379Xr14jRoyIiYmp6fpWskoO3TIyMq5evZqcnBwcHFz+IqQpnc4jJChMonmDw4Vorqi0wOW00wzDszxFMTTDqlRatdaTZlinILrdosvllGTZ4rDfMBQaTCZ/PWMwlbIUwzC8l47nOZVW8vBUe2FAuWWpxFam4ngZIwQgw2uwW9KoZE+thmU5CmAMMEJK9gyMMBJFyeUW3KIAMdRoIKQYjAFNUzRN/6dH9Y9sI+Av9lJDCJ1u4eatwpLCEixIEAAAJJplZYQ5hpNkqcRoupKRGRzi7+GlUfHs/04YLS/kj9QnSMZut2h3OCEEOqxSAY5hWQAQAAAjDCnI0BRmGLWaRzISBcHq5BCSMUYIQgnJkiTTgML/2/HKMMyECRMGDRqUk5NTr169v3uRCYIg6hIIoaen5wsvvOBwOFJSUkwm04QJE0jbW0UY45ycnE2bNm3YsOHGjRuJiYkvv/xyv379/P39lbFltXx4KMdxHMfp9frw8PA2bdq89tprOTk5O3fu3LRp0+LFi3v06PHCCy907dr1sbnolRy6ZWZm0jTdoEGDiqOpIIRqtVYtIK3dGewfKsiSJAmlGNKQVqt0vM5X5+Wv8/RRa1SAgkhCgGYxJdmdTqdbxpgBiBFFZHM4LSqHrzfyAoyMsEsSIKRpihMkZ1bRzTKnxddDzzCcWu3F0qzaxQOK0gGoBGRIliGEkKIQwqKMnILoFkSMMaAohmEgVM7DH9Ga0rypVL9iAPenLXAyQiVG663bRoQwhTGWMQUoisIqhhUlGSEMEDKaTNev50VFhXK+nn80A/4xn+K/YSIEQNmhLEllFhsFAER/tBvSNA0gwAhBACmKoiCiIGYZyHI0RdEIYwCBjCSEsCRKNMOCu6rcuXNnPz+/Xbt2TZ48+dEvN0EQRF2h0Whee+01vV4/f/78goKCd95557H5IP/bEEJut1uZWbh3797AwMDk5OTyhdRqunZ/B4RQmQYRHx8fHx//xhtvHD58ePny5WPGjAkKChoxYkRycnJ4eDjHcXX0ABWVGbq53e4bN274+PhERET8779AyNAcz7M8p+LVGpWW5VTeHl4IgdDAqHD/cI7laY5jVbyK52gIJVFyiTrWxJkdziB9iCRKAEJAsYBWUTSPIOUU3G63SNOcVk0JdrnMXlRkKmYYyHNcgE9YlH89qKUtNqcsIZ7nAACSJNEURdEUxsAtiG5JdAluACDLsE6nW6khxoCiKIQQhICmKaV7WgnjHnJYriBItwtNpcUmLEoMRdM05BmOYVmEEYVFmoKQwjZrWXZWRpPGMd7eWiW/8P3G2EEIGYZRsaxbkOxON0JIp0MswyjBHkVRAECEZCwjCgOWZhiG5liWZViOZSGkEEYI3aPeEMJevXodOXLkiQrdyDq5dQJCiKbpauuOUSa4Vc++iL+tclN5KSuD+fv7z5kz5/bt2++99154ePiT+XAQBKG0tPT8+fPr1q07e/Zs8+bNv/766/bt29fp9dDuqWPHju3bt7958+YPP/ywY8eODRs2dOjQ4fnnn2/QoIGfn18dvfqVGbpZLBaDwRAVFXWvJc8pmqG1ao1GrRaRjGSZgoyntz7UJ8hX46HXeXrp1Dq1imUYAADH0CqeY2hKlCSH0+Z2O8wOi1MQ7ILL7nZxDhsFoUqlBhQlO20UpDhGJUuyy2W3OWyyDDW8p5rnnQIHIBRkRME/ehglWZZlGQNgd9hkGal5FQ0pjIEsyRIlYYwpilJiNQj/G7BV7D+t6O6Hvs3uzi8otZnLRLeLommMIAIShhBgzGCAMECyLAruEmOJwVAcFRXGcSyAoHwmQcXBjBBSEAKKAjzHON1uk9VqsQFR8larVEpXKcuwEAKEZAAwTdMqnuNZjqZoGlIcy3EcoxzLHR2mirZt2/7rX/9yOp1PzmgPT09PSZLcbndNV4S4L0mSTCaTWq328rpzJGhVgBAGBAQYjcZq2Bfxt5WWlvr5+VVu6wiEsH///gEBAbNmzXr11Vfffvvt5s2bcxxXibuo5VwuV15e3m+//fbjjz9ev349MTFx6dKl7du3r/ER/VWHoqioqKgZM2aMGzful19+2bx587Rp0+Lj45OTk+Pj48PCwupcAFeZoZvT6ZQkKSAg4I65wRgAAAHHslq1iuc5QRJFScKQ8tB46j28PNRqD61GxbIMTUEIKEgBSMkyUvOcj6dnRFA4RrjAWGh1251OR5nZyEPKQ6tlGV6WkSBJblFgIKNmVRgjJCCny1lsvM1B6Pbw9dZ5eeu8OJ6jORpCaLXb3aKEkCwKAk3RLM0oKzBgDGRZGfWPIAQURSMZAQAwhhRFPeRDA2NcZrHdLiiSJYGhKYwwQkjGgGc5jJAoSQjKoiSKCAuCaDKWud0CzVAQQIqG5U1v5YEjBfEfzUQYS5JgtZvdgsspOLQarYpXq1hOo1JxLKPMJKVoCCUgyqLT7RAkF8RIxbIMwwDp3i0KjRs3djgct2/ffvxGbt5PaGio2+0uKCiQZbmWjLEl7uB0Oi9fvhwUFHSvL36VD0LYoEGD8+fP371kO1F7XLhw4Y7hN5WlTZs2X3755fvvvz937tx//vOfXbt21Wq1lb6X2kYQhOzs7KNHj+7fv7+kpCQpKWnmzJmJiYlPzlPRx8dn8ODBffr0OXbs2LZt2+bPnx8bG5ucnNy2bdvqefJUlsoM3QRBAAB4eHjc+Q8YY4QhhAxNMzRFQSDJEoY0x3BaXqVTq1UcwzC0snIZDSkAAKAAyzCeOrUs+4qiICKZsjGi4HQ4bRZeRdE0h5BTcJodFoutDGDM0AxDsxRFS7Jkd1hKaFbFqv08fF0OwVhqpRlG7+WpU+t4jnc4nViSKQAYCGkAIYCyLCOMKYqGAFAUZGgIMKQxQBSEEFMUVP48eFktDIDN5rJazDRFUSwnOl0AARoCIMnK7AEAEISUjIHd6TKWmdwul4rnAAAYUZCCSmq58rY+jDHAGGAMMQZYdgmOInOhwQa1Gp1W7cEynLfWQ6/2UrM8TdOiLJusliJjUaHxts1uBlimacgwlCzL96xqaGioJEmlpaVPTugWGRkZHBx84sSJjh076vX6mq4OcQ8mk+n06dPdunWrtnQDHTp02Lx5s8FgCAgIqIY9En+VwWA4efLks88+W0UtIjExMR988MGKFSuWLVtmMBgGDhz4GK+XhRDKy8tLS0s7ePCg3W5PSkrq3bt3q1at6vR4r79No9H06NGjY8eOx44dS0tLW7ly5cGDB/v27ZuUlHSPAKZWqszQTUkke3fLM8ZYEiWEkSxJUEYsBKIkYEDJGFGQomj6j3H5ANIURVMUxgBACCmoQTz2QA6X3uKwuSWhzO0wWUyCKNicNpbjnILDZCkV3C6WYQCkkSxTgIEUlmUEARXg6W+3ONMz0o1mh4pXhwYGhgb76b00Oq1Kx3EOpwMgrAQ3kowwQBSFAIAURTEMYGhMU1CZRsAwNMPQNE1R9H0b4SiKAgg7nS5JEFiawSyQXZBCiKKBEosyNJQxoBANKSjKksvtFgVRlmQAAUKIoiiKghRNYaBkYoO4Ql43hESX5DTaS+2ClaIpFaemadrfwz9UH+qj1dMUY3HYbhcXZt/OKS0rFgT3Hxl9IQD3+ZXUarUIIZfLVYmXvpbT6XTt27f/8ssvMzIykpKS6lzb+GNPlmWlGaBLly7Vs0eKojp16rR27dqdO3e++OKLT+YHWG2GMd69e7fFYunYsWPV/cKGhoa+/vrr69at27RpU3Fx8QsvvFAxN8JjQxCEY8eOKavWPvXUU927d2/atCmZosHzfNeuXdu0afPzzz/v3LlzwYIFCQkJQ4YMadKkSe1fLLWq1jCtSJnDgjB2OJ0up0MWBYAkQUJ2p7XUavLUaXmeY1gaUhRNcQBCigIUgEiGmEEcy3io1V4aD4Op2C2KTpfV5rSZnRZAQRnJEGMaAAywJMsIAwgpDJAoSX6egSzg0jPSb90qpBkVhWBhQXFxsZGiUFhQQL3IAF9fL5fLbbc7gZIpDQAIaQwpAABDMwxLK2s5AIw5llarOBXPcjwDIb5f2xtCyO5wAYw9dJ6iIMhOAUtummY4jkMAy1gUBImmIMuwMgUxBpIoybJEU5SMEIKQZpQbBQMMIAQIYSXlLgZIRqKERJvbbrAUSUjQcGo1r3a5HIIglqpKAaBKzcbC0sLCEoPZZnEJLpvL4XK7JUmAmAJ3TzF96Amzj5mePXtu3bp15cqVTZo0efzG4dZ1ubm5n3/+ec+ePRs0aFBtO42MjOzVq9cPP/yQlJTUtGnTatsv8TDS09M3btzYs2fPKp3qqAx5HDt2rJ+f34YNG9xu96RJkx6zpV0LCgpWrlx57NixxMTECRMmKOsf1HSlahGtVtu3b98WLVocPXp0+/btM2fOfOaZZ0aNGuXj41PTVXuQygzd7hcNSDKy2N0YIVOZpbjUYLaWISRjWXa77CVGg1al5liOYxmeZRFGypLxysIHDKZZllWrVRq1GkJYZjPbnBYKYmAFCEuAonVqrU6lBTQFAKYpSpIBwrIM6QDPwOt5t2/ezMOYZjkGSLJLtHI0J4juDLPNWGJq2DAqLNjPJrkMxmJZxghADClIsSzL0TQDIKQgBSGECLM00Htpfb01DENh+h5tWUowhzDACPr7+vt4+1itNsHukCREUTQEiGUYLIlIEiVRkCWZYXmaYp1Op8PBa1QqSRQxwCyHMKL/84TCGGNJlgRJdGY2VNkAACAASURBVAgOs8tSVFZYYik2WcsEyW3j7J4aT5cgOtwSA2lRFCx2i9FcZjSVOWwOt0tw2N0uuyAKAgsf9nvDn86ifcRVC6t084d5AwAgICBg+vTpM2bMePfdd1NSUiprVHLNHlpVb149bt68OXny5Ojo6IkTJ5Zfl2o4M1qtdvjw4bm5uZ9++uns2bMrjh+onnuyijwG92ROTs6SJUt8fX2HDx9eDUPQvL29lYQRX3/99ccff/x///d/YWFhd8eLteHM/KXNS0tLv/322x9++KFBgwavv/76U0895evrWyMNzLX8nmQYJjw8fPDgwW3btj169OjOnTv37ds3fPjwIUOGsCz7iL/LVXTCKzN0u18V7U7XldwcBkKDyZCVl11sLJYlmQIAYKTmNWpWxVBMxbYs5UeKgoCmeI7z0AE/vd7Xy4+iWLPFIiOJ41maphkGOaCLoTmaZigIKECxNIsk5OcVxFGqnBv5dpfE0lByu1W8RsUwFMIUgBzFumzi5as3XU4hwN/LYDJdyckWJczQKpVKx/MammYomqZoGtAUhFiv5sNFX55l1CqWwbQyFO3udRdkCWMMvLy8AgICfP0DAQKG67kUQjTL0xQtS04GAgZSFMI8owKANltMVskWqA+gAIUxpgSR51iGpZUGMQnJDkGwOqxFZkOO4caN4ptGq9nmcCFZFNyiw+lmGBaBAlEUIcayJDntLpvZ4bS7BEEWXbLsRrIsMzSN79Xqdrc/vS8fcdXCKt38Yd4AAIAQtm7deunSpaNGjcrNzV2xYkWljHCq2UOr6s2rwalTp1555ZXw8PDU1NSKw4Sr4cxACOPi4qZNm5aSkqLE9PHx8Q/ZJl0p92QVqdP3JEIoPT39nXfeoShqzpw59evXr57hDRqNpmPHjuHh4bNnzx4xYsSKFSvuboit5b+td7whLS1t7ty5NE2npKQkJCTodLq/tLRo5aoT9yTHcdHR0aGhof369duxY8d777331VdfLVu2rGHDhg/e/E8Lr4rorcp/KzDGZnvZkTNHf7302+XsK3nFt40WsyhKPMfzrEqn9fT29vHx8fb00HIcy9D0/6zvCSkIAAUBSzO+Hr71w+oH+Yf7egf6ewUEeQcG+4QFeAd5aX10Kk8fz8AAnxBfT38/D/8GIXEOh9NqtUgSxgjLoohlWcXwFEIcRXlptXqNmkFU3q1iS5k91D8w+9btg6d+/e3C+YuXL6dfSc++nplXcP1mQe71/OzMm5kXcq7eLi12u0UkY4wqLnvw34kLoigXl5ixKMmCy+W2e3hoAwID1GpeRghDmmJYSRRpDIAo0QghwWW1WgRBzCnKuXoro9hSYnZYSszGUqulzGYz2+1Gq+VWadF1w/XcwpzrhuvXDdcLTYUmS5nd6RIkLAjI4XCVWS3FxmKj2VhqMZptZrvbISBBxjJCMoIYUxgDjMD/rGFK0DSdkJCwbdu2y5cvt23bdsOGDaIo1nSlnlwWi+X999/v06dPo0aNNm7cWCPTu2iabt68+bx58xBCAwcOXLVqlcPhqP5qEAq32/3dd98NHDhQkqR58+a1aNGiOmc+0jQdGxu7cuXKoKCgnj17Hjt2rNp2XbnsdvuHH344ZsyYNm3aHDhwoGvXrt7e3jUYt9UtHMf5+Pi88MILP//8MwCgR48e+/btq+lK3UN1XE6Hw3Ex86KK412CYLKU0TTj4+Xl5eEbERIT6h+i99Dp1Bz/x1wAZY1OZcl4iBFGGAuihDDQqPgQ30Ak/z97bx6nV1Hl/59TVXd59t7X9JKlOxsJAcISSFhkG0CDLCJLwHECOAozQTaBKIiDKASBsA4wgC8VFAVZRVQcGARlkRAgIYRsnU6n96ef/a5VdX5/PJhfvmFRgSzo837x6tfTN3WrTt17ee7pU3XOR+dLGVIhMIjHknYkHrGinCFDFJx5vhPIsDpePTI0FgY+IzIYNznnWusg4ASmaWrXFxGMx6KuVut6Bye0NRy0++5vLX+99+136uoa6hvqEslYJBE1oiYTTKFmjI0VakpeaxjGLbusfFD+uxwQoVxYpFR0nZJr2Twkf2RsJJWqqqpOJmprfM8Pw0AwgchJaQoCAxAVqFDLkMaKYxuGe5pr26pj1RHLZi4TgluGoVSYKYw6rpMp5dYP9mwYWJfO5PLFUqCUYRiCcSBFSIwhsrJiFmlSBJoYoUBU7+amAtIHZSr8M9PV1fXyyy9fe+213/rWt2677bZyVlFbW1ssFqvsVd/eaK2z2eymTZuWL1/+61//2vO8m2+++Ytf/OLOfa9Mmzbt3nvvvffee2+66aZ77rnn8MMPnzdvXnt7+46pMFchl8sNDAy8+eabv//979evX//Vr371y1/+8s7aaVRbW/vjH//40ksvPfnkk//rv/7rpJNOikajO8WSj4CU8p133vnBD37w6quv/uAHPzj++OMruQgfmZaWlqeeeuq666676KKLFi1a9IUvfGGXekfsoDSFUr6Y1VnH9Yigpraupqqhub69vbG9oaamOhW3hChLFyilsKziiaA1AWIopR9KJZUljHgkloonTcEEY8BZVbImEU0YhsEQtFKkZWBHXd+zTZOUlkGgglAxrpWWkkINBuMAjHEAoWxhWHYiWyr0bBrcY2L3yccdf9e9PxzavCkMnWo/GQujkdAyIga3uGlagS4GoSdlSNqCcjgLSWutlJahUlJpopbm2qbG6s72ps0Do65fNLg1bvx407CHejd5hYxAZjJhc2EZFtrRRDzJOBstjG3M9A27uZgdjVpRzphliLgd5YwFvp8pZftG+jYNb0qnx/I5x3F8rYkLZprCEFwIhmyLRCkBauCAJmNAqIgbSATcYEzsKs/ZLkU8Hr/iiisWLFjwi1/84rnnnnvggQd839da78RFro/A8PCwYRifrlonZY0Q0zSbmpqOPfbYU089tbm5eVf4Nqyurj7//POPO+64Rx999Omnn37yySd931dKfboeiU8jiMg5N00zmUzOnTv3e9/73m677bZzTbJte8mSJe3t7TfeeGN/f//ChQsbGhp2haf0w3Fdt6z4xDm//fbb99lnn3+eam3bCSHEokWLGhoa/vu//3vdunVnnnlmW1vbLnJVd8wfu8i5wYTJmGkYRnVVbVWyrrm+tbG2LpmIRkxD8HerbihNAKR0+TVKCBAqVZao4kKYpmmbhsB41I5GYvGaZFU8EuGCAYCSyg/9olMsn0WkNJFWUitJiASKlGJYLiICTJMMgmgsVpOqGhodSmeLnzvwoKH06CO/fNhznaKDIqaThlGbjNbU1DTWNU5sbo3HbUJUmkApFVAYKhlKKcv2ltNOgWldnYzVVicLRSeTc2zbEJyPDfV72QwXTAaugRwNK9Rahp4hmCnMkWIm55UE54jAORqC26ZlclNJmS0V0pl0ZixbyBd8Jwj9QCnNhUAgJM0IgHFk74qgAhITyIEBaAGoCABRmMiMXf3rZmfBOe/u7l68eLHv+yMjIyMjI57nfbre01dffXVbW9vpp5++sw35O0DERCJRX19fXV29C9avHz9+/Hnnnbdo0aKhoaHh4eFSqfTpeiQ+jZTzRWpraxsaGnadigxCiP/8z/9sbGy8++67x8bGzj777IkTJ+4i7+z3xff9xx9//I477pg5c+Y555wzadKknW3RPwiRSOSUU06pqam54447RkdHzzrrrBkzZuwK3107wnXjnEfjSc4FAthmpKG+eXzrpObaxlQ8GrNNQwjBywVxQSktlQ6kDEOpiQRjhiEsy1QafKmEMGORhDTCqkQqGU9UJ+OWKRhDQNCKHF9oLX3P0VrFIhbpsOSVLMtmXCBgEASMMGrb5VVGFYZEKpmqYoI5pWLJDc+Yf2zSNNasX2snrYam2imTxrc3j2uqbayvrouYNuNcK/LdIJA6lDIMAoMz07KE4Fpp0ho0hWEISpqWSMbMRMzMFzxUMhq1HRXqMPQDTyGawpAyyKaHhodq2lItQK8WnTzfquQvMkSgMJSeF7iu7/uBVErpUCtJihRAGCCCFohKEuMADJExBsgRiEG5BwbIOTMNxitRt7+GZVnjxo0bN27czjbk76ahoaG9vX3//fff2Yb8o4GITU1NTU1NO9uQCjsTzvmJJ55YU1Nz5513Llmy5Oyzz541a9au41xujZTykUce+eEPf3jMMcecfvrp/2DFTXY6kUjks5/9bENDw2233XbdddctXLjwwAMP3One245w3SKRWPfE3RjjOpREuqGmqbOxrbG6NhaxDcE5Z8JgiKwcais7Ql6olFSG4FyUJQ+QM25bdjKeDGVoWVY8Fo3YhsEZMmCMaSIN2vPMiGVLLZOJeDxqp0dGPd9VdpQYBoEU3ABAYACkQWkEiMVj8VR8LC1KJa+GW5//zCH+QXNjqUQiEa9OJk3DBCCtNBGRlPlsIZ8v+goLjgtKVqcSqRSYBkdAQsYYE7bFkUhLFZJpGnXVMdvk5E99PfQGNmxExi3DtO2on80N9/Qvo2DuIftWx1L9ozkq1+RFIGAAjLQOwzAIwzAMtdZQLs1bLhmitQxDzrRijIFGkyPjZbVTjSAYaAZcoGJMoTYM5Lvi90yFChUqfAowTfMzn/lMKpW68847r7vuunPOOWfOnDm7mvfm+/7dd9993333LViw4IwzzvhnkPPa8Qgh5syZU1VVdfvtt19//fXFYnH+/Pk7t7T7dnfdEDEZSx6wxwEGF2EYlByHC6MqmYpFbNs0OOfIkAARgTGGjHEGaKBUWr4bP0IEQCTO0TIFQFQqxRiapuCcAYOyiBQAEFEoA0LwQj8VidfW1AwODBPpUCuJHIGACwUgGJazIQRjhimQM+Q4PDQ6OupPm9I1eUI740yGEqC88Q4QgaQqFQube3pHMgWfhNJUU1PjBtofzXLUDXVVZiQaSD2WztumEY8YNkMlJSDEY9b0mZMSicifnhP9G/psK2pYtkgHXibbo+GAufs3xOs2DW0ALaksWIoMQWgFSmottZJaa1IaCBAQy2vJAKQVSEkIBBwFB8YAGXJAQATBSJNiGCpkgiqqARUqVKjwkTFNc++9904mk3feeeett95q2/Zee+2166ycuq574403/vjHP160aNGpp55a8du2H4g4bdq0iy666M4777z22ms9zzv55JN3oj07JOpm21PGd5iCK61dL3D90BaCc8Y5Y4wjIgEAATIUnCOi0hSxDaU4aRKcMwTbNEgTAnIutNZE2hTcMDiQBgBN2g9V0XUKTsHzPT8M4ma0uqoqFo34gXID17K5wQBIhtLnaHADte8r11Oh1Bqz+cKmocHuCZ0tba3IeT5fYkCGIbjBGUPQ0ikWivlCJBKP+lgcy0gVhq7hoiJm2NEICtOwzFLgrds0NJzOIKPqZCoZi9RXxVJxs6Y6Nn7iONMy/vzi62MjeQqCRKK6nkSatJRYHUtpUlprVO8WswOg8oY6JZWWSkmtQkWKNAEBEpFSWipmCFCkmdJaA0PGOeMMiRFoIAWgSQlABoCVnToVKlSo8NERQkybNu3CCy+8+eabr7zyyksuuWTu3Lm7QtaC53k/+MEPfvazn1155ZXHHHPMpygT9tNLe3v7okWLYrHY5ZdfrrU+9dRTd5YlO8J1MwWvT8WE4EQUhMoLZSilChURsbL2Ont3lxcKxjQyTYiomNJac8YEZwDIGLcsrbQKAhmGITIABAJUWodSFh0vnU+PFcdCGTquK4BVpaqraurTo2mtldSKEUoZEjEpQYclRpqlRaKxgSLmcDYTicenTe2KRO1CvhgG0jQFAQaBdEuOVyqMjQw7XmhZscB3spmRXKkQymBca1t1bXVVdRUzbceXhVKAyAYHB95etzaSrGVMxCyeNHFcQ82B+8wcN65x9n67r13T5xYcam2cZkVcUolEUmYkoYZyNq1GICJSoJmSSgahklKGoVZaKSJdzk/QgKCkDhkQIOOaExIRQ+AcAEGBVkoDaCBdXuvdAfe3QoUKFf6BQcS2trYLLrjgqquu+trXvvad73znuOOO27kmhWF40003PfDAA1ddddXRRx+907de/fNQX19/7rnnGoaxePFi0zRPPPHEnWLGjhDC4pzFYxZjjIhMkyJKh1I6XqAJiAj+sju/DAEx0AJYeYsXY1iu+CaE0FpLpRhjgEQEgVJeEBZdx/P9XCk3lBnM5Ecdz5FB4AXebi0zOjomEDGnlPcCl3HDl6qEEIlWM2SMVMwwFIDvB7FYbFrXtMbGat/3nKKDgGAKN5CMcSsSs21bo6VzxXw2U3Q9KxKLKim4sC0bCYolL1t0XTfoHxp97c3X84WcF3hr33zVK3kRQxiMqpOxNWvePmzuPvvvv7dlW+m043gyl8tVc2hrbkqmo8JgSilGDAm1JlIkZRj4MgxC3wvDQOpQ6VArTaCJNCGCDDSA1sCAA0pkQjMtQSMggdakFWlSpMtl8cq3YFdTaPkET//4/X8cdgWNr51l3qfatsozuZ0a7OKnfzgffnpjY+M111zz05/+dNGiRS+99NKll166TeW/HTa1Uql00003PfbYY9dcc81hhx1W9tsqz+QOOz2RSCxatKi6uvpb3/qW53mnnXbah0RhP8VCWIyhZYry/DkjxZBzxhC1plBqxhEZlGVLy3VukSEjQoYcOeOMMQRgAEozzng5SAdSa6mp5Hub0oPp/Gi2NOZ4xaKTyxXGgLDkl5pTzdXVyeGhSH5sRCtpWbFAAlNaGDFuRAKvmDQEi0R04E6e1Nk5rh61CtyAAZgRCwV3i34Y+o31yYgdjSaiVUVvLJ3K5fJ9fX2j6aHh4QEgMEzLCWXf0Ei2WMw7/sjIUDaTHhsdyWRyHHFTdjRwS0D0h+f5C6+8+L3IRfvsvQdjWHC0EbF7N/et2vhW7+haQMk4mtwCYkHgk1aIwFArJWUgpR8GnlRSk9bw7royAYIm0FojAyaQS+BCMMNkjHEgRKUhFBwFcWTv3pFdSqHlkz394/f/cdi5U/ur7Nwbt10735VP//j9fxx28al9ep9JAIhGowsXLpw3b94pp5zy2muvLV26dGuprh0zNdd1b7/99l/+8pdXX331Zz7zmS0b7yrP5I483TCML33pS9Fo9IYbbqivrz/iiCM+yP+h7SOEtSMWTBGgHFQDRABNgAKBDCGlBgRNpLXWDHGr2v9lFw4AiEATMXxX0YkhCsE1idALAqVLYThaHNs0uiFXyvjSd/1CsZjhKGTo92U2zmjZo7V1nFMolcbSOgg5NwzBSIekuFIqDHXRce2oaGmoMg2mlVShtCK2AhxNF1ev36RD6fptVcmYwZEUua4zONifzWdzudxoenhwZIRxPpxOD2YKuZLv+UEhm5a+5zolqUgGgWZmdPyUqtqGuVObV6146ZdPPDFl8sRUdcrxRrV0Uin7jz1/WD+2gTOGhKZhep4PAOV5E5DWWskw9ELph1oCaPiL30aIpAgRmZYEmhvMjhoRUxhak1JSkeREBkNTmKZRET+pUKFChU+S7u7uhx9++Lzzzjv33HMvu+yy/ffff4eJFvi+/+ijjz7yyCPnnnvugQceuOskTPwTIoT47Gc/u3nz5vvuu2/y5MkdHR07cgfkjn61M0TOGIBmDIXBtCJNoDWRJuD4bgkMInh3uxYxDVoTMCAqiyyU1TkhJF1y/ZzjjLn50VK65OX90PP9YiBLNrc8yTZnezvqJtTV144M1+mCY2hlMG4IgwJXy5BpyGeysUKhubk1FjFIKwoVaRpMFzf2p9f2Daxdvy5qipGxbGNdjS0YRxga2NS3eVPRdbOF/FA6PZzN25H4cDoTEkfSyvNUEIS+53suAeOReKpxosOszetWvSMy++w+7Y033vrfZ549/PDDqmsS63vW9ac3b8quD5XPObeYJYA7StK7Gg1hKEOlQq2VVpJCTYpQM2AAiOUwJOfMssyYHYmZkYiwBHEMGWqCEDFErgCYMk1TGJX/sStUqFDhE6atrW3p0qXXXnvtNddc8+Uvf/noo49OJpPbe1Ap5SuvvPKjH/3oyCOPPPbYYy3L2t4jVvhwEonEcccdt3LlyjvvvPP888/fkULMO8p1e1fdCgCRIVB51VMDMAQgrUFrUkgAJGVZSQGk0lIRY0AABmcEVN7uFUhZ9INsycmWCplSNu/mi37RDUpS+qHyFGlFYUhexhvpzWzorptZ11AfZAvkOIIRaK1CnxgHYbulImg/ETUZAkkVhrJnIP3nVT19w2NjuczGDe+ACtOZsdbGJoORWyr0bVqnlALGvFANjGQNy65GWykK/QIDammoiXa2M6JMZqxvoD9T8im9wVDK9v2e1zcXN78zddaczf0DQ4MDXVOnjmttcMK0HpaktcmtuBnLFTNAIRABSa0DrSWVxeORkJdL1zFkjAsuTMM0DcMQpiEsYZpgcM1RcVIIRBBylAwJDaFM0xSi4rpVqFChwidMOXHhsssu+5//+Z8f/vCH6XT6pJNOqqur235xFyLq6+u75557mpqazjjjjKqqqu00UIW/i46OjuOPP/6WW2559NFHTznllB2W57uDXDfa8gMQGTBATkgASKCJpNZl344AQqmV1lKDF4aBUpwx29C2IRAhVDpUyvGDbLGUKWRzTm60NJotjpTcXBi6oQqU8hiQAgwpKAW5tSMr6+L17W3t2vVHNmwEJaXvIQEzDI+0YfHauqpY1EQgqfSmwfSTz/5x9YaNY7lcenSYg66prh4bSw8NblYyCHwvbtuxiM0A7UikvqnNjsQ5N+xIggPJwMsXcm6pMG5c+/Rp04v57IpVb21Y+w7qIB41vJJGYU2cMDEW4VqGWqr2tg5JLtuAgvGqSMLxiqFyGSpCjUwx1MgUogYO3OSMISPDRFNwYQjDMAzBBeeMMyY4NwQXjDFC0kgKSBJo5AxQoDA445XCbhUqVKiwXWhubv7qV79aV1f32GOPjYyMfOUrX2lqatpO3lsQBPfff39vb+/VV1/d0dGxPYao8BEQQhx44IGrVq167LHHpk6duu++++6YVewd4brRXzb6EWwp4gYAoDUoIKlISsk0MwRHAD+UvpReqB0/8IKQM4zZRtQ2AcALAi8ISp6bLxWzpbGx0thQbvNorr/k5kIZaBUCKsEQtdYkFeFwoW8g39Ne01lVFXeiJgaMTJsDY8IMDVbV2tjQUG1wJKUGhzO/e/7lFW+t6u3bWCjkA98nFTr5jG3ZmexYqqpqQltHKmr6TsFKVJuJOgKhpQqUH4vHa1OJiME3Dw1v6Nnw52WvtLSMm9rVfeiBB/VN6HzhpZdVGNY21DY2NQXFnFlbZ5l24AVWPAYWBw4NVXWOn/dV3jA1adJELCQikgRSMwsMy7CZMgwwTbQ4co6MMc4Z55wDAudgmowJhgAKALQmLKczEKIm1H+50hUqVKhQ4ZOnrq5uwYIFdXV199xzTxAEl1xyyXZaOV2+fPlDDz10/vnn77XXXp9sz0Sktd5Fts0ppQDgg4wpm4pl9cedxHstTKVSJ5100ltvvfWTn/xk4sSJjY2NO8CMHTN/Urr8n/7LB1AapKZQaV+pUiDzbpB3/bwXZF0/XfAGMrlNI6M9QwPrB/rW9fetG+jrGdy8cahvff+Gdf1rNwyt2Ti8rmd4be/IO+n8YMktOE7R8xwZBqEMQxUGKghV6Ek346TzpbGxgV6ZHba1V1/fmGpqs2rra8e1tYxrTsRtzlAT9GweXvbmqrdWvbF547rMUL9byAa+nx4d2dTbEzHN2bvv1dbS7Lmlkh+SlRzNFwquE0hfI+Qcd92mTSPZXNf49t13m+Fr9vaad15b8ebQ2NisGTM/c/C8gBkliYVCcXPvOgKIxlMEqBWZZqQmnpK64MusaZIdQTvKIlFmR9GO8VjMTCWjtVVVdVU1dVU1NYmqVCyRjCZidjxqRm3TtkzTNi3btgxLcAOBk8ZQoieZo7mnua9AalIa9A65vxUqVKjwT0oikfjc5z536aWXvvHGG5dffnkmk9keo9x111377bff/Pnzt3YaXnjhhdNPP/3FF1/ccmR4ePi666674YYbRkZG/pZupZS//e1vr7jiir+x/fsSBEFfX18ul/v4Gb633nrrd77znQ9qMDQ0dPHFFz/xxBPbHNdan3baaY8//vjHGf1v5Hvf+97SpUvLDtwWOjo6zjjjjBUrVvz2t78Nw3AHmLFDom4EofxLhTFARNAapNJeGPpSeYEquX4gFWOoiBzfy5dKY/nMWH7U9fII0hIsYhumIbQK3KBYcosFv+AEpYyTK7iZIPRlGMgwRCAEBsSBiDMWaEKt0/l0wSu6pZKTz8eYiJiGJwwjmUw1VjfWRiK2gQilkvfm6jUrVr6eHhlKNk4MeEwX02F2MwoeS6Tm7H9IY2NTz7oVG/s2d0zds+DLTD5fLBZt0wQIgyDoW/NGdXOnIpjQkJw+ZUp/OsejkeVvv53JpOfsPl1/5oBnX3jJKRVFrZ1MJK1ozLAjhCwVq2am9lTGsElwjqx8oYQRGqaB0kBlCgoEBAJCAYqhZkhI+t1CeITEODBLoyklBKEKFUjgioFiRJoUcU0cqeK6VahQocJ2xrbtAw44YPHixV//+tfPPPPM66+//pNd03z11Vf/9Kc/PfHEE4lEYuvjfX19TzzxxLHHHrvlSKlUevnllznnxx9//N/Ss9Z6w4YNL7zwwllnnfWRzevt7b3mmmuOOOKIY4899uMUByaiZcuW9ff3f1ADx3H+7//+r7W1dZvjWuvHH3/8E49Hvi8vvfRSMpncxklFxP333//QQw+9++67Dz/88Kampu1txo5w3TSBLzUBEFBZj1MTBEoWvaDoBiXXzxacglMKVehKp+jkPb9UcjKlYlZKR3AyBYtYhm2ZANIPnVJQKLrFgu+WfDeQgdZSyUCFkiFI5EBMa9KoAZBpViy4fhjYyVQpXmM1jGPRiB1NJFuaI1GeTFqmwbSmYsl9Z/3akaH+8eh/qAAAIABJREFU3ebOL0Vqezauw0w/yYCYvffe+02ZOuOdNSvfWbs6kqiJVdVv2LhuaHg03beurq4hkqi2bUu6xaJTfOWNlc642lw2O3X8lGnTZ23Y1LNyxascwiPmHTA6OlTIZpKJqLBsQEYADMAUpmExYSNjwDgwZJyZjEwyeMiZRFDANBjIDTIYKdKqXENFkyYC0CA1yhA9AF8LCUIyJAbEtNakkSSRZgYiqr9+eypUqFChwseDc77PPvv86Ec/OvPMM0877bSbb755jz32+ER61lovXrx4/vz5nZ2d2/zT+0a53ntQa+37vmVZ26wzbhM62nJQSvne9FWttZRSCFGurp/JZOLxeNlR832/p6cnk8lorbfY4Hke5/y9npzW2vO8SCSy9abALTZvKTFRJggCKeU2jQEgDEPXdSORiGEY751CeRZKKcMwPmTroed5Wuv3JhZIKctX4L0W4l8E09/bm23bZ5111q9//eu777578eLFHzToJ8WOWDCVWue8IOv6Gccfc7y06445brroDo7l124eWNmz7q2Nq9/pfWdt76r1PW/29789OrI+l9nsuEOOM+y6ac8dc5y06416ftrzM56X86UTBK7ve37geb4fBGEQhr5UQaiCUAaedEtauZyFtufoTKFQN65typwDxs/eB2pqZMSOxCxTQDJmIaLWNJbN5TPZeLKqNW4OvPFM8M4fTZm3DdHWMWHWHvsW8+ne9Su9UilZ19w/NOD5ATMsYLyYG8uOjRbyBSuWGFr18uaVLxUKzvRpszrGT+runvivp3zh7H87c8a03fs2b/zsvP2r40bX+PaJ47uACWQCOI9GE50NXVbUNCOGZRm2HYmYcUvETYxbFLUgZrO4zWO2iEatmG1H7IghLERDkQgld0KWD0VOmy5ZAYuGIqnNhBIxxaNSREMRUTyq0FQoKnvdKlSoUGFHwDnv7u5+/PHHm5ubzzjjjKeffvoT6faJJ554/vnnv/a1r/29CRBPPvnk5MmT77rrru7u7urq6qOOOuq1114DACK64447xo8fb9v2vvvuu2W9NZ1Of/vb325tbY3FYtOmTXvssccAYHR09PLLLz/++OOPPPLIk046qaen59prr62pqWloaGhtbb3iiis2bNhw5513vvDCC5dddtlVV13luu6jjz46ZcqURCJRW1t74oknlge9+uqrjzvuuG9/+9u1tbXV1dUHHXTQn/70p7Ixt912W1tbWzQanT9//pZ12w0bNpxzzjlNTU3JZHLq1KnPP/98+biU8sknn5w9e3Ztbe2ECRPuvfde3/e3nnUul7vhhhsmTJgQjUYnT558//33v/fKvPrqq0cffXR1dXUymZwxY8Yzzzwjpbz33nuPP/74hQsXdnR0xOPxPfbYY+3atQCQyWS+//3vt7a2JpPJU089taen54MueEtLy5lnnnnrrbeOjo7+XXfqI7AjXLdAqr50duNIesPgyLqB4TWbh1b39b/du3F175q1G1e8s+7Vnp7lw0NvZ9IbQjct0DfQAyqCLilV9IO8F+QdP1tyx0pepuTlnMDxfN+T0g/CIFCBVKFUUpGUOgzJc6XrhqEjyWMssJmK512qH9cybfbM0VJ+5fp1ImoJAbbFbNssV1Hr6RsoOE48mXrztaebDFkXs5kKjHjVHrNmx2xrcLAfgFU1tZfy+fTwMIXSSQ/4uVHPc4PAH+zvrWnubO6c0rH7gbUd04xYUiNfu2lgYDQ7Y/rUCZOnTJo0fTCbm/8v/9LeMk5ryI7lXTeQoTK4uV/nQdWJRsO0DTMqeJxBlCkLpYHSZNLi2jLQFmhyJgTnKIiMQAknFAVlFSHqsqjHogGPKh7R3FJoKjACMCUzFbMkGooZBKziulWoUKHCjiOVSt1xxx2HH3744sWL77///kKh8HF2gDmOs3Tp0n/9139ta2v7COf29fVddtllJ5544iWXXLJ+/fr777/fdd2f/exn11xzzaRJk2666abddtvtF7/4BQDk8/klS5bce++9p5xyyi233NLc3Hzaaac99dRTSqlMJvOb3/zG87wjjjji97///ZIlS84+++yHHnro9NNPf+ihh5566qn99tuvs7PzqKOOOuyww0ZHRxcuXNjV1fXTn/708ssvX7Fixb333js6OprJZJ5++un777//m9/85sUXX7x69eo77rijVCo9/vjjd9xxx6GHHrpkyZJCofD73/8eAFzX/cUvfvHMM8+cf/75DzzwQGdn54IFC8qXMZ/Pv/HGG7Nnz77++uu7urouuOCC5cuXbz3lu+6664YbbjjyyCNvvvnm7u7uM8888w9/+MPWlyWXyy1ZsmRkZOTWW2/9+c9/Xl9ff/XVVxNRPp9//PHHX3311a9+9asXXnhhT0/PBRdcEIbhb37zm+uuu27evHmXX3754ODg2rVrtwQX38uCBQva29uvuuqq941ofoLsCA3TfKn44luv+qGjtUQCTYqUJB2EftF3S4FbUGGAgNxgJjctwTWFYeh6QSkIHK21x8AQ4AYMEKUiP1SuVE6oAglSo9KgJSmlgVCFihRCCBYYSjCwLDOWCgKjP12wrThxnDS5q6uzuZDPRhIxzpnnBtlsoW9wqKq+tcRiTqleFjLM8KxIIp6oqk4l8/lMNjMar6rff/d91q1bt76nxwtlLFkNMEGYFjEjVDrr+InmSVLDirdWDqUSjfV1EyZ1cQae541ragpLkcTQppF0bvKkCZpwaCTtS6qtTSLYHdUT9mo/5I89vwHNQZkqEOQx7THygXymJWfIy2ujEjwpSmSUmOlxCkEHGhVwDRagAcg1odJal0v3Kq2wXIuF/a2u266mEPeJN9h+7OJT24mqhR+TyjP5kfkH04vcdfjbp1ZTU3PllVc++OCD99133+rVq0899dSJEycahvH3Xhkiuu+++3K53De+8Y33HX3rONzWDcqC4OXPV1xxxbnnnjsyMpLNZgcHB3t6eh566KGOjo777ruvoaFhwYIFQoienp5ly5b99re//fznP/+lL30pFovtu+++xxxzzF133XXbbbcBwNy5c6+77roZM2bcdtttWutJkyZNmDBhwoQJM2fOLAfYWltb582bt99++/X39y9cuPDYY4+tra2tra198cUXR0ZGCoUCAFiW9eCDD86cOTOdTmcymZ6eng0bNvzqV7+aOnXq1Vdf3dra+qUvfWm//fYDAKVUV1fXRRddtNdee3HO991332effdZxnHInRx999LXXXhuNRg8//PAvfOELP/rRj7bsclu9evUjjzxy8MEHn3XWWVVVVXPmzDnxxBMffPDBefPmbblQQRAcdNBBp556aldXl1LqsMMOe/DBB8uhu7a2tu985zuf/exnGWOrVq1avnx5Pp9/6qmnjjzyyFtuuaW6uvr444//4he/+CE30bbtK6+8csGCBQsWLJg9e/Y29+gTZLtrmBKQ5xd7Ni4jkoKh4AwROUeTI4PQEiGzpGAKiBgDjiESctSCB0BBEPquH5LWnKNpCGRMEwYKfE0hkVSoNCoNUhIpIkDURCGRjwYiGZyQoeQ6hFzeHYwUU7X1damY75bcUsFqSpUf9MD3quKR+qStVXSUMZcz5KKUy0QtIThDxiN2ZO85B9Y3tXlg8WRd/8CAIjBzWek7QeBzUeTCKuRy0i3GE8m0DFynJEwrYkc9z+UMOlsb2ifPWvHai14IjcmqGAk/DNMjmVKep1LR/doOWjH4Wr6U0wpVSNoj8kj5TIeaNGmmiJHGgETAzJALReWCvTKgssACAwXAAIg0ISEj1BoZkda67CL/bTduF1SI+2QbbD928antRNXCj0nlmfzI/OPpRe4i/F1TSyQSp59++oQJE5YuXXr11VefffbZ++yzzwdtzPqg/oeHhx944IGTTz65ubn5g/ZXIWIQBFtO11prrU3T3LKtbc6cOQAghIjFYkNDQ/39/aOjo7Nnzy7v8TJNc/bs2T09PcPDw0NDQy+99NLAwED5xIaGBill+XNLS0t56/1RRx314osv3nTTTUuXLp04ceKBBx5YU1OzdU5lPB5vbGxcunSp4zi5XG79+vVz584t21ZbW9vd3V02JpVKKaUGBweHhoamT58ei8UAIBaL7bHHHkNDQ0KI2tra55577vHHHy+VSps2bVJKlTuJx+NdXV1l46dMmVJdXb158+Yto2ez2d7e3lKptGTJkvKRVCq1ZRZlLMuqr69/7LHHRkdHS6XSwMCAaZrlQNq4ceOam5vLl66urs7zvDAM0+n03nvvXV1dDQATJ05saGj48NIkRxxxxJw5c5YuXXrPPfeU/fVPq4YpUQgqb3ASjAvOOEPO0TY4Q1JCBaiRlNYEqIlAKQLUSvtSBlLKwNNaEWeoBXCOGlCWVTw1glakSSvUCrRGAESFWhIo0IAEQFzrQIZB4Pp+tuRKQMEdFjqWKTjnmggBU4nEPrvPrErVrXhr5apVqwadMRE4NYlIY3WqpqoKGWeGXV/fODCSRs59P/Bdx/dcr1hwPYcRgNZePmPakVgsrsPACwOGNDLQn4hG6+vr0+mxqGUYRmTi5N1GM8MtYWAYTPpe0fMcgRD6Nc21DfFx+VJOkZZKKwWkyuJgCgCQceSIQoIhyVDAJYJkJJErUFJrVc41BY3IABHKP0FrqcsXQAFVMkwrVKhQYScghJg3b14ikbj11luXLFmyaNGigw8++O96i//v//6v7/tHH330B9U5a2xs5JyvWrVqy5FsNjs2NtbZ2blFVlWI/+ctzzlHRMdxtrh6+Xy+fFwIsccee8ybN6/smqxcubK5ubl81pYwHhEtWrRodHR05cqVy5cvv+OOO0ZHR0866aQt/f/sZz9bvHjxOeecs+eee9q2/fOf/3zrobexn3POGPN9f8sSZDabBYCNGzdef/31Y2Njn//85ydOnLh8+fLvfe975QZKKdd1y5+LxWIQBGWnqgxjzDCMqVOnliNnALBq1aopU6ZsPejLL7/83e9+t7u7++ijjx43btzq1at//OMfbzPNLZSPuK5b9sA8z/N9/69GTxctWnT22We//fbbM2bM+JCWH4cdsdcNQQvucO4J4QruGcI3hS+EJ4TPecC4AiY1CxSEgfIC5QXSC1WoFJFmqAVqA6ShAy59rqXBwOJkMjIZCUYcNAfNSTPQHIAhY4wz5ECgtZaBXyrkx0ZGhzYNDKzp2/zqmnWjuXwiHhWClYXtkbPW1oZZMybPmrn7pI7Wtsaqjpb6rs5xDTVVsWjMcYoTJnWBMKRSpmmMjQ75xZyTHZVeiREZQjAA7TsMqCz05XhOLjM2PDTYv7kvk8sGvqekDIOwqqZeA/u/558ZGOjhGEZtYQoxMrx5dGBzrVVFTGsWahZq7ivhKKOkDQcsn1sBWj6aIZohM0MQIfAQuWIGIQfGgXFkDBhDzoAjMaY5A85QMGCMGNteodoKFSpUqPBXYYztueeel1xyyeTJk6+//vrnnnvubz+3VCo9++yzs2fPbm5u/qBv8u7u7sbGxocffnjZsmVKqZGRkd/97ncbN27s7u7epozIFhobG9va2l5++eUNGzYAwNDQUDmdoqmpqaWlxbKsww477OSTT54+ffry5cvfGyZ8+OGHb7vttn333ffrX//65Zdf3tra2t/fX466BUFARC+++KJpmhdddNEXv/jFlpaW4eHhD3F0amtr29vbV65cmU6niej1118v5zSk0+kNGzYccsgh//7v/3744YdnMpktmafFYnHZsmW9vb1a66effnpoaGjrxdCamprOzk7DMObOnXvyySfPmjVrxYoV2ziv69evHxsbO/300xcuXDhv3rw1a9Z8yF0wTbOlpeX1119fu3YtET3//PN9fX1/Nf56wAEHtLe3P/LIIx/e7OOwI6JuCBqZj8gQ2RaQMUQECDWECsJAh0orAuIaENAPSUlG0kAFKAGAEUPgjDGBxDVoJEBQQIgECIwhMGQcGQhATgKIgQYm/bCUzQ76gctGBxXDQIX9NcnOcUcYpiAgJrjJmGmZ3LInhRMCP7CjsVx21OSGaUcQNDDW0TlRaQyUGhoa4loFbpG0kr4HXIRaydBXgS+9EhqGlIq08mXguqKQzw0PD8djsfaWxlQyEY9FGpuaV65cPjIy1NrU1FjfkMtn1/esnjplSsv0FsaIMNCCwCREzQWBIs6IcSIEYpqE1EJyUEBaK82QuEbGBUcAAMYBERCBCBFIEJOIDJXB2K5RH7tChQoV/nnp6ur6+te/fvvtt1922WWLFi06/vjjt3Em3pfVq1evX7/+nHPO+SAnDABqamrOO++8iy+++Lzzzuvu7s5msytWrJg1a9bcuXM/SJw+Go2eeOKJF1988cUXXzxz5sz169evWbNm4sSJ06ZNO+qoox588MF0Ot3Y2Lhs2bK+vr4999xzm9PHjRu3dOnS//iP/+ju7t60aVMmk5k/f35tba1t2z/5yU9SqdSee+75y1/+8rLLLqupqVm7dm1fX9/AwMCyZcs8z3uvMZFI5Jhjjnn55ZcvvfTSjo6OV199tRx+q62tHT9+/JNPPlksFrPZ7FtvvaW1/v73v79w4UIieuWVV84777yGhoY///nPEydOPPTQQ7d02NnZeeyxx959990XXnhhe3v7ihUrVq9evU2N3wkTJlRXV99+++1//OMfe3p6Nm7cODg4+L6JqAAQi8UOO+ywSy+99IILLujo6Hjrrbcymcxf1XIwTfNzn/vck08+ee65524dFPwE4d/+9rc/qb7S6fQrr7zS0dExbdq0rY+PFUZfXPV7JohxzThxDuWfgCRlGEjpBL4bBqUgCEMtNYQheD74LoQe0yEjxRlxBhwZR2SAoAE0KA2KQGlUHEEYzDSZaQrDFIbJDIOZBhecI6DSKgg818k5TrZUGit42Qmd4zubmzURY0wYBnKOyBjjlhVNxBNRy7YQYvG4G5JCYURimvMNvRul6w0PbCYpS4UsY9wwjcAphb5LWnEEUlJrxTgTQgDpmB1liEgqGo3EYzHBWTwWRa1lEHDGArfw1ttvuJ7XWt/Q1t725tiyQLqkJYFCprjQ3ARuaWYStwgNCUYIQjKhGCMADQwZMoMxQzDGkXMQHAwDDQM4R87REAwBTG5OaZ2118QDt7lNQRDccsstJ5xwwnurBG1XXNctZ/oceeSRO3Lcf1QeffTR2trarf/irFChwq5JPB6fMWNGLpe7/fbbpZSzZs3axnsrr/1tXQXtV7/61caNG0866aQPF1bq7u7ec889C4XC0NBQ2RM666yzJk+eXF6drKmpOfjgg+PxOCJyzsePHz99+vRJkyZ1dXX19fUNDw93d3d/+ctfnjx58pw5c2bMmFFTU9PX15fJZLq6ui655JK9996bMSaEmDRp0tSpUw3DaG9vb2pqWrdu3cDAgG3bJ5xwwgknnNDQ0JBIJJRSkyZNOuqooxobG3t7exljBx988Pz58yORSHd39/jx47u6uvbdd9+y3yOE6Ozs3H333cvKUevWrSsUCocccshxxx03Y8aMuXPndnR0OI4zOjra2tq6cOHCqqoqIcShhx6aSCTmzZtnGMbQ0NCee+557rnnTp48uVxqbt68eeX8icbGxoGBgdHR0c7Ozosuumj27NlbO1vlsiZDQ0O5XK67u/srX/lKPB6vqqraa6+9Wltb99hjjy2+cnd394EHHtjc3NzU1NTf3++67uGHH37IIYfsvffe06ZN+5BFLUSMx+M//elPZ8yYMWHChO2x/PV3p/N8SPt33nnntttumzdv3gknnPD/twdau3nVDQ99CxAQgTMuOBO8LLyJvh86bph3goIbuF5Iigk0gDj5LHBBeqRCAIWIiBzQYGAAcVJMhRQolBpCjYoBMYHCYIxxxhCImAShuKEspixOJpIgQmIIQgvbmH/Y5z+738GmMARnjDFCVFpns142U1Qy7F23tn/jO1ayrndoLF7bYseTIcNNvX2FkeF1a9eUirlcJm0YVhCGgec6TlbLAGTAhWVGYowxYZh2NBaxrOam5tb6mmm7755KRqXvdra1pmJRCjxEWvbqCw8/9dSEjvajDzygfcbkn625pz/fp0JNipCIATAGWF6CLW9ew5BQESqtpVRKa0IAIo2AAACoGVOMA0MgINJECoJQCYz8y+6n/dshl21zm4rF4pQpU+67776DDjro77r1H5N0Ol3Owb7++ut35Lj/qPzbv/1bV1fXpZdeurMNqVChwt9EoVB4+OGHlyxZMn/+/AsvvHDreMyzzz6bz+fnz59f/tVxnMsuu0wI8Y1vfKO+vv7Du1VK5XK5IAg459FoNBKJlD0VKaXrurFYrOzZBEGgtS4X5g3DMJfLlavdRqPRMAxt22aMua5bLBaVUrZtp1LvJvOVsy+3lKj1PC+fz0spDcOIx+ORSAQAfN93HMeyrEgkUu6EMRaPxznnpVKpnDahlCqnI5SNKY9S3uuWz+e11olEgnOulIpGo1LKQqEQBIFt2/F4vLwhL5VKeZ5XzswoFxlOJBLlyRYKBcuytpQILhQK5bK6qVTqvUGycoPyQOXOGWOWZZVPKXu9nudJKePxeLl9Pp8novKvjLEtWwk/iJGRka997WuzZs1avHjxpzVNAYA0BJpAa0CNnFBoxhBAgxfIkhcWvKDgho6rSHIBwBRAiDoEphkCEAPkiAJAKBKkhQahGErGNCAQIudMGEwIxjhnjANpkgoVcCmZQtQaNAMNgKS5kiZ7Yc3vmhtq9pu0B3AG5fLNGkxTCCHGMlnTMm3b9qXUBM3NzYYdGR4bG9/e9kY6LQOvVMhGTMPzSmEQhp7LCWTgOIURbthxarBjSdLac4payXxuLB61+jdtqJk6ram5taa6NhG3itnsYH/PwFh6NFeaLIyahmbDtgTniMQYEBCCZgiIBKABy/WbNZAEUIgEqAE0ZwyREBkAcc4AAYAYI4aIiFqR5oQIBhfC2GkavRUqVKhQYWsSicTJJ59cX19/ySWXjI2Nfetb32ppaSn/0zPPPLNmzZotrltvb+/GjRuPO+64mpqav9ot5/x9mwkhtgSQEHHrJVTDMOrq6rb+tfwhEomUXbEtIOI2bopt2+91XCzL2tJ/NBrdWqKgqqpqm8bbGFNO+Xyv8Vu7tls+l3vexkgA2HpZeWtj3pdtGqRSqfKHraOeW8/xfS38cKLR6MyZM998880wDD+OONgHsWOEsHQx8DQQASAwROCIiECafF+VvLDoBSVHeS6RFALR0MiJIXLghByRaRCkudZcgUlgKCaIC2JMAygAEkKIcvJqWaMDGCgkRagRtQYlgQA0IYey/+eKkbdGXp82rqvOrEZErXQQqmLRy+VLDIVhRps7J6/p7U3W1irAwHVty86MjSFqgzPbMDJjadO2kYgBBWHJc3OkdKhKrh5KGZYirRnzZZjjRBS0NFalhzcnomZ6yM8MU11N9Vhm9Nnn/xiLWdO6JpgmXz36etJOGpyHFCInAAIgRA2kgTQhEWlCpUlprUnrciiOc0AkZJoLYAiaAAA5Q8aYZqg1cYYcGeeVNIUKFSpU2FUwTfOII45IJBLf+MY3Lr744m9+85vd3d2I+Ic//OG1117L5XJlN6K3txcAxo0b90G5pRV2cWzbnj179nPPPdff37899iZt/6gMgVQ677oFxy06btF1ip5T8Jy85+Rdp+C7Rc91fNeVvi+DUAdKhxolcY2mAltS1KeYr6OujjgYc1nMNxKhmVBmTBkRZUZ0JIaRGLOizIwwM8KsKLdj3E4IK8nNJBoJMJLaSCqrmuxqilRjpAqtmHIh7WlHCK41BYFyndBxQkTGEbWSgNwpOYZph2FIGpLxiO+6YanItebADMNggDLw/WJWOnlQioAMbuzeOvnrB3z+X6fv22wYyndQBhZjI8ODK1e+serNl8eG+0wOA/09q9etzRe9puqalsamRFVsxfAraae/NlLDEBgrb1YDzoELANQapKRQkdSklNZSayJiqBkHZAoZlR04wcEQKAQTDAVHzhgwjgKRVVy3ChUqVNiF4Jzvv//+N954Y7FY/OY3v/nyyy8PDAysXLmyVCr95Cc/AQAi2rx5s2VZDQ0NO9vYCh8RznlLS0sikdhSJ++TZUdE3ZTWRdcjIgICJGQAgAhIhDLUni8DKRUQCIaEgKFmqJFQIBiAQqMgxjVyYgYwA7hALhARGCJHgzPGOC/vDmMMgBNDIkKGrLyUCFojICv7ZQw5MoNjImIlIkkZqiBQvhc6TqCUjsaiGd+PJhIr3nx9eGRwZsfE1nHNxZJbLBZNYbAgrI4nC7lMzI4Uivlqw5w8fjeUQV9m81AxQ8w+fOJeU1LJYq05UNo88s6I9opBUVAQN62obXDOYXCw98U/v7Sut6+utmbmtGlNTS2peCpmWJuzoym7KmpavnIYAwAEAK0BmdZSai3/khZNHJGXC4KgRgYI7xYEYYiIDAGBAAEQGZH6f2V8K1SoUKHCLgFjbO+99/7ud7974403XnPNNdOnT3ddVyl1//33n3rqqdFodGBgIJVK1dbW7mxLPxZbS7Z/zH4+jYWu4vF4U1PT0NDQ9uh8RwhhSa0KJRcANBEBIUMAFCgYE6AZaiEYoqEU0xpCRE1caQi4xZmJ3AAukAlkDJATE4xzYAI5Mvauw1J20lh5ORbLW74YIiPGGANCQABCAGTIETkyk4lUtCrCLbfoeYEqOOFY3kVES5OW4Zr1a99et6YYKk0QBsHI0GA6k7UNK5FM5PPZZCxeLGQ9Fe7d0H5Y9+4x/P/YO+8oOaor/9/73qvq6jDdPTknaZQ1KCAJBCLKBgQYDMYYFidZrNeCg7EX40Vmf7AGg8HYsNiATbAtwOQcbMBiRZCEEUgo5zBKM6PJoXNXvXt/f7zRrA5gTJBGwtufw4Gerq7qV+Ewd274fjGd6Nnd3daeyI7IC7y2YdGCret3xrrRVizIUtDZJmxR1NFh7W7dtWPWEWRpAAAgAElEQVTX7g1bd1SWV1RVlI2qry8pKbWkVewv3B7jLMX8PouyCEgCmZk90MQskBmBgAfUT6QQCEaTWBo1FAGIjAACEQAZQAgkBhRCoDxQj/v/Weubg82hNcL6XJN7Jg8Sh9xD7PPLJ70yDQ0N3/zmN2+44Ybf/OY3RiN3w4YNTz/99BlnnNHc3FxVVbV/B9sHd08kEq7rhsPhf6hV8REYSV7LsswAwWcnnU7H4/H8/PxsNrty5UrP86ZOnfoPm/o/gu7u7jfeeONLX/rSRyiqfPDitLe3L126tLGxsba21kxp7L9Va71gwYL8/Pxp06YZ0d2D8UyGQqGSkpKOjo4DfmQYAiMsACDN8WTWjEwKIRRatvQpZdtgCwRSnmbPY9cD1wOP0RWSlFLKZmUJqVApKaRp5AKhhBCIAoSQUhjhYwQ00wYAJlwTQgpEAaaD3wRyDAwMChBBIgjBqF3Py1Ii6bZ39vfGEo5tdacTvb3dmzavi6eyw0aN9/n9lhKF+QVKWLHebtdLh4L+bMLqziQDCJlU75trFztABbaVL+0jpLV155rXW7bvTvRlBQ+vKkpm3M7erlQ22dnTvnLdulgq3dsX1y5JsGrLy0qKivKi+eylCp3ikON3OSOQAo7tUhqBiRmQGVgIMeD/gQPzswKJgRFZIKIEKQAZmQlxIHZFZEEDIwsH6s7+n7W+OdgcWiOszzW5Z/Igccg9xD6/fPwrE4/HV69e/fbbby9ZsmTVqlWJRMIkluLx+JNPPjlu3Lj+/v7x48fv30r/wYMvWLBgw4YNl112mRl7/HSkUql77723rq7uq1/96qc+yP68++67Tz755P/7f/9Pa33//fcnk8lRo0Z9ltBt586d8+bNO+WUUz4idPvgxWlqarrtttsuv/zy6urqD/4qdF33zjvvHDt27NSpUw/e3xJ+v7+goMD4QxxwhmRMgTiT9RABUdpKKeWzwG+DzyeUFMDoach6AB5wFomQUIJUoCwWEoRAKUEKlEJIiVINKPuiQDD+TyZ6M3EjohBoYjoh2AxDmH8BAhMLRmTBzP2p7ng2ocjp7Yt3dbQ3t+4mcvvj8WzWDUWKGiePLK8oj2cyWnvhYCATj+1q362Awo6v20uzznpu5r2WHcrzqoN5RaGQBNK98ZggBCgviAaiwer6ynWbt8fi8VQi6ZKbyrg+ny/o95dVlFWWVQyrri4sKFA+x2PXr4I+2wLKSmCFSpAkZiI2kS4TSERAaUI3MCcJbHoUzQO5748GAmAGZs1EiCgAAP5p/yeZI0eOHJ9LUqnU66+//sADDyxcuLCnp2f/TVrrjRs3vvLKK1rrfxiQvfXWW3/9618vvvjiwU8yM5n/+//9PJzrukYCw3wmnU4/9dRTRx111McM3YgokUgopT444+l5nhBi7dq199xzz2WXXWZGPo0LghEu+aQjF38vojJ+pu+L5Jg5mUxalmXGOYcPH37VVVeNGTPGnKaROBFCmK2WZf3gBz+IRqOD7l7pdJqZjVjJ+w6rtTYpoU+0eACwbTsYDHZ3d3/SHT8OQzNhyq6rpRRKokQphaWksqSylCUkg0QJLJARNABqk1QzRk8CpIm+AAWgNKOpQggpQADDQAJuX37JZOOEMYCSAyJvYmAbAMsBiTgBIun29mY6y321rDPtLds3b1id0RSKFIdCkfLKmpEjhispISYSsUQmEW9v3dXZ1R4JRdp374r1dffH+gqiocK60q69XfVjjsjs3pGMxZzSkqggGYt5lnL8AR3P6IwuiESCQh1z9OSlq9b3dvUUhMMFxUUNw6pG1NcEgnkgpfT5i6Ijyr3xLbEVRC4AKhTEqEEAaxJMwGDyjEICCmY2URsjEJH5Q40BEIDYqJwQaWIWbNKMn7/2gBw5cuT4Z0YpNXr06O9973uzZs1as2bNqlWrVq1a1dvbayKVtra25557rrq6+oOx0f48/fTTCxcu3LNnz49+9KObb75506ZNb731Vjgc3rFjxzHHHLNp06Zjjjlm+vTplmV1dHTcdNNN559/fkNDw/PPP//qq6/G4/Hy8vLvfOc706ZNu/baa5uamlzXvf322zOZzOjRo7/4xS86jnP11VcbE3el1NKlS5cuXXruuec2Nzc/+uijTU1NiHj00UfPmTOnpKRkw4YNb775ZiKRWL16dWlp6dtvv+153s9//vMzzzwTANrb2++6665NmzZZlnXhhReedtppzz///NKlS+fMmdPQ0AAAS5YsWbRo0be+9a1Bv1QA2LVr1yOPPLJq1apAIDBs2DAjLAcAXV1d999//zvvvAMAEydOvOCCC2praxFx27Ztv/zlL5ubm4PB4Mknn3zOOef09vYuW7asqKiosrJy/fr1v/71r/fu3RsKhWbOnHn22WeHw+GVK1dWVlZOnjw5mUz+7ne/M3LxY8eOveiii0aPHu267rx584466qgNGzasWbOmrKzswgsvPPbYYz9RLcuyLL/f/6E2Ep+dIdF1YyBiqUBIFEpISwg18I+UwIIBB9RCjFXWQNe9QIkoBoIwUzA17lnC9HExoEQpUSAAg9kJB0IzlFIIKaRAAQACBQMBg8m/IXDK623rbyorqOjv7dy6bePqdeuzgEdOirKmWH//5u07yoqLJMqw30mTF3Ocuqq6ztbdiVi366V7Yz35RZGTZn5B9MaLA/nbMtndstdnyd6eDlf6+jWmtS/qFEyfVtG6d8/27S1FAmcNb1jmbd1FmXIHx9ZX1lRWWI6DiNKyi5yKE2vPW90VXdf2P56XASAwTYFskmooEKREKQQzEqBmYgBmIEZgQETzdw0BMRFpjzQhCM0apGLWQ3F/c+TIkSPHx8OyrIaGhoaGhmw2G4vF+vr6enp6TAD05ptvbtu2bcOGDVrrjxYDcxzHiMeGw2Ep5fr162+99dbi4uIZM2Z0dHT8+c9/LioqmjZtmmVZ/f39jz322BFHHLFz58477rhj0qRJ9fX1L7/88ooVKxYuXGhUcG3bdhxn6dKlW7ZsOfLII7XW8+fPT6VSs2fPHjZs2GuvvbZ27drKyso//vGPnZ2dM2fONOHOtm3bbr/99ubm5vnz57e0tFRXV1dXVzuOY7wEzPqXLl2aSCTGjh27ePHiZcuWTZ8+PRgMPvDAA3V1dQ0NDUT08ssvr1q16sILLxw8tY6Ojrvuuuvpp58eP348ET3wwAMmcZVOp//rv/5rwYIFxuPhoYce2rp163XXXVdaWnrZZZft3LnzzDPP3LFjx6233iqEGD58+FNPPTVixIgJEyZcc801vb29J5xwwvr162+77Tafz3fWWWc9//zz48ePP//88//whz/cc889M2fOtG37r3/967Zt266//vry8vJHH330qaeeGj58eE1NzcsvvxyPxysrK+vr6z/+jRZCWJbled6nfVI+iiHxMEVQCi1bKEtIC1CBsEBaxjWdUCIjExMjCwHG3hRQDpQJ0TjKSxO3KSmEFKDM8Kh5T+C+1JOJ/MzsghBC7QvdLKEsaWe9NLEWKJg8gnS/25HJJPxSVpaWrfX7W5tb3lq6qLK8atKkqeFQXiczkLaF8Fsq5NipPg+8VFdv1+7W5lQyvqNp+57mlnH55S1NLXv60zv7453JeIxYSBXOC9bmRx1/wPHb9XV1m3fsTXd31vgjw2pKkdxTjplaX1kRzi+UtoMogCjdvjuL6YmVM3vTe3b1rEQm0qyZNaMZsUAE3FcfZWIgJGDet42ZiVhr0kSktTahGwpiIOV6mj70jrS3t3/ta1/7aNHCA47ph50zZ85QfmmOHDlyHJ7Ytl1YWGjGSI844oizzjormUw2Nzc/9dRTixYt+ugEz8yZMxcsWBCLxa644oqCggKtdV5e3vXXX/+FL3xh1apVrutqPfB3OxG5rhuPx3fs2FFQUPDd73533LhxxxxzzH333bd37965c+e++uqrkyZNuuiii3bv3v366693dXVt2rTJeAksWbIkGo2uXLmyrKxs2bJlW7Zs+e1vf3v00Uczc0VFxe9+97s333xTKZVKpebMmTNnzpxIJHLfffe9+eabc+bMKSgoeOGFF+rr6//jP/7jhBNOePTRR6+++up169ZNnjw5Go2+/vrrF1988a5du9asWTNy5MhBQV1m3r59+5NPPnneeeddeeWVQogbb7zx/vvvB4DVq1c/+eSTc+fOvfzyy5n53nvvvfPOO7/xjW9s3Ljxf/7nf8xZ7Ny587rrrlu6dGleXl4mkzGl1ddee+2WW2658MILd+3a9cADD6TT6XQ6nclkXNfNZDK33XbbOeecc+211yLiww8//Itf/GL58uWnnnqq67p+v/+BBx6wbfvee+99/vnn9+zZ84lCt4M3AAFDFLoJsGxhWWgpkAqExegDUKyFq4WnMeNxmoULqFGiEChNyZMR2ERhKIWQSlpKmGlTEGbsAKUQRrtMIAxMmyIgCimkkkoJafrgGIjYKwiUeORl3JiHKIXN0tKOyi8saBjegEq+/s7St99+r7OjO5nxCvI31lRWFAaD0bw8W6KXTnbs2bV67eoNmzYX+INFFXm9Li1ZtGJTQQuGopmCmi4R6G7flerrDIKbyfDeDmrrhMqyoori6Fkzjoyyt3DN2l4BR00YURTy2X6/PxRGKaWUzOT17t2w54Xi1BcrgpUtco3WZEQ9iMDzTF8fmB+Nx4KZRQBmAkJAIvI87WmddV3tkdYILACAiD3laf3hD004HJ47d+6YMWOG4O4PEo/Hn3322aH8xhw5cuT4XGBZllJq8+bNDz744LPPPvvR1VIA8Pl8lmUJIYzPFQBUV1efe+65iDhojfC+zxcXFy9ZsuTyyy//8pe/fOaZZz7++ONKqa6uLimlsbQaM2bMM88809XV9be//W3ChAmIuHjx4unTpzc3N0+YMGHLli1Tp04dPXq0aa0777zzbrnllg0bNjQ2NlZXV0+bNq2ystJ8EQAEAgGzjJEjR06YMCEcDtfX1yulent7g8HgGWecYTJ5u3bt2rJlywUXXBAOh806XdfdtGmT3+8/+eSTTVB71llnmV8cCxcu9DxPa/3cc88BgGn/37x58+7du0tLS42b85gxY+655x7P81atWjV47pWVlfPmzVu5cuXpp5/+4x//OBqNJpNJs2n16tU9PT3GGhUApkyZUlFRsWnTpuOPPx4Azj777KqqKmYePny4Cfgee+yx5557zuxuKqqf/pZ/NoYo62YpsMzkgUVgaRbZrNAgCIRH4DLqQVGPgTQaDMh+IAophFBC7JtWMNIYCPuqqSgEggAjOQLARu/NbBaIbITSmN14tj1k54dDVbYMuOT1pPZu7FlZGx5bWFjo8zmhSKFP2mu3NO1p3pNIJteuW+2lYvnhUDgYclPJtu4eO6MnNE7d0NKigErLopWl1YTS9by+3mbo7woLT/htv1KEkNbE2tuwpSnWmzeiruLI6cds6tgbTfcGFKayXFpewyCEkIiCiFQiY6e6lq18GPOLvQJN4BFrBiImZtTEQIjKiIKw0f9gZoHIjFpr13M9z3U9nc5qIsEkjQ2DR0ya/l7o5jjOiSeeOPQepuvWrfsnni/LkSNHjo+P6d9PpVIdHR2vvPLK/PnzV6xYAQC2bY8YMeITFdqMq+aHJuoGHUiNy9bDDz98++2333DDDVOmTHn88cf332Xs2LFFRUVr1qwxYhy2bc+fP3/9+vWu644aNWr9+vX5+fmDZdz967kmjvzQhdm2bYK5wYEA27a/9KUvPfnkk4sWLerr6wuFQsOHDx+cOdBad3V1+Xy+wdkLU9IFgJ6enlgs9qc//cnMq5qpAsdxYrHYoIqKse1i5v2nCh588MEbb7zxhRdeeOihh4qLi6+99trTTz/dbOrr60PEwcBRDqRUBn5JmTXsf4m6urq2b98ej8cBwPz7IzCVsIPkhzE0WTe0fWj5UCqQNgnlesLTAGjMHEwuCQUMaMoCACopEU1IZrRmEQQyIiFIFDBQSJUCBIKQQkhEBBPmsEAWAs3cw4CoGzMAEXm9qebeZDOA0EzMkMr0BUr9xWXV4XiwuKgIiKT9dnNri88J9Hd3JeLJzr17A+HCylBkeLj0nCOO6vXLjniyN5MKhAuymnr7OpOJfs/zXC8rlcoLhX2OAwg+SyCT3xKRkN3b17dxy9rjpk7s2L2dnbzyyhrHCUhpWbYNAjidUe3tef0e5CcTXZwNaLY0mQ42EEwELFgIIoGIAExEzABM5uIQkedx1uVslrIug3E8JQRGjxAB/17oliNHjhw5DglmnrG7u7u1tXXZsmUvvfTSG2+8EYvFzFal1IgRI4YPHz7Ym/9JMXW6VCpFRACwfv16AEin083Nzccdd9zFF1+8c+fORx999Je//OUTTzxx/vnnD0YqI0aMqKure/bZZ5uamk444YRgMHjLLbf88Y9/rKmpmTJlyoIFC5qbmxOJhPnwypUrHcepqan5pMsTQphGt2eeeSYUCk2dOnX/gyilysrK4vF4a2urmcPbtm2buRTl5eXFxcX33XffSSedBAC7du3auHHjpEmTYrHYY489lkwmA4FAb2/viy++CPvZkiYSid27d//pT39KJBILFiz4zW9+89xzzx1xxBFma21tLQC0tLQAADO3tLT09vZWV1f/vUbDSy655JJLLvmYZ6q1zmQyB8PAFIYmdBMCfX4hlRAKhWSUmk2GTCAKYWI1HJgiNYIfwADCWC7ggCAG4z4BXjO4gFKgkELuS9UBDGiEMABKYeZVNbPpghvo7DfyGcSaGIAhmWnf2LU4WzBpZNkESOLkcWODocjbK5Z3dHdYvlHJyvp4V0dpQdG08uoxhSV2JuHn7Iy6mk29fb5gMBHr09kUA0jH52jLsq1MOoXAnpslVJG8QDTkuOlkKBwI+APFJaW9fb1FFXWFRWVCWZbPZ1kKiDLrV8vVywN5FCyxJdoZSmeZyKizoUBEZmCWmhEJhTB5N40oAQQTaC00SU97rodao5AKQQIjgwDwEBQOgdFZjhw5cuT42Gitt27d+vDDDz/11FPbt29/XyGioKDgxBNP7O7uHizq/T0sy0qlUqtWrZoxY8b+70cikWAwuHjx4kmTJtm2/Yc//AEAEonEI488snnz5iuuuKKsrGzs2LGDmS0pZVtbW0tLS0VFRWNj4yuvvOLz+RobG/1+v5nEvPTSS2tqakaPHv3GG2+8/PLLxx13XCaTufvuu2tqao488sitW7fu/+22bRPR6tWrR48e/fdWnp+fP3PmzBtuuKGwsPC8887b39ldKTVq1Cifz/f8889XVlYKIR577LG+vj4AOOGEE379618//PDDkUiEmefPn7948eL77rtvxowZ6XT6/vvvP+aYY9asWXPXXXedccYZRx55pDlgLBb7zne+89vf/vaII46oqqqqqqqybXswyVdbWzt69Ohnn322oaFBa/3iiy9KKc3F+Ue38R+TzWZNQPnZD/VBhsJNQQiwfEIOJNGMvbqphgKi2Ne+hQN/LQAAADEhgJkoHRhE2Jd/EyAkoDIxHAoppOmMg8GcHTAMjGEiA4KRyTC27kDMbOY3gUWKki39m7rTe7OUGhGelF8UnRTKC+eF1mzauGHzxnY35TpSgduX6lu5u6ejZWdd7fDKqtqE09be2S7AC0fzMJlCIbTnWhKFJzztKQS/Y4dDgaKiqE8WFuWHCvLDezs7lD+vsKhcKh+zlEICcLazPf3qC6q9zfGFghgSfhbQb+R3AVCAxIGULzKDZtwXhqJpfXOJXAJPg0dCExKhlFIKJSQzsEBUIhe65ciRI8fhBSJGIpEjjzwSEbds2bJjx44NGzakUimzqaKi4vTTT3/iiSd6eno+utw2adKkd95558EHH2xsbCwpKRk1apR5v6amxmhw3H333VLKsrKySZMmDRs2bNSoUevWrbvzzjvLysp27NjxhS984Ytf/KLP55sxY8batWvffffds88+e/r06ccdd1xZWVkwGFRKnX/++Vu2bDnuuOOEEF/60pd27dr17LPPLl++PJlMZrPZuXPn1tfXt7e3NzQ0DNYcGxsbp0yZ8uyzz15wwQV1dXXpdNrUUsPh8KRJk6LRKAAEg8Fp06ZFIpFRo0ZNnDhx/+ImIg4fPnzu3LlPP/30rbfeaqZoJ0+eLIQYN27cJZdcsmDBgltvvRURe3p6Lr744oaGhkgkcumllz7xxBPLli3r7+9vbGycNWuWEKKxsbGwsLC8vPzCCy+8++67R48enUwm0+n0V77ylfLy8rFjx9bX19u2PW/evDvuuOPWW28FgJ6entmzZ48ePVpKOWnSpKqqKrOqwsLC8ePHD57jxySTyfT19Q1OYBxYhkQcBEFKQBwQ54CBRntkQmIYeJOMfwCwQOPiZJJqQkoT4wlEI+8HZnwBjBsqSpACEYHBBGVABEQDCTZkRiI0eWMpQAoE5oGqI2iTlHMz3StaF3al2mfWnx8mR/mswmi4qqiwaeeOju6uzo62dXu3Jrq6bKnynDHNXa0ZnfU5lj+gbMexelXWzbLHlhDRoKNsO5yXVxjJy48EfT7Z192u04mO1n4iKi6pZmG5nvA0kyadzSaXva03rrMV5oXqivIqt9OqDGc9jxgBUSJK09XHxASoiZFYIACg53nM4BFqLTwttBYMUghhzE9RmKydNNLEQ3F/c+TIkSPHx0NKWVNTU1NTc/bZZ7e0tNxzzz2tra1a62w2a9v2tGnTpk6d+vrrr7e2tsZiMRPrfCinnHJKZWVlPB7Py8s79thjB7NcwWBw9uzZRx99dE9PTygUGjduXFNTU319fSgUKi0t3blzp+d5p5122vjx48vKyojosssu27ZtW3V1NQBMnDjxJz/5SSgU8vl8iDh37tze3l4jwNbQ0HDllVeuX7++p6fHsqy6urpx48YBwMiRI/dXZZs8efItt9ySTqcbGhpGjhxJRCZ2GTly5LXXXjtixAjzMaVUcXHxSSedZA6+P5FI5KKLLpowYUJra6vf7x8xYkRPT49t21LKSy65ZMaMGa2trYhYWVk5ZswYkzj88Y9//O6778ZisXA43NDQUFlZGYvFrrzyyurqaiHET37yk+XLlycSCZ/PV1tbO3LkSMdxLr/88mAwiIinnXZaaWnprl27hBAVFRVjxowJh8Na6+uuu66iosIsaeLEiVdcccWwYcM+0Y1OJBKdnZ2TJ0/+RHt9TIbCCAsBwIyBGl1ZFGz63MyYqMkkDWTFjDyINLpvQkocMKtnIM2ANBChCQ0oBQAxIxCDYGZiYmDWJIiANDMREyATamJgUFLaCpGRWQAOGKoKRmRIebGmnhW7iqdNLJ0sbeUP+ELBQF1lZSwe7+poW/Pe4jYrG4kUFhQE+lMZimV9kWAoYAcC4aKiEq29kM9SSgWDgXBeKBIKOLZKJGNbt2/sam92UEfCkXB+ifIFUTqobETBTOnW5uSbC51UCsJ5+ROOHj2uvqu1V3fu8jyX983YgmDSpJkBJDAAECIDs6c1syAWmoQmBBBSKEBjDjugxQv7vBZy5MiRI8dhiPEeeOedd77+9a8vW7bstddeC4VCs2bNikajlZWV7777bnd390eEbuFwePr06eZ1IBDYX9K2sLBw/ypqSUmJeTF58uT3RRJCCKPHZn4MBoOTJk0a3Pq+YKWiomIwmhkkPz8/Pz9/8Eel1DHHHPPB1UajUTOPmclk/vCHPyxatCgSicycOfNDZ2nz8vIGT21/AoHA0Ucf/aGfP/nkk/d/JxKJDJ5pWVnZGWec8b5dJkyYMLjgqVOnTp06df+tUsr9v6i4uHj/qu7HJB6Pt7W1fYodPw5DknUDMHGbEIJAAAjT5kYAAsmUOU1eDRGMxxXg/zoBIDCQJiRkAEJPIrBiBi2IBQrNJjmFg4OZSCSYAIhYkwYQzKZnn7SQSkiJwAhMNJDEQyBmTdnm/i3jSybYPhsAlLL8fifUF88LBn2Km0uL2c0WlJUI5Uskk5rZZ9mR/GLL8RO5DmqfpQA4m0pk3UxHW0vL3j193R2RgG1L6fMHpeUXluMPhGzb0tpN9nQkX3/Zt3ULarLqRtqNk4PlJVPs09LkbupamdBx45KAgATgaRqo9gpGZBOjagJNoGlgcOF//UrNACozM2lSlBvnzJEjR47DD631X//61//+7/+eOnWqEVd77bXXSkpKjjvuOCllRUWFmTz9pJmewx/P85YuXZrJZP71X/91/Pjxh3o5Bwtm7unp6ejoKCsrOxjHH5rQbSAwYxiYI4ABb1HjfcAALISQZhyUNAGZuqnxHt3n28mmS44IPfaACEF7ghEkEiAbbwFmJpAMglEKGGik44FuORT7XE8FAAhTPd3XDscIe/o3tvbvrcmvEkoJmwORPGXbypbKUsG8aG9PRybrpTIp2/FZyvK0C4L8ftsSdrKvM+2mXDe7t70146aTyRi76bDfVlKCULYT9Acj4UihPxBkplRfd9Pbb8QWvjo2nVRlJXrydPIFIO1WBoedVPMVxf7l7Uuybkbs8yAlJtIECEiMSADMhEScdbXr8UAoxwRM5kozsSaTgZT670jy5siRI0eOQ4XW+vXXX7/llltM3FZZWXnWWWc5jnPyySebNFtVVVUmk2lrazvUKz3w+P3+G2+8ERGj0ehnsaU/zMlmsxs2bFBKGbm7A87Q9LohCMnGggoHDJ4YQSAIgcgoBIh94wmMQIAIxKhhIP0mzI5MrDXTQOyFwAJBIyhgRAYBDEgIAATSEtKIwgkGIIEkUCKCURMxsZoJ5RgIAJhIU7Yz0dTc31QZLreUNFK30vaF8wt8Psdn24FAKJVKtnW0a03JdIYA3L7+WDJVUlQcLShLxnvS6WQkLxRL6Ew86/MpsBWAQGlbdjAYDEfzC/PCETfRu+3VP+988S/Q0zeiodqbOJUbxlE8KTyNtioIVE8t/0JXqnd7/waP0vsuniDSxB4KEIIAiDR4nnCz7JFgZpXJ0IcAACAASURBVNIa9lWLEYGIPDLVYKkpl3XLkSNHjsMIIlq6dOm111575JFHXn755eXl5YhYWFh41FFHnXPOOaaCUltbG41GN23alEgkgsHgoV7ygcS0lB3qVRx00un0e++9V1NTs381+QBy8EM3BECjW0GMgCAHhkuZBycWgAkAmYn/t2wKUgDgfkkjZmACNm8RADIIYmJygQQwSwSlBAqUIEx/HAiWptSILAQLkIiCwTTvD3TXARKRJtLEJMiNeb0ek0RpWwoBM9LzXBQyz3O162mfE3KcAHleNpvxiJRlJZOxdDIu8wvyfY5E6OpsBtJKKiYCQNsJ+v15kYKyYCjq2L5UT8eOxf+z4YW/8N5OS4reYSNKjz8tpckG4VM2CFASaoqGTU4f25Jo7sukAElr1po9D4hBCiJBAKw1ZF3P89AjICIijcbzFBCRicBMYeSithw5cuQ4rCCilStX/uhHPxo/fvy8efP2r6Z99atfNSL+AFBWVjZq1Ki1a9d2dnb+k4VuRojYWEEMvmncut735ueaeDy+du3a2bNnH6TjD81lMpptUqBSwkyPohBCGE8ANobrRETMBKxJZ7XOMnsAxKCJPPM+88CPRK5HWdfLuF4m66UzXjLjpdI67VIWJAll6qKERptXMKKH6CK6GrKATMAMmllr0p7nep5HRK7nuhpHFDY6lk9rZgYpheNYfr9PSiltm0F4nqs9Is2W5QuHo3mhcElxWUlhCWgvk0kJZaOwff5wYUl1OFqaX1hRUTWyomZ0cWl1JL+Q08nmtxdv+fPLfbv3ChS2UjEnrzOeSpHwWHja09l0JtGvhJxcc8zxw2ZF/CXMklkQoyZ0XchkKZuhTIayWXJdzmbJy3pu1tNZ8lzOZjiTpkxKZ9LkZsh1NWuGXK9bjhw5chwemLjtBz/4wZgxY37605++rwtq9uzZ+0uBmBHLlpaWfzIHmpaWlosvvnjp0qX7v7l06dKvf/3rW7ZsOVSrOrAw8+rVq2Ox2IcOWxwQhqbXbUDoH4U0Ih8DffdGdhaEUWLTxvOAGZkFCiJPCBYgGJBIG9k3YuO3bp7lAR8GRkAUQglUxEILKVEgmBFSZAANoIGJQCOThwAsCJCZNWlibZJUxNoSqnnbBl/Y80WiPp+jlCUtJYWQSjh+J7+oOJVMJvp6k/FYKpXKuK7tc2zbUrYtlSWkYhTBcJHyhUi7HPQcfzCYV2j5HGTKdLW1rXhn05//3N3choDsWL6SElle5S8q80fCykIE8rJpACIAvx06cdjpfju0cNuLe/t2EZEm1B4GVNBRdiKbSKRirmYgoTUwm1oyaI+1x8QamVAQCrYF5UK3HDly5DgcIKJ33333iiuuGDly5PXXX7//QKjhfY1fkyZN8vv9y5cvnzhx4j+0NP0cEY/HX3vttXPPPXf/N13XjcViWutDtaoDCxE9/fTT48ePHxRDOeAMWejGKIQYzPIhMPyv5qyZL0BEIg+BpYABxRCCfRakA15YwMRs3J2YGZFBGnVfwUqBlIxIDBoAyIxjggbwBHiMLACIXAKXWBAhA+p9Ar0ADKBdSm3527OJluK9eeH62uH1tbXhqio7GmVmZVmBPGX7fD7btmzbTia11iBQKGU5fsuyWbsE4A9FpLSZyfY5Pp9fSCsbj3VvXd/63jt716zp7umLhYJOKC88ZlT99Bm1x5yAjp+Y7YDNpKWdJyUCCk3asYMz6k4J2gXPrXukqX0zaFEXGTm1dnpxuLS5c+vbTUt297TayucipbJpkzXUGjyXPY+BSQmSNpi+wiG5vzly5MiR46NYsWLFD37wg/Hjx1933XUfjNs+SEVFxdSpUxcuXHjuuecehqHbli1bjIvozp07Q6FQXV1dZ2dnS0uLUmrMmDHGVDSTyezZs6e5uRkAKisra2trB20MDMlkcvfu3ZZljRgx4ic/+Ul1dXU6nd66dWt+fn5XV1d3d3coFBo1apRRhkun0xs3bozH40VFRXl5eZ7nlZaWHp6DDq2trYsXL/7Zz3528Oq/Q+Jh+r+Kbzyo+IEAggdmQBGYEQkRAIhZMqLJy8FACxcgMAMSARMgDfghsEAQQgAiC8lCkLGjR2Qiz4RjSBrBQ8gK1BIFEzALjwSRYBRktN+YAQiBmL2Ckor67ryW91a2rW8qqajGqopsQ10yGglEosFwBIWyfE4okm/ZPs9zUaBStrJtZtYe2gxSKp/Pj4AChZtO9re2tK9d2bT49a7WVsgL5U+ZWFRcXlpRM7JxQlltvfQ5sUSiJFSgLMksTUjKLBgkoFCWNanqKI/gL/rp3t6u08add+zomT7Latu6rjgTaS1LRAvKMpTd2rpp1fZ323r3aq09V3ueJ5DYMmMYQ3Bvc+TIkSPHP2DDhg033XTTlClTrr766o+pFoGIp5566osvvrhq1aqysrLDrQnsrrvuamlpiUQiW7dudRxn8uTJu3btam5ujsViJ5988k9/+lMAWLRo0fz587u7u5k5Pz9/7ty5xx577OAREonEn//85xdeeOGMM84oLCy84447br75Zsdx/uM//qO2tratra2jo0Mp9fWvf/2CCy6wbft3v/vdX/7yF0QsKioKBoPFxcUXX3xxfX39obsGf5eHHnooHA4br9WDxBBl3Zg0IBEIZIGIYp+dOpg5BBywomczOopAgKRNIRQHlD3277xnNoVCgSAQpRSILIAQEXhgvNLTzMCABOwheMrowTEyC2JJIBmAmD1NQExAyFoImXEo6sDx0cJU1gu2dfCe1g2vL+zJ8wVLyyqnHRusqXfdDCIqy1KWLZUych0oBEpLKCJNwJju7091d/btbmrfuK5l08b+dNKqqSodOap69Piiyvr84rJQNEKI2WzW7GtUdLXHA+IpNGAUYVm+yTXTok7+3t62kSXjleUAcH9zK+2IFzuF40bMKK4u6Um0L4zUvLL8xba+dtfrA00oWCAyg9bEuQnTHDly5DikrF279he/+EU0Gv34cZuhsbGxsbHx4Ycfnjlz5kFyMf/UrF69es2aNeeff/63v/3tZ5555ve///3Xvva100477aWXXrrrrrsuvPDC4uLiRx55pLOz81vf+pYQ4uc///kDDzwwqHObSCRefPHFO+64Y/To0ZMnT167du2bb77Z29ubl5e3YMGCxsbGb3zjG9FodP78+ffee+8pp5yyfv36m2+++ZxzzpkxY8b69esfffTR2trar33ta4f2InwonZ2dv//977/3ve+Z1ONB4uB7mDIws/ZcABBCEgopJAgSEhhICiGERBRmRJJRmnTbgF8nC4B9HqZGfU0TEdKAFxYKIaVUSgpmzay152qhUUtidrUphTKwJ1BbSGh0QFgAMiARMxFoIgACICDyWU5CZTIqacfaMkm3z0NMZ9v37BDMTn60Y9PWd/MjHYlYyvUKgqHy4pJofqEVCEifT/l80rbT/b3J7q5kd1eis7O/pzPppjyFdl11ZXFxpLSyoKKusLwmXFDkBP1Z0szMqPxBW5N200istWahFEpCUMSm4ou2sBuKRlVGhqeT3p5te0JBK55MbW7a07RnRVwHTzzr1NL88llHnj2qfHx3omfhij+/vWmRq5PAqNQ+obwDAZri86faerB3/1xzsM/9M175w5ncM3mQOLSX7nN9YT+4eCJ6++2377rrrlAodPnll5eWln6i3R3H+fa3vz137tyFCxfOmjXrcHsmKyoqrrrqqoqKira2tlgs9o1vfGPy5MmRSOTxxx/fsWNHXV3dl7/8ZWauqqpqa2uTUjY1NZkVJhKJJ598cufOnY2NjVdeeWVDQ8P69esHDxsKhc4444x/+7d/s2179+7d8+fPNwYM+fn5//mf/2m+rqOjY/+ZhsPqmbz77rsdx/mXf/mXwd0//r4fn6EwwgI2GS4mYgAJRBpIChAShKUECiGRjSYICQJGAVKwlCiFkBL3TaQiMRARokQhkAEQGVGTZjaVT49YG1NUBuExeCbthKyQPMEIRMwCmY19g9w3JsEIjFLYeU7plHFnRaJu24qNCTcR60tBIpXJpHpcz08MPd1p0K1epjuT3enpNsuXbzs+pYSUZpVp0lmFFApiflQV5ucVDM8rLCyrqcsvLFFOQAbClhOwHR8zZ70soLJ8tlRKa8xkNZGWShkbMCIGT6ME7bmdO/Z4aEEwnOqLtaxbFc7zxft6t+zY09LdX7FjR2dnX29bW3lFwfiaIzRBXXF1Ot2zYvd7KEkpYdlSygPz0Hz0g/sPH+uDuvvnmoN97p/xyh/O5J7Jg8ShvXSf6wv7vsVrrV999dXbbrttypQps2fPrq+v/+jf4h967lOnTj399NOvueaak046yefzfdLdDx6IWF5ebgzabduuqqqKRqOIaPrSXNclok2bNj366KNEVFZW1tHREYlEzL7xeHzJkiVKqfr6emZ+Xy04EAg0NDSY9r5oNGrcgd57772xY8caQbiSkpLhw4dv3759cJfD55l87733fv/73//qV786SCYKgwyREZYRd2NmQE1kzBHMZCcjMiKBMe7ULABAgBAsBIAcCK5MNAYIQigpUYIgJiIgZu15wKRZD7qYIgCD8Jg9zcZFypJI0hgykBDgswINRUcUBSvaUy3NsS1ZnUSQCGpU8bRRFROk6PKXVcb74ilIJNNJAdwtRGleXriosHjL5n7EGIL2vETGtUSaLUv5HYzkUUG+VVkdLS3z54X9kXBeND9SkO8LBP2BgO13nEAeC+lpDYie6zFahOi3lBAinclqJYRA1gweCQmAnIolHMcvmTqbdqTtoA4kRcbFZCye6env72vr6OjqT8X7undt2tLZtHb8hLHDjmjsbO+xtThh5PQtnRsTOsZICCxErt8tR44cOYYaIlq0aNENN9xw1FFHzZ07t6Ki4tNlX2zb/v73v//ggw+++OKLX/nKVw74Oj81iGhZ1uCPYqALagBm3rx58x133HHaaadddtllxcXFc+bMSaVSZms4HP7+979fVFR04403vvTSSzU1Ne878v4iKeZoUsp4PG5+zGaz8Xj8MBxHJaJf//rXY8aMOfPMMwffNCOYB/y7hsrD1EwkAAAOOJgigBLSUpaylNhXMFVKMmtiNkK9AIhCICAzMzIzazAdbsgsTdFUo/a09jxPGzcoIolCSDDFUmRCBNCgGaRg2/YHnYKTR533pbH/kkxk+xPJpp71LantU+uPl9phnVXCl5a2KK/1rV3PqWR/NqNJe5lMS0ebcjM2QxnKNtvulsoNR7iyxq4ZFqmoCkYL/eFIIJRnO7bjOE7AsWwbpRACLcvytE5ksj6/X0hFxIASJIYCjm0JIJ3JZLUnBYLPbwsls67nJT3tsmVDNuXu3NO8eceWtHIqiqqKZLY/1dO6tzWdSmSTqe69u7r37uFkf0/zrs7iolUrl29a/rfKySVO0HY9S0mWEvHwamzNkSNHjn9+iGj58uVXXXXV5MmTr7zyykH3909HRUXFlVde+Zvf/OawCt0+GiLq7OwUQhx//PHjxo3btWvX3r17B7WF/X7/+PHjp0yZ8re//e2ee+75UEf59zFlypQXXnhh3bp148aNM41xh9vcBgC8/PLLixcv/tOf/rR/UHuQGBojLCGlhYIRTAc9I4BU0rYUCkBgKRBRETAAa0LBLBEBpZQSEI2LAjARgau1JpaApgHfqMIxIqMY8JpHCcjAhMAKUSopBAhAIaGqcOQlx91op3zdHZ1uVseTmXjcxe6Itbck6WBBfmDH9s6CQCwYzafpJybbe93kG6lEOuN5DsLOZMJHOqisjFR2XsgpKSsd1VjbMK68oiovFLIdx7JtpYSylBBIxCiFVBIRPfJYCqUUg2RklMJzPVcTgBCInqc9Tdr1pKWEGZ3wKJnMZjPe2hXr8wsib7z11vptm/LLSzqKO4vDge7eji2bt3X3xgr8fiEwS8CAa1e8u7W9NZlOuJKSXsp1NTBLGwSy+DxXH3LkyJHjcwcRrVix4oc//GFjY+M111zzGeM2w6WXXjp//vzHH3/8q1/96mGiHWDb9uDkhFLKtm2zMCGE4ziWZVVXVwcCgdtvv33p0qWrVq3q7Oxsa2t78sknp0yZ4vP5pJTV1dXnn3/+qlWrXnrppYaGBsdxhBBm98Gsm1LK5/MJIebNm7dkyZKzzz570qRJTU1NW7ZsOfLIIw/ZyX8Y7e3t99xzz6xZsxobG4fg64ZGHASUFEoisx4wujLupRKEQCFRKYkoidnTHqKZMwWlpBACEIgHRkG1Jk1EhIAoQEiJiKw9BgAhhJKCBQsJTB4DSWSTwZVSSoHKsmaNvygEhe+9veSZZx/+0oXfDklfd0dbAmyp5K7tO3dQ05K/vdHSOunMs06PjmvoxnMyRcW05r3Mts2iv49jsa0+X7ioOFhYFCkvrasdUTN8bElZRV5eUEqJAoUAIRAYiAfc7pUUxAwkPc+zbB8xA7Dr6ngy7XccqdDNZsnTruchgJLKsmwm6O/vZ4K9bZ2vLHglP2jtbG3u60+kqbUvmdgiMJFI9bd3oPYIOJbNrtq4NiSSfZ0t29ascTVPGFub5/nY0wJJEAITUc5+PkeOHDmGCCJ67733fvjDH44aNeq66647UA1PlmVdcsklt9122+TJkxsaGg7IMT8j55577mDoNmnSpLKyMtPKVlVVddlll40cOXLEiBG/+tWvHnzwwR07dpx77rmjRo165plnYrFYQUHBxRdfbM7ipJNOmjdvXm9vb319/fe+972KigrbtufMmTN69Ghz5IkTJ86ZMycajSqlHnnkkVdffbW9vf3EE09ctWpVS0vL4TN1m06n77///v7+/u9+97uBQGAIvnGICqYSQUlEIQUiCtTMBGQUQVAIQOABL1HPI81sphaQiBiAGTwiTzMzCJBSKuN/KlACEjBIRGUpUEbJl1ij1lkhQQgEQCmwIFRSUzh2XNmUlu0d0vJ1dMX/+pdXZh41pblp04pdLfFkPD8YcKQvlYq9+kprXX3txEmT8kqKSiZMCdWP7G9v6djTpDrbPNspGja6tKK6oKAwEokEQ0GfbQ2OnpjmPc/TQiozIquBTYuf7fhAIDJqT2eyruM4oZAfmLPpTDadZibL9jFgNuOmUgnt6WA4nExn4unY7i2bhC8Qyc/zgPr6++NZL5t1w7YdLLQC/sCeno6tPW22LTKpRGd3LBDwka1b4q0+5Qsox7JVKBAK+KJDc39z5MiR4/84RPTWW29deeWV48aN+5i6ux+fr3zlK88///xtt912/fXXH1TViY/JnDlzBl8fc8wxg6/r6up+9rOfmdennnrqqaeeOrhp8PW8efPMi2AweMEFF5jXM2bMMC+uuuqqwV2mT59uvKQef/zxV1999fvf/35lZWVTU9Prr79eU1MzOPdwaNFaL1q06NVXX73wwguHDx8+NGnRobCfFwhKopkVHci6ERGBRxoQiLQHwAyup13P1ZoAQAhBmoSQDEiArmZmtKRUUkkpiTST6W3TQqAQUkjJbEzlkQGEYECSKIgp5BScOPL8I0qPD8n8WHdLoq+jtrJq08YNhUHHH3LaOzv2drRZAn0eF5WXxNPpNWvWjho9HkBYPl+ooChcVJpf25BKpxx/IL+oOBDy25ZSUqBABCZiJkZgQCSPUUgQiABSSABGBM/TKITnEQKmM1k364XygkIKcj3P01nXBQBG1+cPxJPJZCKZFw6DkE4waClMald7XlqTq7Ndvf3pTBaFtCN5oXCo39U72ztYWaiUkrKovPbISeNGT6p1Q3qU44T8QcvyB4OhEZUjD/r9zZEjR44cAMuWLZs3b96ECROuvfbaAxu3AUA0Gr388stvuOGGJ5544pvf/OZh6K9wUCkoKFiyZElLS8u4ceO2b9/e3t5+0UUXFRUVHep1AQBs3br1oYceGjly5KxZs4Ym5QZDVDBFMIOTKAQiMJMm0kSu5wkhiFlJqYk9j0xVlJkFoiXJsoBRaSZNKAUiIzBIVD6flcmmSWvT72aSW8ysiQfGUVmyZhDALAtCtcMLJ8c7SGbiO1ubd2xdn80kuttbN6y3K4fVZTWlsuQKUIjtfTFLiPY9e7ds3hHJL7Jsh12tLDvPssKIwZATCPqVJY3KialFEhEiCCEZGCUYDWGlhEAkIiISQpLmTMYl4kzWU5YNiJ5HXtZLpdMCJTGhsjJZNxFP2j6ftH3EUFJacsTkqZHi0g1NTa2xnVoLp6gwP5SnLNuyHScvHJQyb5SQPr/f7ystjIysqx43ZkRJSaHP8QV9A6IgiBD0DdUYSo4cOXL8H2bdunW//OUvp02b9uMf//ij9ds+HVLK6dOnn3vuuU8//XRdXd0XvvCF941h/nNz0kkn3XDDDcuXL4/FYuPGjfvOd75z7LHHDsE0wD+kt7f36aefjsVil156aWVl5ZB971D8amdgTR4IiQQMRESuprSnXU8jIHlgWzYgasJsll1PM7FSCCiBgIE0MQMiCI0siRFACqWE5dJAuKZBs6eNZSczAhNrJg0CAYVg8m3esNVtztQ1jHpv9YpNG9fpeNyyVV9nB6NOJFIsZH6eXRKNbN2zN9+2t25YK5zQccd/EYViMJq9CMCIAhC01kQDzf+IICSiQCImTcRArKWQHhECMzFpJiIpBCISe5YSoZATCPikQAqoYEDYlpJKWbYNQNqLKNtWShGASzz15C+WtvYV7d4zsqtLKisQzHMcv+2zHdv2O7bP8QlpA6JPifw8X0GeP+i3LCmUQEDwtJHJA51zU8iRI0eOg8zatWtvvvnmgoKCf//3fz8YcZshFAqdd955u3btuvfee0tKSiZOnHiYjCwMAVLKL3/5y7NmzUqlUo7jHCbWpZ7nvfvuu8uXL7/ooouOOOKIobwdBz90YyDirKclAIBm1kTsasq42vVIIpIH2hNKSQbwPNKuBgStZdYlZjJ+AJqZhIcgLYFEXtYFTaQ1a+aMp12dIWJEiShJswABxMZgXiC0d3e19u8piAWa1q/ZsWPTntZ21p4PwWHKxvvzlFJRv5fNbN7d3N/Xj47Tn0xnnFDD6ImhYFjZPmmBVJI1p10NGQ+QBaKSQiohpFASEZCIlaOUklIKS0kpjZUqIgAxI4A25lyISklltgEw0z7xEzQmX8SomV2PM6725xeUyEBBeSkDCCmM+6uUaEthW1JIwcwCQSLaCi1pDoMMA9ZiYKzCDvrdzZEjR47/06xbt+6mm27yPO+SSy454HXS91FWVjZ79uybbrrpzjvvvPrqqw9PB8+Dh8/n+2hd4qGEmbdu3XrvvfdOmTLllFNOGeKFHXwjLABmyLqkXdKk2WSkALVHrkckJDJoIGShiTxPE7EwNgkaSWspAVFoogxlsxLA5ydigCwREbFHOuNq19PEHrEQKAGEAIHARMgMTLQrs2fECF0ZrNj87hJwM9FoxPM8wdrn90XDeZyItzS3xhIZywnVjZxQWlZVXlE6ZvTouuHVtm3bjs82rW0CbVspS0oBUggpUKBAAYiADMbsfV/ldiDy3hd+434XhU2IZj5hzL7MHAYD8j5TCEBWAgM+y1ek9oV0TPvE7oyxhABEAIkgBUiEQeVd81/jEGFqpgPvH8auQZ/ddOgQmucc5qd2ONs9Hc4P1SG/cZ+FQ3tqh/zKfxY+6dqIaNmyZbfcckthYeGll146duzYjxAbOyBXRggxevToH/7wh7/4xS9uvPHGa665prq6+oAc/6DyT/lMbt68+YorrqipqZk9e3YoFPqI3T/iqz81Q2GExQCuR5o56xFpQhOEoJAgBUopbUtYAgWBiwOpI+G6xJ4nlVSWwwzE7P5/9u47LIprbQD4mdneaEvvIEiVJoIgIKhYULHE2DHRaGzRK9HYIzbU2DViQY3JZ7BEUSOKCliwISqoKAiC9F4X2GXrzHx/jG4IKlE6en73eXJxd+bMmdnZ3XdPeY8CxzBKA4qiNDaXyaNRmChCQwGNijLpFAaNQmVQ6Uw6l0llMelMFQaPRmMyqCwmnc2iMTU5mlyUjaHIq6oaQClBaCyRRFJRW1dQWEFjsHWt3N17OlpY2VmaGmmqczksGo9DV2HTmFSUQk5SRRAAAIKSrVoAEOT4OgSQqzy8CZDIVRwAAchlWwGCvMk8TAACeRPAvQnviMZhLrnKA0EQb+I4gBCAggA2HcUBgZMLRBD/urBkySgAFIRAySjw32EzTpDhIFDmBunKqwa1ftGhTlw8p4ufWlde7qkr31Sd/sK1RueeWqdf+db4pLqR80mXL1/u5ua2ZMkSPT29Fqxz1YKjUygUJyenjRs3Llq0aN68eceOHSNH68N7siN3z8nJGT16tJub2y+//EKu/dXM7t11NQUUoTIZGghKAQQVABoNZTKobDWOKpfBRagMLpPDoDHpNAaVQqdTmXQKg0phMKhsBpXFojPZNBYOECaNwaQxWFQmg0anU2hkTEVBUBQBKIIABCEIMrQCCDkwDZChEPI2skEUON7Hx4+mbvw0LaO4tEihkPfkqHBV1Pl8HR1dHR2+qoYqm8OkMegIjUqhIYCKvg28CAJBybY0AryJv8CbWA0BBBmpkeEbQtbjbbj2plsUKKM38mq8qRn595vbggznAIaTi0oACko2ywEcRXAACJxAEQQgAMcJcuFVQAACvOlNfhPyvS0RJwBOIOQoNwz2mEIQBLU1cr2EpUuXOjg4LFu2rP3Gt70XiqIWFhY7d+6cPn36jBkzTpw40UyrD9S2CILIzMwcMWKElZXV/v37lUtEdLB2D90QBDHRslk/4TSdQqdTqFQKlYZSKShKo1CoCEIAgoq+iYwa9zMSb2Ih4u04e6RxxyPxpvELEATAyL8AIMi4hwAAEAiCkA3XGBnEEbgMIxQIom9kwONrSWUKHMcRFKXTqCwmg8WiMekog0ZhUFEKClAEUMi16cmBaG/byhCAAIQMkP5pQH0bxv0TzP0TyZEBGwDKZjkCIMoAm+UFXwAAIABJREFUXtlVCgBCtpnhOCCPSBAETq7jRRAIilAAwN+uDkehIAiBkp2qZKsfRryJKHGc7FoFOAEIAAgcEAgM3SAIgtoYmXf3xx9/tLOzCwkJ6eC4Talnz57h4eGzZs0aP378wYMHjYyMvpxZC51FLpc/efJkwYIFtra2x48f76y4DXRMqxuLzjDX1AfKkOvNeK83wQ9GtlWBt21ab3Z60/8ICEA+h/zTbAXI7d7+/9vQDbyNr5RhIHjTFanACQzHqRQKh8tgMukYhiEIilIQKgWlUlE6BaVQEAoCqCg5SAxQUAQFCIoiKKo8UuP3xD8BEfI2KiMaHVH5HLkt8c/2xL92JhBy7a83/3vbHwuUrX0IggAEf9Mt+6YBDwBCgWNk2xtODoMjCIIAOAAEOSSOAARAcAIHCMDwLrfKGwRBUPeFYdjjx48XL15sY2PT5nl3P5Wdnd1vv/02f/78uXPnbt++3draGkZv7UckEt2+fXvr1q12dnY7d+5svp+0vXVY3q+34Q8B3jRlvQ2LGt9qjVqw3nZ8kn8ioFFQp/z/f0I2oGzXItdIbbQtAQC5hgOFAqgonQytUBShIAjZ34ogAH07Lo0sHVVGfwiBNBrCR/aIAuRtH+ibkWuEcrwbQgAMB+SIPeRNqPqmq1S5jbLWAAEo8ab57k2D3tseWAQBCEpmGCYQAMDbpjUAAA4IKhX9p+3uTcBKoATxJhBEEATgyD+VgiAIgtoAhmG3b99esWKFg4PDunXrOjduI1lbWx89enTNmjWbNm1asmSJvb39F5XvrcNUV1dHRUVFRET07t176dKlamqdvFJRR4RuFBRRZVEBeDsBk3z035Mim0G8s42yw/S9W5JTBMj/KjcGb8M45UGRf4c2b6Kwf4ePjQLHd471ZrJF08dx7E1o2LjoJjVvUucm/2jUSvevZjri7WGJf29JEE3+QJQNeUwabHWDIAhqAxiGxcTEbNmyxdXVdfXq1W21PmnrmZqabtiwYcuWLRs2bPj++++9vb2/tLUW2hVBEEVFRcePH4+Pjx84cOCMGTO0tLQ6u1IdE7ohgEPvFr8D2qKVCq5fAEEQ9Nl58ODB7t27+/btu3jxYm1t7c6uzr8YGRkFBwcfPHhw165dBQUFY8aM6QrrnH4GcBzPyMj49ddfCwoKJk+ePHLkSHV19c6uFAAw0ICgboEgCLlcjiDIh9Z+kclkAAA6nd6x9YKgL8KLFy/279/v7u4+e/bsrha3gbdzThcvXvzXX3+dPHkyIyNj3rx5JiYmcOhbaxAEkZqaumnTJgDA4sWL3dzcOmyJ0v8EO9QgqBtAECQpKWn37t0vXrzAMKzxU2KxOC4u7tChQ3l5eZ1VPQj6jKWlpW3ZsoXH43377bf6+vqdXZ33Q1HUwMDgu+++W7hwYWpq6vz58+/fv48rc3tCny4yMnLu3Ll8Pj80NNTLy6vrxG0Ahm4Q1F3o6+unpqaOGjVqxYoVBQUF5Ozpx48fz5gxY+bMmTU1Ncq86hAEtZXMzMzNmzeLRKLZs2ebmpp28XYsFRWVYcOG7d69W19f/5tvvtmxY4dCoejsSnU/lZWV8+bNW7Bggb+//4YNG8zNzanUrtVFCUM3COoeTExMvL29JRLJzp07nZycbt68efToUU9PzzNnzujo6Pj7+3eRJZkh6LNRUFCwfv360tLSn3/+2dnZuZl1rroOGo1maWl58ODBVatWbdmyxcfHJyUlpbMr1W0QBHHp0iUfH5/r169HRkauWbOmiwxua6Itb8QWrLMhk8kkb0mlUoVCoSxEJpORw3eUmv+5858/hlqzAY7jYrG4SX0+qXwEQXAcJ8+xZbs38+x/atdL17m7t7781ujgUxs5cqSvry+FQhEIBAUFBTk5ORiGqaiojBgxwt3dvYOrB+/J9iu/Nbr4qXWXexLH8efPn//4448KhWLPnj0uLi5d/NSabEChUKZPn56WljZw4MApU6b88MMPT548EYvFH/qa/sLvSQzDqqqqoqOjJ0yYsGnTpjlz5iQlJXl6ejZOE9tOR2+ZjljDtBnnz59XDtChUCh6enoODg49e/ak0+kXLlyQy+VTpkxRbtz4npPL5RUVFWpqasru53ZdBy0pKen8+fMeHh4jR45sWfkEQZSVlcXFxVlbW/fp06cFuzfz7H/qyssOdvoCdq3Rwaemra09ceLEpKSkzMxMAMjlN9BevXoFBQW9tz2gc1+4di28K+/e+vJbo4ufWre4J8l1rn788Udra2tl3t0ufmrv3UBHR2f9+vUzZszYtWvXwoULR4wYMXz4cDMzMzab3eT7+ou9JwmCqKysfPTo0Z9//pmZmTly5Eiyu7kNj9491jD9pHGRhw4dSkpKIn/QYBhWUFCgq6u7ffv2vn37Xr9+vaGhoXHo1lhJScmaNWtmzJjh4+PTRhX/IBzHZ82ahWFYr169WlNOcXHxsWPHxo4d+97QrcMoFAoEQbpazz30kfz8/Nzc3PLy8sg2YB6PN3r0aFNT086uFwR9JjAMu3///rJly+zt7btI3t3WQBDEzMwsNDQ0KirqxIkTd+7cGTJkiLe3t7W1NRxiUV9f//z58wsXLjx48MDR0XHfvn3Ozs4fmsXfpbTl9zcZDYjF4k/ay8jI6Pfff0dRVCaTxcbGbtu27fTp005OTlOmTFHOpFMoFOXl5QKBQENDQ0tLC8fxnJycK1euuLu7u7i4kBtwuVwqlUoQRHl5OY/HYzKZDQ0NGIahKFpdXa2lpcVms8VicWFhIYqi2tra713FAsfx8vLyyspKJpOpp6fH4XBwHK+oqMjLy/vf//43evToJtvLZLKSkhKRSMTj8QwMDN7b8oFhWElJCXibvkFJIBAUFRUBAHR1dfl8PvkgQRBVVVV1dXVqamqqqqoikYjL5bbtAIuqqioURTt3EQ+oxbhc7pQpU+Lj4wsLCxEEsbKy+vrrrzu7UhD0mcAw7Pr16+vWrXNyclqzZk3XybvbSjweb+LEie7u7lFRUdevX79+/bqPj4+Xl5ejoyODwejs2nUCgUDw5MmTW7duPXz4UF9ff+XKlV5eXlwut7Pr9bHaMnRjMpkIglRXV39SCyGdTjcyMiKjEwaDcfLkydzcXAzDkpOTpVKpn59ffX19bGxsVFRURUWFpqbm2LFjraysdu/eLRQKL1y4wOfzURTNz8+fNGmSnp6eUChcsWLFpEmTPDw8Ll269PLlSyqV+vr166VLl7JYrMOHD6enp6MoamlpOXr0aDc3tyb1vHDhQlRUVFlZGYvFcnFxGT9+PI/H27Vrl0QiuXXrlrOz86hRo5QbFxUVnTp16vHjx0KhUE1NbejQoRMnTmyyCIlIJAoPD09KSkIQhMPh1NTUkI8/ePDgr7/+ysjIAACYm5uPGTPG19dXoVDEx8dfvHixrKxMQ0PD1dX19evXP/zwg4GBQWtelyZev35Np9O7+0/JL5m3t7e3t/eZM2dQFA0KCjI0NOzsGkHQ5wDDsCtXrpDdPsuWLeuC+dtaA0XRHj16/PDDD/7+/jdu3IiPj4+JiXFzc/Pz8+vdu7eKikpnV7CDlJeXP3jw4NatW2lpaZqamhMnThwyZEi3i9HbsjmHy+XyeLyioiKhUPjxexEEgWEYhmFCofD+/ftlZWVGRkYUCuXKlSsXL17EMOzBgwdbtmypq6sbMGBAQUHB2rVrhUJhz549qVSqgYGBpqZmcnJybGysQCAAADQ0NPzf//1famqqRCJ5+PDhvn37YmNj1dTUGAzG3r17L1686Obm5ujoePv27d27d6enpzeuycuXL9euXVtaWjp8+HBra+u///77yJEjtbW15ubmKIrq6+s3Wf7i3Llzx44ds7S0HDduHJ/PDwsLy83NbXJ2ERERZEI/ExOTp0+fkgP7srKytm7devv2bX9//4CAgPT09N27d2dmZj579mznzp2vX792cnJCEGTTpk2///57ZWVly16OD3ny5Imenh7Mtd19sdnsOXPmcDgcMzOz8ePHd3Z1IOgzkZCQEBYW1q9fv59++ukzi9uUqFSqnZ3d3Llz169fP3ny5Nzc3NDQ0GXLll2+fLm2traza9eOFApFVlbWoUOHgoODw8LCpFLpzJkzQ0NDv/nmm24Xt4G2bXXjcDgGBga3bt0qKSn5+P647Ozs4cOHAwAUCkVhYSGDwRg/fryyD14gEMTExNBotHnz5vXr18/Ozm7jxo0NDQ0TJkz4448/fHx8+vTpExcX96HCdXV1Z82a5e/vX15efuXKldDQ0KFDh+I4bm5uvmnTpsTERBsbG+XGf//9d3V19f/93//Z2dkJhUK5XH716tWvvvpqwoQJK1as6N+/v5ubW+PCGQxGUFDQ9OnTtbW13dzcYmNj8/Pze/ToodxAKBTu27fPzs5u06ZNPB7PyMho7dq1AICYmJjHjx/v3LlzxIgRFArFwsJi+fLliYmJZWVlFRUVa9eu9fX1FQqFNTU18fHxH335P9bNmzf79OkDlyju1tzc3Mjhxpqamp1dFwj6HLx48eLAgQNubm7ff/+9jo5OZ1enfVGpVFtbWysrKx8fn5cvX8bExGzbtu3o0aN+fn4BAQGmpqaf0xeETCa7devWlStXkpKSmEyml5fXzJkzraysdHV1u0W2l/dqy9CNQqGYm5tfvnw5Ozu7Z8+eH7kXk8m0trZGUZRCoQwfPrx///4ODg7KC1pfX5+enm5hYeHo6MhkMn19fW1sbPh8fk5ODrkoUPPD7Xv06OHh4aGrq3vnzp26urrLly/fvHkTAFBeXl5dXV1cXNx44ydPnjg6OpJHV1dXt7e3j4yMrKurI4cCvHuswMBAcnBefn5+VlaWRCJpkvgjNze3qKhoypQpxsbGAABHR0czMzMAwMuXL/l8vpubGxmhWllZ6enpZWZmCgQCMzMzGxsbLpfL5XJHjBjR5qFbcXHxo0ePgoOD27bY7kgsFiclJcXGxj5//ry4uLihoaFd51i1ubKyMjqdfv78+c6uyCegUCgqKip6eno2NjbDhg1zcnLqUuNscBwnm/CfPHlSXFxcV1fXvW6J7ghBEBUVFR0dHXNzcz8/vwEDBnTK2Pn09PQtW7ZwOJygoCB9ff0unne3rVAoFFNTUyMjIzc3t8zMzGvXrp0+ffrgwYPOzs4jRowYNmyYqqpqZ9exVfLz869evXrq1KmioqLevXvPnj3b3d1dW1u7zUeQd7w2nmZobW2tpqaWnJz88SP+9PT0tmzZgqIomemASqU2fttgGCaVSlksFovFAgAwGAwyDPoQiUTS+J8MBoP8IBCJRGSx5FwBVVXVkSNH2tvbN95YKpWqq6srX1FyGuaHXmCxWBwaGnr69Gl7e3sHBwd3d/djx4412aa2thbHcWXXJJVKJb+opFIpl8tVTmNBEIRCochkMqFQyGKxlI+3x0yCEydOqKmp+fr6tnnJ3QiO43fu3NmwYcPz58/t7Ozc3NwGDhz47mx5qM3hOF5bW1tYWBgfH3/kyJEhQ4asXLnS3Ny80688QRDkwIx79+5ZWFh4e3v369evu39vdRe1tbVlZWXPnz8/fvy4o6NjSEiIh4dHR94S2dnZGzdurK2tXbx4cY8ePTr9buxgFAqFz+draGg4OzsvWLDgwYMHZ8+eDQ4OXrRo0aBBg8aOHevn59c109J+SFFRUWxs7NmzZx89esTlcoOCgoKCgvT09Oh0+meTWqGNT8PIyMjd3f3q1asjRoxwcHD4mF1QFGUymR+KkFgslp6eXkVFRXl5uZmZWVJS0rJly1auXEkORCDnQyAIQrZ4EQTx4sWL95ajo6NDoVDWr19vaGhIEEReXt6VK1earEZnaGiYkJAgk8nodDqGYXl5eTQajcPhvLfAFy9ePHr06JtvvlmzZg2PxysoKDh8+PC7V4NGoz19+hTHcQRBqqqqCgsLAQC6uro3btwgRwQSBEGmVx0yZIhEIklLSyMHHGAYdvfu3Y+5gB9PKBQeOnTo+++/71JNHR1MKBSuWrXqzz//DAwM3L17t52d3Zf2Sd0VEATx8OHD1atX+/r6hoaGTp48ubM+UgmCqKmpOXDgQHh4uLu7e2xsLDnStFMq84UrLi5et27dpEmTZs2aNXfuXA0NjfZ+IQiCKCwsXL9+fVlZ2ebNm52dndv1cF0ZgiAMBoPBYAQEBAQEBIhEoujo6DNnzsyZM4dGow0YMGD8+PF9+/bl8XgUCoVCoXSRViuCIHAcxzBMLpcXFhbGxsZGR0c/fvyYzWb7+/tHRET4+vp+NuFaY21/Sn5+fteuXYuLizMzM2t9uxGfz/f19d22bVtkZOSQIUP27t2bk5NjZ2dHxjf5+flCoVBTUzM3N/fhw4cSiWTfvn3vLadv377GxsarV69evXq1SCQ6fPjw06dPbW1tG28zaNCgc+fO7dmz56uvvkpNTb1x44aPj8+H1oWk0WgsFksgEOTm5tJotN27d8tksqqqKjLyI7cxMjLy9fWNjIwMCAjQ0dE5c+ZMWVkZAMDLyysqKmrHjh1kqu59+/apq6v7+vpyOJxr166dO3cOAJCenn78+PE2fHtIpdL9+/dTKJRZs2a1VZndC0EQRUVF8+fPz8/P//PPP4cOHQq/oTsLgiDu7u4XL148cOBASEhIYWHh/PnzO76VC8fxoqKisLCw27dvb968efTo0V1qhekvjb6+/q5du/z8/Pbu3VtbW7tgwQJDQ8P2CxEIgsjJydm6dWtJScn69etdXV3b6UDdEYfD+frrr8eNG1dVVXXjxo3o6OiVK1ciCGJjY+Pg4NCrVy9LS0s2m01vhEajtXc8p1Ao5HK5TCYj/yuTyWprazMyMh4/fpyYmFhYWMjn8z09PRcuXOjh4dFFWs27wWoKJBsbm6CgoAMHDhgbG48aNar57HbOzs719fXvfcrJyUksFjMYjGHDhlVVVcXExFy6dInP5+/Zs0dLS4vD4fj7+9++fdvAwGDw4MHZ2dl//PEHjUbz9fWVy+Vkc5eFhYWqqirZwqSurr5+/fodO3bMnDmTSqWqqqouWbKkX79+jY84YsSIp0+fXrp0KTo6GkGQnj17zp49W09PTy6Xe3t7N2mis7W1nTp16unTp5ctW4ZhmKOjo6+v7927d/v27avMj4ogyLZt20JCQjZs2KCqqqqlpfXVV18ZGhoOHDjwxx9/PHHixOzZswEAKioq8+fPt7W11dHRkcvl165du3v3LpvNHjhw4K1bt9qkhUyhUFy9evXs2bNbtmxpwdxSBEGaGfTT/LPtvfvHy8zMXL58OZPJvHTpUtvmW/mQ1p9a51759sZisX788UcXF5clS5aIRKKffvpJTU3tI+vW+iuD43hJScmvv/6alZVF5oNoPFiiY+7JjtfF70kOhzN+/HgTE5Pt27fv3bs3ODi4nUaekfmntm7dymKxduzY0WTwzHt18Xdre9yTCIJoamqOHz/+66+/rqqqyszMzMzMzMrK+uuvvyoqKng8nrq6uqqqqrq6uq6urr6+vpqaGofDYbFY5FAlBoNBRnXNT3p4t+YKhYKMzKRSKblOplAoFIlE5eXlJSUl1dXVtbW1AoGgpqZGKpXq6en17NlzyZIlVlZWJiYm735jdvfPyff65Dp9zPYymWzXrl1///335s2b+/fv39K6/eugNTU1DQ0NmpqaykGsCoVCJBKxWCw6nS6XyysrK9lstoqKSjPvc7FYnJOTQ6fTDQwMyMFzTeA4XlVVVVZWpqKioqurq2w/+5DKysrKykodHR01NTWxWNzQ0KChodHklweO47m5uSiKkklPlI/X19fn5eVRqVRjY2Pyt/7jx4+fPXvm5+eno6ODouiSJUuuX7+ekJDQ+nEGT548Wb58ua+v7+LFi//zpNpJVVXVpk2bCILYuXNnxx+9rq5u+fLlOTk5hw8fhonQuprr168HBwcvWLDgu+++67COGIlE8vvvv0dERISEhAwaNKhjDgp9pBs3bqxdu3bixInTp09/72d1a2AYFh8fv3z5chcXl5CQEJjksgXIL9PXr1/n5ubm5OQUFhbW1NRQKBQOh8Nms5lMJpvNVlNTI3PLs9lsGo1GoVCoVKryv+S3IYZhirfIv+VyuUgkIoOz2tpasVgsEonI0I3FYvH5fAMDA1NTUzMzM3Nzc2Nj4876Rvt43WMhLAAAnU7/7rvvioqKQkJCfvnll/cujP1JEATR0NBo0lxENp6Rf9NotI95+7FYrCadpE2gKKqlpdUkf1szNDU1ldkZ2Gz2e3tbUBQ1Nzd/93Eej9fkp15+fv6vv/6akJDg6upaUVERFRUVFBTU+rgtPz//2LFjtra206dP7/p3eTu5f/9+SkrKsmXL4Md0F+Tj4zNu3LjTp08PHjzYxMSkYw5aVlZ25syZYcOGdcBietCn8vLyCggIiIyMHDZsGDkxv60oFIqYmJjNmzf37dt31apVn30ekHZCfpmS36cEQdTW1paWlpaWllZUVFRXVwsEAoFAUF1dnZ+f39DQIJfLyfAFaYQsh2wMIoesKf9Jp9O5XC6Hw1FVVTUxMeHz+To6OlpaWnp6elpaWl/yWG2l9hq+p6mpuWTJkrVr1y5dunTNmjUDBgyA44r+k7e3d3Bw8O3bt8mcIPPnz586dWprCiQIIjc3NywsrLq6+jNOMvmfZDJZXFycjY2Nu7v755Sv6LNBpVLHjRt3586d+Pj4adOmdcARCYJISEgQi8Xjx4//Yn/PdGV0Ov3rr7+Oiop68OCBiYlJW7XFKhSK6OjoXbt29evXb/HixR//Kx1qBoIgZAObtbW18kEcx8meKJFIJJFIZDKZ4h0AACqVSqPRyNxbJHIcOdl6x2Awush8iK6mHWdeGBsbh4SEbNu2bfXq1dOmTZs0aZJyIAv0XlpaWhMmTBgwYIBQKKTT6fr6+q3pKZDL5Y8ePdq/f79QKJw3bx6ZPK8Na9uNFBYWZmVljR8/vntNcf9yIAiir6/v7Oz88OHDKVOmdEB4jeP4jRs3XF1d39siDnUFZmZmffr0uXnz5rhx49rkswvDsOjo6D179nh5ec2bNw/Gbe0KRVEOh8PhcOB1bg/t+11uYmLy888/BwUFHTt2bO7cubdv326StBZqgslkGhkZ2djY9OjRozVxW3l5+ZYtW4KDg1ks1sqVK318fL7kRub8/HwURU1NTZufNAN1Ijab7eDgUFhYWFVV1QGHIxMJubq6frG/Z7o+FEV79+794sULsiut9R49enTkyJF+/frNmTOnO659BEFK7Z7vREdHZ8aMGe7u7vv27Zs/f35gYOB3331namoKPzHbSUlJyYkTJ44ePcrlcn/44YcRI0aoqal94Ve7urqayWR+KEUf1BWQw1WFQmF1dXUH9OwTBFFcXNwxE42hFjMwMCgpKWmT+X2vXr3av3+/vb39nDlz9PT04AAeqFvriFR1TCazd+/ehw4diouLW7du3Z49e3r37j1kyJDevXvr6enp6ury+Xw4AqllCIIQiUTFxcX5+fnJyckxMTH3799XU1P76aefZs6cyeVy4ScUAEAul7fVD3eonZBripDzyzrmiBKJ5Av/SdP1oSjaZIGclsnLy1u/fr1UKp0xY0aTNE8Q1B11XJZhOp0eEBDg6+ubmJh49erV8+fPh4WFYRiGYRhBEF0wb0q3QE7VIVeANTAwIMfeDho0CPYMNgFvsG4BvkxQY62/HwiCKCgoWL9+fXl5+caNGy0sLNqkYhDUuTp6gQg2m+3n5+fn50cQhFAorKysrK6urqurwzCsg2vyeUAQhEx1o6OjQy5R0tk1giAI6ioKCgo2bNiQn5+/bt06Nze3zq4OBLWNTlvbC0EQHo/H4/HaNmcPBEEQBOE4/vLly927d5eUlKxbt87T07OzawR9idppzBIc6vGP5i8xHDT2If95ZeCFbTF46VoG3pPtp1tcOgzDrl+/vmLFChRFt27d2hXiNnhPtp8v8NJ1WqtbF9T8uAo4CudD/vPKwAvbYvDStQy8J9tP1790CoXiypUr27dvd3V1XbZsWRdJRQ7vyfbTlS8dQRDdZiEsCIIgCOp4CoXi8uXLZN7dhQsXdpG4DYLaFgzdIAiCoM9B4/US5syZA+M26HMFx7pBEARB3R6O43FxcTt27CDXS4B5d6HPGGx1gyAIgrq91NTUsLAwd3f3H374QVtbG8Zt0GcMhm4QBEFQN0YQRH5+/p49ewwNDZcsWQL7SaHPHuwwhSAIAgCAysrKrKws5cpLYrE4Ozu7pKREuTaXUCjMzMysqKgoKioqKSlp5eEEAkFmZqZUKm1lOe+Sy+VksQRBVFRUZGdnd9jyYu+Vl5dXWFjYzAalpaU5OTktLj8/P3/Dhg3l5eULFiyAcRv0JYChGwRBEAAAhIeHu7q63rlzBwBAEERCQoKHh8fs2bOzsrLIDc6ePWtjYxMeHr527drQ0NBWHi4qKmrUqFHZ2dmtrfc7EhIS/v77bwzDZDLZ/v37p02b1vpAszXmzZu3fPnyZtYRXr58ub+/f8sKJ9cnzc/PX758uY2NTUvrCEHdCQzdIAiCAADA1dWVzWbHx8cDACQSSVpaWnV19evXr3Nzc8kN7t+/j6Kot7c3eJssSqFQtGYRv8YZpwiCIFvL3k1DRS703ORBhUIhk8neW+ypU6c2bdqkUCiUJRMEgWGYQqFoUg75+H8mvsJxXLnNewuRSqUfqoyyAs0clCCIZgK7Zrx69WrVqlWFhYVwvQToiwLHukEQBAEAgLOzs5qa2u3btwEA9fX1Dx8+NDQ0pFKpWVlZZFzy6NEjAwMDGxsbsiPyr7/+ysrKotPpHh4effr0SUtLe/To0dChQ42MjAiCePbsWVpaWv/+/Q0MDJSHqK+vv3XrVmZmpqqqak5OjjLsq6+vj46OzszMxHG8Z8+evr6+urq6AIDXr1/fvHmzvLyczWY7Ozv36dOHzWZXVFTcuXMnIyNDLpdjblDtAAAgAElEQVQbGRkNGTJEX19feYiUlJTXr19XVlaGh4dPmDABACAWi+/cuVNWViaVSh0dHX19fTkcDgDg2bNn9+7dq62t1dDQ6Nu3r42NDZ1OV5YjFAqvX7+OoqhEIsnOzlZTUxswYMDLly9fvHjB4/F8fX179eoFAMjPz799+3Z2djZBEBYWFoGBgTweTyKRPHnyJCkpSSaTWVpa1tXVqaurAwAwDEtPT79582Z9fb2Wlpanp6elpSWNRmvZ65WamhoaGlpVVbVhwwa4Pin0RYGh2z8QBGnm12fzz0LNgBe2xeClayfvnX6oqanp7Ox85cqV2tra6urq1NTUgIAAkUiUkpJSWVlZU1NTXFz81Vdf0el0hULx9OlTCoXCZDLT09Ojo6MPHDhQV1e3evVqkUi0aNGi6urqiIiI9PR0BwcHZegmkUgiIiIiIiJ0dHRoNFpWVpZAIAAASKXSTZs2Xb9+3cbGhsFgJCYmFhQUTJ8+vaio6JdffqmoqDA1Na2pqbl8+fKUKVNGjx594sSJ6OhoU1NTAMDFixefPXu2efNmFotFHqW6urq+vl4qlWZkZJARZ0FBwenTpzU1NcvLy69cuaKvr+/k5HTnzp0tW7agKKqtrV1WVnbt2rWFCxd6eXlRqW++FAQCwa+//lpTU2Nra6tQKFJSUi5fvgwA4PP5ycnJjx492rlzZ11d3b59+1JSUkxMTAAA0dHRubm5S5cuvXv37rZt2wiC0NPTu3fv3uvXr42NjQEAOTk569evl0gkGhoa8fHxsbGxixcv7t2796e+fBiGJSQkHDhwgMFgbNmyxdnZ+dNvgS4HvtlbrCtfunaa6QxDt3905cU0ujV4YVsMXrp28t5LhyDI0KFDz5079/Tp0+LiYrlcHhgYmJaWdu7cucLCwidPnkgkkq+//hoAgGGYtrb2ggULDA0N4+LiNm7cmJqaOnjwYHNz8/Pnz8+aNSszM/P+/fv+/v5kTEMqKSkJCwvz8PBYvHixXC7funUrOTY/Pj7+8OHDwcHBU6dOpVKpkZGRUVFRbm5uJ0+efPr06dGjR42NjSsqKsLDw0+dOmVoaHjv3j0AwOzZs3V1dePj48m5DsrQzdXV1crKqra29scffyTburhcbkBAwNChQwUCwcKFC9PS0mxtbVesWAEACAsL09TUfPXq1bZt2yIjI21sbHR0dJSXqK6uTlVVde7cuTo6OqtXr7527drRo0ddXV3/+OOP48ePZ2RkZGRk3LhxY86cOcOHD0cQJDo6ev369UOHDj18+DAAYP369bq6us+ePUtJSSEv+PHjxysrK3ft2qWurp6amrp58+bz58/37Nnzk147cr2E8PDwPn36TJ061cLC4pNf/i4Jvtlb7Au8dDB0gyAIesPPz49CoTx+/PjVq1daWlpubm44jovF4tzc3ISEBC6X27dvX5lMRqPRevbs2bdvXxRFraysOByOQCBgMpkTJ07csWNHYmJiUVGRUCjs3bs3l8tVFv7q1SuBQDBw4EArKysAgKen5/379wEA9+7dE4vFkydPJuM8R0fHU6dOpaenP336VCwWR0ZGoiiKYVh2dnZxcXFdXZ2RkdH9+/cXLFjg6urq6uo6derUxkfhcrksFotGoylb+7S1tX19fc3MzORyubq6em1tbVFR0aNHj6ytrU+cOAEAkEqlpaWlZKymDN0AAFQq1dra2t3dnUKh6OrqGhgYeHp66ujoWFpaKhSK0tLSjIwMHR0dT09PIyMjAMCECROCg4NTUlKePXs2duxYNzc3FEX19PT27NlDtj3ExMSIRKI///wTACAWi8vLy9PT0xsaGj7+BcIw7OrVq7t37/bx8fn+++/19PRa/mJDUPuDa5hCEAS1L319fVtb26SkpNTUVD8/PzU1NUtLS7LXLyEhoU+fPiwWSyaToSjKYDBQFAUAoCiq7JEZN27c1q1bIyMjeTyepaWlnZ1d40/t6upqKpWqqqpK/pPFYpG9k0KhEEEQZVYLFEWpVKpEIpHL5XQ6XSAQkIXo6+s7ODiYmpr6+Pi4uLhER0dfvHgxIiLC0dHxzz//bCaIoVKpbDa7cVXr6+sxDKPRaDU1NeQ2jo6OlpaW5Bi4xjtyOBwKhQIAQBCEyWSSp0zWh5xUQUaK5PbKoXIikYjH45EbMxgMOp1O7iIQCOh0uvKgbm5udnZ2TCbzI18dHMdv3rz5yy+/+Pj4zJkzR1dXF+bdhb5MMHSDPgcVFRUoivL5/M6uSJdDzuYDACjHMH0SDMNwHKdSqd3uO7KmpkYsFjcev/8xUBT19/c/fPgwhUJxd3dHEMTMzMzc3Pyvv/4SCATz588nN/vQ1eDz+V5eXpcvX7azs/Pw8CCHoykZGxuLxeK8vDzyn4WFhUKhkHycIIhXr16RY7aqq6spFIqxsTGdTjczMztw4ACFQiFHm6WmpuI4fu3aNXd390mTJuE4fuTIkZ9//vnWrVuTJk36+NMkg57evXsfPHgQACAWi2/evKlQKJqEbgiCND7TJmfN4XA0NTWTkpLIEXsAgOTkZARBevTooaKiUlhYiOM4iqKVlZXV1dVk162hoaGxsfGhQ4cAACKRKCYmhslkfnzolpGRsWfPHldX10WLFmlpaX38+ULQZwYmB4E+B7m5uYsXL962bVtubm575Dj9GKWlpT179nRxcXn48CHZBlNeXu7p6WlgYFBUVERuIxaLQ0ND6XT60qVLq6qqyAelUum8efPc3d0zMzPbqjK5ubmxsbFSqbSgoGDGjBkLFy5UHu6T7N69e/jw4c+fP2+rinUYNTW1b775ZtmyZa9evRKLxR8/3sXf37+qqkpVVdXDwwMAQKFQevXqRaFQMAzz9fVtfl8ajTZ27Nji4uLS0lJ3d3ey2UmpZ8+ehoaGkZGRqampt27dunr1am1tLQBg+PDhTCZz48aNBQUFWVlZ169fNzIyIqeCJiYmXrx4saqqKjk5edGiRdeuXROLxSdPnty3b19ubm5tbS2dTqfT6U1+tFCp1Pr6+uLi4g8lLlFTUxs+fHh0dPTNmzcrKirOnz+/fPny9PT0JhVuHpvNtre3Ly8v//vvv3NycgoLC0NCQtzc3Hr16uXr63v37t1z586Vlpbu379fmV1l5MiRCQkJd+/eLS8vj4iIWLlyZX5+/sf8KiAIIjc3d9euXfr6+suXL4dxG/SFg61u0OfAycnJ1NR048aNv//++6xZswICAgwMDJo0IbQ3TU3NjRs3Lly48MCBA6ampnw+/9SpU6WlpRs2bFCOOsrJybl//z6FQrlz505QUJDyG/c/h9kSBKH8WiUbM97dBjRqF7lw4cKmTZtSUlIal0Cmzmq8L9kmhyAI2Sn2oUN3x3G+CILMmzcvKCjo9OnT06ZNGzVqlIWFhbIXrxl9+/a1trZ2dnZWzjBwdHR0cnJqaGgwNDQEAKAoqqmpqewcZDKZhoaGPB6PvIx9+vQxNja2tLR8d+Kkmpra6tWr16xZM3bsWAaDoaamZmtrS6PRLCws1qxZs3//fn9/fxqNxmKxVqxYYWpqumjRopycnMWLF/P5fJFIZGJiMnPmTA8Pj4EDBx45cuTevXscDic/P3/EiBH9+/dvfCAXF5f4+Hh/f/+rV6+qq6vr6+sr21x1dHRUVFQQBNmzZ8+33347e/ZsLpcrkUg8PDxGjx7N4/GUhVAoFH19feUtyufzDQwMyPuEy+UaGxuzWCxHR8dJkyadOnUqKipKLBZTKJRdu3apqanNnDkzPT19+fLlDAaDx+OZm5uT/blBQUHx8fEzZ85ksVhSqXTAgAEBAQEsFktLS4ucgvoheXl5GzduLCsr++WXXxqPxoOgLxMM3aDPAY1GGzFiRGxsbGJi4uLFi48dOzZt2jQ/Pz9LS8vG30btikqlDho0aNKkSVFRUWfPnnVzc7tw4cKAAQPIOYkAAAzDMjIy8vPzXV1dCwoKXr58aW1t3UxSKwzDbt68aWpq+vr164aGBiMjI01Nzfz8/IqKCi6X6+LioqWlheN4ZWVlamqqQCBgsVjm5uampqYFBQWvXr2Sy+VJSUnk9D2RSJScnFxfX4+iqImJCdkxV1tb+/Tp05KSErJ7zt7enhztLhQKU1JSqqurVVVVKysrO+TitYuBAwd6eXnFxsZu3rz57Nmz48eP9/f3t7e3V1FRaWYvJpP5xx9/qKurK+PgXr16bd68GUEQckc2mz1z5kzls5aWlqGhoQYGBmRQSKFQLCwsnJ2dNTQ0mpRMo9ECAgJMTEySk5MNDQ0tLCzq6+vJsH7BggXu7u7Pnj2jUCiOjo4ODg4oiuro6Bw5ciQ2Nra4uJicM0H2wM6ZM8fZ2TktLQ1BEBMTk4EDBzIYjMYHmjRpkrm5eV1dnZ6e3pgxY3x9fclmKgqFEhwcrK6uTqPRTE1Nz5w5c/36dYFAYGxs3KdPnyZNWXw+f9WqVcq3z5QpU0aOHEn+093dffv27RYWFqqqqkuWLPH19U1PT6fRaH369HFwcAAAODo6ksGlXC53c3NDEIQc7qamphYWFnbjxo36+nozMzNXV1fyKs2ePbuZDt/s7OytW7eWlJSsXbvW1ta2+Rcdgr4EMHSDPhOOjo4DBgxIS0urq6t78eLFypUrnZ2dx4wZExAQ0Eye97alrq4+ffr0lJSU48ePX7p0SSwWz507Vzn7TyAQ3L17V1dXd+rUqUeOHLl27drAgQObGZ8nFosnTZo0cODA4uJigUDAZrMtLCyKi4tFIlFRUdHMmTPXrl1bXl6+Y8eOmzdv0ul0iURibm6+ePHizMzM27dvSySSyMjIBQsWAAAePXpUVFQkl8sLCwt1dXX/+OMPAwODU6dOHT58mM1m4ziOIMi33347efJkNpv9xx9/hIeHUygUPp9fXl7efUcQstnsWbNmPXjwoL6+PiMjIzQ09MKFCyNHjhwwYICrq2szOzZ5lslkkulnSRQKpUePHsp/crlcZV6xGzduJCcnV1ZW9uvX770l0+l0Z2fnd/OQoSjat2/fvn37Nnmcy+WOGTOmyYMsFsvX17eZ3lsGg+Hj40P+zeFwyOmfpMZLRWlpaU2cOLGZQuzt7ZX/bDxuj8/nK+8KLpf7bmVQFDUzMzMzM3u3WF1d3cmTJzd50NLS8kPVAAD8/PPPQqFw3bp1714fCPoywdAN6lAJCQlr1qxpp8LT09OVfysUikePHqWnp9+6dYvD4YjF4nY6aGMIgvTs2fPbb79ds2ZNUlLSzz//bGlpqWyeKS0tvXPnTv/+/QMCAu7du0cOM2omMCIIoqampra2llzqZ/v27c+ePZs7d66tre22bdvCw8NXrVoVFRV14cKF7777zsfHhxwMdPTo0eDgYH9//+Li4qCgILKhSCKRDBw4sH///qmpqUuWLImKiho3btzx48c9PT2nTp0ql8v379+/d+9eT09POp2+detWNze37777rqCgICwsTLmeUgfIy8sLCwtrwxXEq6qqlH3BOI4/f/48LS3t8uXLAQEBbXWIxiIiInJycoYNG+bo6Nge5X+ZyBGizUfbEPRFgaEb1EGYTGa/fv0kEknLxst/jHdb18RicWlpqZGRUYdNkKTRaFwulxxYpkysQNYtKSmpsrJSX1+fTM1VX1//7Nmz5tsbAADTpk0bMmTIy5cvzczM9PX1x4wZo6end+PGjRs3bojF4nPnzpGjxQEABgYGJiYm9+7dW79+vYmJCZVKtbGxIa9J7969x48fb2Fh4eDgsHr16tzcXLITdubMmWSQUVpampCQ8OLFi/Ly8tra2oULF3p7e9fX16enpz9+/Lidr9k/FApFbW3thwbetUBdXV2T0jAMy8vL+6RcYh/vu+++k8vlHdlN/yXYuHGji4tLZ9cCgrqQzyd0+8/FLlq5QXvv3pW1yZVhsVj+/v4f6khqPYVCsXXr1lu3bpH/JCcGBgYGDhkyJCUlJS4urp2O2xhBEOnp6UePHjUyMjI3N79w4QI5uApBEKFQSCaYOH369NWrV6urq8VicUxMzOjRo5svkEzfSqFQqFSqmpoa2f1KjjpXKBS5ublisfjixYvk9gqFwtjY+N08IHw+n0wnRqbgkslkpaWlLBZL2fGnra3NZDLr6urS09OpVCo5oojH4+no6LQsq0jLGBsbz549u3GnXmsoFIorV66cP3+e/CeKotbW1kOGDBk8eLCdnR2Zjfa9Wvxm7/oroHfHz8nuMr6tc79Buu9XTHe8Jz8eXAjrP/znxW3lBu29e1fWJlcGRVEej9d+rRF379598OCBSCQCAPTp0+d///ufp6enuro6j8fLy8vrmFY3cpGfgoKCFStWWFlZ/fjjj1u2bDlw4ICKigqZYn7hwoXK4di//fbbhQsXJBJJM3mtEARRzmNAEIRMqdr4WTU1NT6fv3TpUnLCY0JCQllZmTJFqlKTHQEA2traUqmUnPEAACgoKBCJREZGRsXFxTiOFxYW8vn8hoaG6urqjuwwpdFofD6/raYQ1tbW/v7772KxGEXRXr16zZo1y8/PT1dXV0VF5UNZM0it/zBpDMMwDMMar+zeiT7+1MjX/d3AvWWfBhiGVVRUaGlpNd+kCj8n22n3rgx+d7cAzOsGfQ5kMtnFixefP3/u4OAQERERFxf39ddfm5iYkHkQOqYOcrk8Kirq3LlzQ4YMGT16tKOjY2Bg4I0bN06dOkUQxOnTp1VUVMaOHWv11tixYyUSyfXr11t8RHJOa1FRUXJyspGRUVVV1cGDB5OSkhQKBYqiBEF8aIQfmTdVJpOdOHGCbIG7ePEin8+3tbUNDAyUSCT79u1raGh4+PBhTExM1/zk+hhRUVGPHj0yMzPbsWPHpUuXZs6caWVlpaam9knZy1ovLCzM0dERx/HXr1/b2Nh8qLUPw7D8/PzMzMwmsXJERIS5uXlaWppUKs3Ozi4oKCCTvLQSjuMjRoyYN29eRETEsGHDkpKSGj8rkUjmz5//zTfffGqxkZGRLi4uN27cCAgICA8PBwCIxeKtW7daWlra2Nj07Nnz1KlTra88BHUX7fT5CUM36HOQlJRUXV29d+/e+Pj4iRMncrncjuzmIxUUFISEhDg7O8+fP59cMmjy5MmmpqY///xzVlbWpUuX7OzsGk9UdHV1NTQ0PH36NACASqXSaLR3o0wGg0E+iCAIlUpVtlhQqVQGg0Gj0ebMmWNqajp79uwePXoMGTKkpKRk3rx5qqqqdnZ2IpFo/PjxpaWlNBqt8XIIdDqdSqXy+fxRo0b98ssvlpaWLi4ucXFxwcHB2traTk5OP/zww4kTJ0xMTL755huyWa6DY502geP4sWPH1q1bl5iYuHDhQn19/fde4Q4gkUjI1LsMBsPW1pZcV4DU+GO9vr5+69atixcvrq6ubry7hoaGvb09k8ksLi5esWLFrl27PnWg3oe+PJR5/qRS6btXRiQSkW3Y/1lOYxQKRSgU0ul0HMfJ7Y8cObJnz56RI0ceO3bMy8trw4YNGRkZn1R/CIKa+Hw6TKEvmZWV1bZt2xp/KXY8CoXy22+/GRsbK1O56ujoHD16tKCgQCqVHj161MzMrPEXJIVCCQsLq6urIyOwurq6Jqs2sdnsyMhIMimDvr7+qlWrOBwO2Rk6YcIEV1dXOp1uYGBw5syZ6OjonJwcXV3dwYMHm5iYoCg6cODAixcvCoVCS0vL//3vfxQKhZxqSqFQ/u///k9XV5fH4y1dutTFxSUlJYXD4fj5+Tk4OJCdeqGhoV5eXikpKfb29j179pRIJE0WdOoW6uvrT5482bLJquTcXolEQqPRKioqCILQ1NTU1NQk45Kqqio2m11XV8fn83k8nkAgqK6ulslkXC5XU1OTw+EQBNHQ0FBZWSmTyRgMhkQiIYvV0dHZs2ePmpoaAKChoaGioqK8vJzFYmloaOjo6FRVVdXV1ZGPk6nXyL28vb3t7e01NTVTU1NFIlFdXV1dXR2Hw1HeSwRBSCSSioqKuro6FEU1NDT4fD6NRiNXiBcIBHK5nKx/k550VVVVHo9HLkVFZoarq6urqqpSKBRUKlXZp4zjeF1dXVlZWU1NjYqKip6eHvlGk8lkVVVVIpGIvLskEgmfz2ez2SiKqqioqKqqMplMqVR67949b2/vkJAQDQ2Nfv36+fv7P3z4kBzBCUFQy8DQDfocvJv+tOOZmJgogzYlW1tbcpB14xRZSk5OTuQfdnZ27z5LoVCGDh1K/s3hcBpPsuvRo4dyhoGmpua0adPe3X3QoEHkH40jWgRBBgwYQP5NduCOHTu2yY40Gi0wMDAwMPC9p9ldKFd5bwGZTLZr1664uDhLS8unT5/W19c7OTmFhIQ4ODhcu3ZtyZIlnp6eubm5K1asMDIy2rt3b0JCgkKhoNFo06ZNmzNnDoIgERERBw4caGhoIOd5yOVyAEBhYeH48eN/+umnYcOGnTlz5tChQ7W1tVKp1MDAYMeOHdHR0bGxsTKZLDw8PDg4WBkuR0dHb9y4MSws7OzZs4mJiXQ63cPDY/Lkyco4TCKRnDx58sCBAyKRCMfxHj16bNy40dHR8fbt26tXrxYIBARBqKurL1iwYMyYMY0HVmpra6urq7NYLB0dHSaTWVlZuW/fPrJD08DAQCgUkksg5Ofn79u378qVK+SxBg8eHBoayuVy4+Pjd+zY8fr1ax6P5+jomJKSsmvXLhUVFXV1dTabra2tzeFwpFKpl5eXcmmTkpISHMebJBCGIOhTwdANgiDoX8hWt/T0dBsbmy1btuTm5oaFhR08eHD79u0SiaSkpKSsrGzmzJkaGhphYWEvXryYP3++qalpXFxcaGiorq5ur169Tp065eLiEhAQkJWVdejQITJFi1wuLyoqEgqFCQkJ+/fvt7a2njhxolAoXLNmzbp161avXp2cnFxRUTFy5EhNTU1lZYRCYVFREZPJHDx48JMnTzQ1Nd3d3RtPehAIBL/99pu9vf3UqVMbGhq2bdt2+/ZtKyurlStXisXisLCwhoaG06dPx8XFubm5KSN+BEGGDh3K5XJ1dXUDAwPV1dXPnj174sSJMWPGeHl5Xb169dixY3p6eiKR6NSpU1euXJkwYYKvr292dvby5cttbGxGjBixe/duhUKxatUqhUJx7NixFy9eiEQiCwuLb7/9VkNDY9iwYaampioqKj/88AN5xNevX2/evNnExKT9pplD0BcChm4QBEHvYWpqOnfu3D59+sjl8oyMjCtXrpCDzLhc7v/+97+RI0eSC6/5+fm5ubmx2eyJEyeeOXPm3LlzHA6HSqUuWrTIyclJKpW+fPmSbLIiyWSyFy9eyGSyb7/9lmwZlUgkGRkZNjY2JiYmCII4ODgoV+BQIsfJ6enpGRgYmJqaNp6nyeFwpkyZYmFhoampWVVVxWKxKioqFAoF2RdfVVVlYWExb968qqqqxiuAIQgybNgw8m9LS8u6urrbt28bGhouWLDA0NDQw8Pjzp07AIDCwsIHDx707dt3xowZhoaGPj4+V69ePXHihJ2d3atXr1atWvXNN98gCILjeGZmJgBAX19/9uzZAIAmSY9ra2vXrFmTkpKyf/9+5ZK+EAS1DAzdIAiC3kNNTY1MmEyj0czMzOrr68nGMxqNRq4MW1VVVVFRce/evby8PHIXBEFKS0sLCgr4fD7ZvkWGXI3nEUskkurqagMDA2UOlMmTJ8tkshYnYSFnEx87doyM1TIzM3v37g0AWLFiRXh4+Lp163R1dS0tLYcOHfpu1hilysrKyspKe3t7smeTy+Xa2tpKJBKBQFBeXu7h4aFc4dTCwuLu3bv5+flcLtfc3JwccmdnZ8dms5upZGJiYmRk5O7du729vVt2mhAEKcHQDYIg6P2UcyobGhrIvHrg7Wxf8Dbrnq+vrzIcGTVqFIvFKisrwzBMGYqJxeLG6TxQFKVSqcoJmACAjIyMnJyclsU0BEHcuXPn119/9fDwGDt2LJ/P37t3L4qiGIb179/fwsKipKTk+fPn169ff/nypZaWloeHx3vLITP/yWQyslZkZhnyTOl0OoZhytrW1taqq6tjGIbjuHIqAznMrpl6VlZWWltbjx07tjvOVoagrga+iyAIgt6joqLi6dOnAIDKysqkpCRDQ8Mm4+u1tbW1tLRYLJaPj09gYKC7u/uxY8dev35tYmJSXFz87NkzAEBNTc2DBw+kUqlyL3JaQF5eXk5ODo7jMpksJCTk4MGDZPMVQRCflAiKIIiUlBSCIKZNm0ZmDVQoFBiGlZWVTZgwIT8/f/To0YsWLQoKCqqpqSkrK/tQOVpaWtra2g8ePKipqQEAFBUVJSYmAgA0NDT09fWTk5MLCwsBAFKp9M6dO15eXmZmZlVVVU+ePMEwTCaTxcTECASCZurp4eGxdetWcnYtBEGtBFvdIAiC3iMrK2vFihUDBgxIS0u7c+fOunXrmgxBc3Jy8vHx+e2338rKykxNTc+fP5+dnb19+3Y2m83hcFauXOnn5/fixYvHjx83bpGiUCi9e/c2MjIKCQm5e/duTk7OtWvXdu3aRS438uzZs99//3369OnvpjWh0WhsNjsuLs7X13fo0KHkTAUEQaysrEpLS/ft23f//v34+PjHjx/X19ePGDFCoVAsW7YsKyuLzWZfunSJz+cbGRl96GTZbPaoUaMSEhIWLFjg5eV19uzZuro6AICxsfGAAQNCQ0OXLFni7u7++PHjnJyckydPcrlcDw+PvXv3PnnyRCgUJiYmfij/M+ncuXN79uy5deuWubl5C14LCIIao6xdu7YNi2vXjJfNF/6fh27lBl1893YtvCvv/jHlv3jx4uXLl97e3rq6us0X9ak6/dS68u6fWnhubu6tW7cCAgJ0dHTau24EQezcuXPcuHFmZmbvPqtQKGJiYsRi8dSpU9PS0lRUVH766aevvvqKxWIhCKKtrd2vXz8Wi8Visfr27WtsbPzy5cu8vDwnJ6e9e/c6OTnx+WoS6H8AABm6SURBVHw7O7vy8vLc3Fx7e/vZs2c7Ojp6enoiCMJisfr16+fs7NynTx8EQfLy8jQ1NdesWTN+/HgGg2FsbAwA0NLSsrW1JceckXR1db29vbW1tfX19XEct7CwMDMzI2cqIAhiYmLSo0eP3Nzc6urq4cOHT548WS6XW1tbz5kzp6Gh4enTp/n5+S4uLsHBwc7Ozh/qr0QQxNra2t7ePjs7Oy8vb9SoUdOnT7exsXFwcLC1tbWxsSkoKEhPT+fz+du2bevdu7eqquqAAQN69OghkUhMTEz8/PyePXs2derUd/PjkGQymYaGRv/+/ZsfEtfkhcvNzY2MjFy0aJEywzb8nOys8luji59aV/6c/GCxn7pKQ/ddFQf6Yp0+ffrcuXMrV650dHTs7LpAH3Tr1q2QkJB9+/Y1XnOincjlciMjo5MnT/r5+b37rEQiWbJkSVpa2oULFxrPyoSU0tPTFy1aFBgYOHXqVIIgNm/e/NdffyUmJipnM7SJmzdvTp48OScnp5l1fiGoi2uP6A12mEIQBDXFZrN5PF6nLJzVLfB4PD09vcOHDyckJIjF4pcvX3777bcwzIWgjgFDNwiCoH+hUqmDBw92cXGBef8/RF9ff+3atZcuXcrMzKTRaF9//fXw4cPh5YKgjgFDNwiCoH+hUqnKZcSg9yLH2M2fP7+zKwJBXyKYHASCIAiCIKjbgKEbBEEQBEFQtwFDNwiCIAiCoG4Dhm4QBEEQBEHdBgzdIAiCIAiCug0YukEQBEEQBHUbbRy6wcU02mn3VurKp9YBLxyp+UJaptNPrRN3b6X3Fq58pTrg1JrZptNfuNb4nO7Jd1+m7nvpOv3dCu/Jrrl7y7Rx6Nauy2Q1X/h/HrqVG3Tu7q3UlU+tA144Op2OIJ+85tvH6PRT68TdW6lJ4QRByOVyGo1GrqreAafGYrHkcnmLd2/X6rXG53RPyuXyJmuedt9L1+nvVnhPds3dWwZ2mEKfPz6fL5FIhEJhZ1cE+iCZTFZYWMjj8fh8fgccDkEQIyOjgoKCDjgW1GIFBQUGBgYoCr+nIOhf4FsC+vyZmpqiKJqZmSmVSju7LtD7iUSiZ8+emZqaqqurd8DhEARxcHBITEzEMKwDDge1AIZhDx8+dHBwgKEbBDUB3xLQ509PT8/a2vrGjRvV1dWdXRfoPQiCyM/Pf/r0ad++fTvmexpFUX9//6dPn6alpXXA4aAWePny5ZMnTwYNGgRDNwhqAr4loM8fuZp4dnZ2fHy8QqHo7OpATcnl8uPHj7NYrP79+3fMEREEcXFx4fP5J0+elEgkHXNQ6ONJJJJTp05paGi4uLjA0A2CmoBvCeiL4Obm5unpuXfvXji8qQu6cuXK5cuXp0+frq2t3WEH1dbWnjp1alxc3LVr1zrsoNBHiomJiY2NnTJlio6OTmfXBYK6HBi6QV8EFosVHBzMYrHmzZsnFos7uzrQP168eBEcHDx8+PDAwMB2zVDQBJ1OHzRokLe39/79+5OSkjrsuNB/Sk5OPnDggKenp7+/PznjGIKgxmDoBn0p9PX1w8PDs7KyRo4cWVpa2tnVgQAA4O7du8OHD3dyctq8eTOTyezgo+vo6MydO1dNTW358uXJycntmh8B+hgEQTx58mTZsmVcLnfevHmwyQ2C3guGbtAXpEePHteuXZNIJH5+fuHh4WVlZQ0NDQqFAn5ndxgcx+VyeUNDQ15e3sqVKydPnjxs2LCTJ092VuOKhYXFhg0b9PT0pk2btnPnzsLCQpFIJJfLcRzvlPp8gXAcVygUYrG4rKzs8OHDQUFBurq6GzdutLS07OyqQVAX9cl5SuGXHNTdiUSi/fv3R0ZGqqure3t729raamtrM5nMd3vrCIJovguv+Q1auXt7l9+uu7/3WRzHhUJheXn5q1ev7t69SxDE999/HxgYSKVSm6lGBxAIBKdPn46IiKBSqf369XNyctLW1uZwOB86wfa+dODDSdg/s3uSIAiRSFRdXf369esHDx6UlJRMnTp1woQJampqzRQCQd1Fey3k04ahG1nFFm/wMbu3+NnWb9Cuu7f+yrRmg658ZVq5wYdOnCCIsrKyBw8epKWlFRYW1tbWymQy+LOkvaEoymKxVFVV9fT0HB0dPT09P/QN3Sk3VUVFxePHj1NTU/Py8mpra8ViMbwl2huCIEwmU0VFRUtLy9bW1tPT09DQsJmNQTt/TnbZD7pO+Zz8yA3gd3fzV6Y9tMvqQBAEQRAEQVB7gGPdIAiCIAiCug0YukEQBEEQBHUbMHSDIAiCIAjqNmDoBkEQBEEQ1G3A0A2CIAiCIKjbgKEbBEEQBEFQtwFDNwiCIAiCoG4Dhm4QBEEQBEHdBgzdIAiCIAiCug0YukEQBEEQBHUbMHSDIAiCIAjqNmDoBkEQBEEQ1G3A0A2CIAiC/r+98w9t21r7+DPICwpkYEMvyNALVUhhDh1EZoPI3P0RhRSi0EFtcmEOu9A5d5A6HbROCrd290fqbJDZe2GLN9jsFDrsQoNdWLEKK1H+6EUqtEiBXqxCS5SXFCRIQYIGfGABvX/4ZxI7cfpma9P3fMg/ss95zvc85zF+fPToBIM5MuDUDXMUQJZlodct4lVB+ylHlvFEyj/Q/pjhLel6InFTeUX3bVraCp9/YByupjcApN5OJr4XGieGLEN9kJeevTZNBwU9ySe/SQrPd7+xb8w1tj1MSa/IoYTZFrLWFP6m8Ad9kDCYNwecumHeBNTs5+P+jwcHT9f+vN3vdHtPR4VNACREKafT6U+/7u9UtCalrwvWwTpZ+fPexMpeVo3/iJkvvf577X9vIeVrr+sf+TY6aPlraf0EBc/0A8ouY6kP+eS5Ef+91/5t2P6U27ImfZ8QCcqxrun11wxVykQZv/DiEAYwFsdczOyr5sttgR4kExJBHdO0RqdsqtkrI92dnew1qXFw687k4Bdp6fkuQSsJ7/n8rthAxiMhf23knXfe8X6R5h8Zf3B2dzhhZj0ThV+iIwHp7fudgcHsxMZg3gzEqwAAvqxeuf59NTUaE23btuV4PwAZKmy8Fl0lU5NzC+HAKRIAYDSj79+lgacpDgDO5cw9W4kzADNi+1ZXb4V8c2Jp32Y/caFf9x55X/TM6MG0HRKmnI2Fb6zWrtuccjuUfgsz38rN3hFjADHpMIaQ4r6J3Or+DV+Vl0vh/njTOdi2vZoNkMDEHla9tVEIfZppJqa09C8SgI4rzaxoGd8heaPZyPrSd8H4/dr1IYWZFAOI/fnBisH8yeBdN8wbw39tv+yg2AmGAgCgw5Jtr89zx16HKlCS5zOmeyr9YxAA4JiDOFDn2+pYNkJeT+cOdcuQGp3PTTP7KdGERd71F8dhDvznYcrXo1pHZ+26vSm3AxLvJVyk6xAstYboD+d+8FF/mH0k8Ym/ulrNgfokmZ7Qol9mNAAAI385750JNBHzguedidSwEr8lNNlX6zhEvbsp8l+k0R87BAbz1oI/Opg3FYRcA2zlqxpZqqQSDEPVvroNRZBk5Xmn+0PG2081pCfIeiKqHV6mhwAA2ELafxQ4wVRbIOuJqHWxdJeav617z7EkAABYzwT+rgo9XnaAJndmB0yEZwAAHnQCALicB0iFkJB7yUU/cepzs8nbSnCa3reHsSLIOiJcHraPrJtZk9QOhu7SBEl1fci5jwEgS/mP6f6g7g/0XBEe64ST8nzgdlQ+1oZxD2CmlTZDkWQdEYTT5elz1xPS6uuu97308UZfWNqyqALhcrM0uc2S9UQSNZNwebx9VedtIe2R2tlPwwov64TzpIfpcQBY2gNRNZ1uhmlcMNgylPuyjmrNynR2OsBDNYy0a8qtpe6ao6u3rg0sYw1g76WoSnLR2ydrKIKiI8LpprdNwXoiyZqJCMJFeekT1cB7pHb2N/ZGxopYXtyKmC1LfVTt9yFNdTVVUm2zbWXBeqEBeFpPwMFdTviosambbBxm5U/mYyeaNNLuCO6z8/4eYdyX5S+xvoP8NKrEZIfCKzrhdHv6KQeA9UwSn5rOk96GdQRoGpxEpxN81PHdhluEWQs/VDDKMihPaYfKFkGOwRxx8K4b5g1F+iahAACo6b8Pdnc6e9m4VC1C0hbHu10xxcX6PjQzZ7vd7w8Onh6cvG2o1/2DJzud7sH4QwvA4q8M9v61s5uOS5sAAOrPfu/JTqd7MCcJ0eFe/2eSBgCg8ZcG/QsGecpZnPG43h/P7y76flWM23mnjyWA9n3BKd/mmu1sNGJK30zG7ynqcnqcdnnLtUrPheS1cZby8o+l2X+MjHNR/jlSF5NTf3d75qRKidKWlr80lXlBccNc70aa/WhW2gQAjf96vgCQvjg4eHpw9t/bx36eHz9fcDAcN+R1PY2Fbperg5B6Mzr5o2gCAZYQ/TAm1dpvyNlrSQkh7eYs5/LOPqpas5TE51Gxi+aGvS4pRP0jqwEY95JTPqqbSWd+jKZVZN1P+E5ys8tK/kqU15G2GO52j9WcbC3PTv0om0CAkQ+fdE/etQAAkJa/EowtQmFuzH96cPL2/+yc8h5Sq2h3Jv0zsovhuIFedMtHfZxQNgHAUq7H0wqIX40Nnh4c/6VZcZUpJb6IC49U4fq4x+WdfVCerCVcm0oqJhCg3w53uyf5ihSkfONPrrvZYY59H/hPEhKAsZyc/ZztZviadfQkG/0iWZH7JR37NwBSEoGk3sNyw6wH+LH/3j0DQCsJ/+c51MNyQ17n45j7o0l+DQDAWknHrytwPzZ2enDws2zzArETgei3TP7S4ORaMDrUNK+Vso9Zfw84hgMRMp2+03ad2XMheWmEorzpm8nozyqyxMTZbu6aoCxGo3d19CwfPukeW6zWmzUNzhdS4rNwGpT0Jf/I6cHEo6rlFmHWyg8AAJaavTabXXN4aQrUtD8QbdDZNMgxmLeC133HFoOpIM4AAJCnWHaIZYcYql6zomdGAcCXWbdt27bNQggAJgqmbdt2aWkaAMjYw2rTrA/qBXPld6sdbXv1hg8AyE9Tsq4vfZcp2rb8LQMQKtsyfw0BAN28CqpcRnOgchw5/mmqUmC0kQsCBPMty87EGYC+iPiycln6LUzWK5DEGAAzI5Zs29Zk2axOs1J1VxJnaPanWiHTamoIuIXVWsemtUp61tfQRRbvl2zb1m8FmLn63OWFsng9MwpwoVAtmzJz52pO0DOjEP6t+k5pKQxkRChV5EGo8LKhy9B8seaWvnpFoyks1YaU52i4WnPvTvENU24ltYGnKQ7CS/XKODneD3TZh7aeGW0oqdyGGAOgr4r1KU2T0FcuKTOXhLrSeB9E7te61AfS74sVJY1FV+u5QGNd2sNU6qltSzGYrvcT7+8qRSstRUg29bR2bRYmyLoHGrzRkpeFEAA5vdS0QNDMh8qLZZc937ercm69da3besYHEOJLVVNBAHZetevW9g3O9Yyv4YO5V5jt5YfV1HB9XNu2S3yo5vamQY7BvB3gXTfMm4X3Smbpt6Wl38TcVy1avNA1AOgiCAAAovNdAOglm9/FLL9bp7MDAGDyfJAmSfZCwA2KcEMCQJoiCMuC/BwBgLJ5OI/ToeWcPOB1WpZlWVaHl5uA9M+5vXY2fCNM9ZYZMeQPgiKq9X2CkSGGAIATNL1zpqrwg+IAZFVA0AX88302GAiHq/j5oP9yOv9ANTZp5m8EgJL5KjvyUf0+In0uWK+O+ouzum/jcNVeNcTCIhBb1aERIsBQjdrTii5nV0MXh9NZfd11sq7EMcDS5Yc7l/PCY4AnWht7I3tKBQAAbTnLj3p665tNtO8zVvlBUPc3Dn6uVlFHsB8HYUVUnwOAgx2gYQsZTyThtiADqOtlpQ5Hf2KMG0/c5JU1y/E3ZndJmbIYy3LeutwPgsEegC4H883YyOeJ7F1FsxzM33b2Q/f5WYPt7am94GDPjsFiQWx38whJ3wv0jYjrm6nYv3eHtJa76WDfr6wd9dEYsxLPLR8s8l3VoKgscDV6XcdrczlgcDYLs7388Cgbvct63qsbIJz18r9mQY7BvCXg1A3zhkJfDDevR+rxsP0Av6TzawAvhEIemOmIv6dp031BaAUANL18K/a9wJJU1C8yr6h4GxZ/B42c0GVFlhVZVooOJkzfTeb3OiVkG50A7r+S+7cDBAaApZUHUg2nf8E095uCYzgu8mHXk0SI6XW96xr8WkIVVxyELYTAjYzyBGXN8k6ZZvpsO5ob1K8kxz6eyqwR9Ee+seE2y/r3l2oYwo5XOrscYMCBs/KOTgA3dRwAkPL92MjljEbQ7NmxkXr26Q7dkRMDkPtyxEM5O0+O59d22kCbShPLp0L8wwS7lYtynm5nZ/dn+R1pvfViZ55PvOsEQGirLeHoXnT+eCj46VRsQp+dTuw8pmQlrzBeeFxZO7nk9o8as7/wr3SCzF4qXiE4d7CHH4yn8h55bLMgx2DeEvBjCpg3FYJo8TOZDt8vEoFJYSGhv0v0/qjH+nelC1vlcmVUern3GCQ5BHDPdJ5k2b5XkIgsCxGOZtXPK+m0a6ww0Jh8UqGbiegtIdTH7v/zH5VMMsJ90I4GAkiwHG524CCPMyKghkPzw6H5LaTdjfo/LojTfiBBeKxF+tu200EQoMJxLzvwqvsZSIgNpz135eDBnE/sK5UkWfiyqAFsi4xh8mB5JQB6aZL/4mgAtBzjFjy8Etz9cwJ10YGrqcDVFHqhpM970ssR37ltwogOEpaLGmzfkNtCxAeByEIgsoCslXSQTgtXfMGGXyCOYxSArK0B0/iEAekm23mYYC0b/MUTu0EBAHclGfjQH/qREy/WtFv8Txo7E2YbTHkhEmfTue0a/s+8UnBuZw8/kJQHQCw+A6aq2VgvAvRWLpoEOcPibzzMWwHedcO8WVibpX2bCFeCkxAIXwoG/znGEEXpiVH7VwuOYxQA5O/wimFpy8nk7Sb9S/V9C8p7hgFQ4t+m1fKGw5ZlvGjx43xrpzD1e9bpdLLf774Lh4Rbgu/sjm95yv/PoPF1ItPqlJANszaw+kuWyE61keIBgJs9Tws/pBtPCt73fHzjdr5SFd9BUO97qH6Xq4PmLjPCl9Hsrk2jJvwOAACkd2QUEj9ntLo/290TqmBZmqHrGwgAwFJydxp3pwggQWt+kPD+UqmBAAfp3L2aI5AsieGLY+1kEHptHbbUzCKRucQSANYLzTB0cxMAwFrJFepKpfxiZVuIOEZ73iMp0rnDID08xdyLRm9u3z16lK/uzxGOPo+bpFzbczLiIy5C5jMNp9SqisDNBNuICi17OTdSOw3kuC82w0mXovUTrZ/lkl2+HUftEAP+qT4+utDwLM2BlrI5rYOzgyBqu92t+B1gbz/0MRGSj35bPVLYknKL9WbNghwADP7y+NRd/MgC5ojzuovtMBjbtlcLV4OVgzp6fOG5wmrjW3NhjgQAkrsYLzy1bXs1Nbwrjkl2vlzUX5LjA2VDVPCWmBkFAOAm4oWn9uqv8dAwAAB5JhxfEM2a/YvlkSlmiHGfCua0neJMKRWfiwTLZkk2eDUe/3XVrjziADsPd90oFhZCDDDB73Lyer0y2lSXcjMcAJBnYjl15/MK4ldcYJQiT3Ghq/HIdHxJ32ENmAupglAsP5mhP8zFzpBAcrG8rJds+2UxdY6CHi50NR6fi4Qn4ksbtr1RXMrHuHLHXcPJX5HMhdSSqutqIX4hUtAaXFGe4Fw8fGFe/t0s8qlQH8BwLPdQL09GnAHoC6X4omnb9sZSZIAkTwXCc/H4XCQ0kSnaJf1hITVBA5TlmUUhFxtu6FIuSK8YNAsXKCDd7JnQ/H19NeuDvnCmMlBJvEoB6WaHQpmnu6bcROqukPo1zPZwMb6om6vid+FwfrXsPJlPhfqAPFOfUeM6xM4EfD2k+0woMhcJzy3pNbMbhVAPkKdYbmJe1Fczo0BPZ+T1kq3nAiQXy8ur5qq4EAn9IJds21QLqQsMABNaKBQ3qmJIkv1nJD4Xj0+H5hVbvxUgz8Ryyqqpial/heaVJkX0JWXe18OEFsRVUy/mY6Hv5GoAFFITdIM3GrqsL82fY7ifdjz0IMf7AfpDKcUoe5I8E8lUlsNudAsAE1oQ9VJJf1jITHMAwJyb3+Go0rpc+ClEA3AzOXm9VA1sOvRTZbJ61ldd/RbBadu2vZo5S0IPw47GRHOfMGvhB9u27ZKaCvaUn23iwjeKJSkGwMXyS8WNVkEux/t3fWYxmKPGO7Zt/9HZIQZzuBj3ZmOP6NA5r4sAZKjCjfDY15Ivq+c+KSdtyLIQQPM7mc3ZtKwtOFiXykiIOJTTorYAOsoyDqyhqsTQ1kznCYpsqzuyLEtv1v6AdspdNHUNqB7K0fRksjaktLjrvNdbbUlFlrGmmQ6KOuYg2rxTtgXQAciyUIdj13RayNm0rBeaBhRF7rl0u8Qgy9LXNDhBufbot4Ws5+r+xt9sWqwUsixEdLW3NHv6AVkWavLhbRnkGMxRB6dumCOGsTjm+nuvaEfq1c5r6RFqnPrVnD9zRP9zAAaDwWAw7YKLNjFHEU036iXo2jLP98fkIZy3YTAYDObtB++6YY4cGn9pPHiH8H/CUu+CrvDq8WD8SsCNMzcMBoPB/D8Ap26Yo0m5ng2g3VoZDAaDwWDeCnDqhsFgMBgMBnNkwOe6YTAYDAaDwRwZcOqGwWAwGAwGc2TAqRsGg8FgMBjMkQGnbhgMBoPBYDBHBpy6YTAYDAaDwRwZcOqGwWAwGAwGc2TAqRsGg8FgMBjMkQGnbhgMBoPBYDBHBpy6YTAYDAaDwRwZcOqGwWAwGAwGc2T4X/c4Wm+0slTZAAAAAElFTkSuQmCC;" parent="1" vertex="1">
          <mxGeometry x="10" y="60" width="830" height="283" as="geometry" />
        </mxCell>
        <mxCell id="JDOVnYZvjsqRy1ZlSJWy-13" style="edgeStyle=orthogonalEdgeStyle;rounded=0;orthogonalLoop=1;jettySize=auto;html=1;entryX=0;entryY=0.5;entryDx=0;entryDy=0;" parent="1" source="JDOVnYZvjsqRy1ZlSJWy-2" target="JDOVnYZvjsqRy1ZlSJWy-5" edge="1">
          <mxGeometry relative="1" as="geometry" />
        </mxCell>
        <mxCell id="JDOVnYZvjsqRy1ZlSJWy-16" style="edgeStyle=orthogonalEdgeStyle;rounded=0;orthogonalLoop=1;jettySize=auto;html=1;entryX=0.5;entryY=0;entryDx=0;entryDy=0;fontSize=20;" parent="1" source="JDOVnYZvjsqRy1ZlSJWy-2" target="JDOVnYZvjsqRy1ZlSJWy-3" edge="1">
          <mxGeometry relative="1" as="geometry" />
        </mxCell>
        <mxCell id="JDOVnYZvjsqRy1ZlSJWy-2" value="Deep Learning Model" style="rounded=1;whiteSpace=wrap;html=1;fontSize=20;" parent="1" vertex="1">
          <mxGeometry x="212" y="430" width="150" height="60" as="geometry" />
        </mxCell>
        <mxCell id="JDOVnYZvjsqRy1ZlSJWy-12" style="edgeStyle=orthogonalEdgeStyle;rounded=0;orthogonalLoop=1;jettySize=auto;html=1;exitX=1;exitY=0.5;exitDx=0;exitDy=0;entryX=0;entryY=0.5;entryDx=0;entryDy=0;" parent="1" source="JDOVnYZvjsqRy1ZlSJWy-3" target="JDOVnYZvjsqRy1ZlSJWy-4" edge="1">
          <mxGeometry relative="1" as="geometry" />
        </mxCell>
        <mxCell id="JDOVnYZvjsqRy1ZlSJWy-3" value="XAI Model" style="rounded=1;whiteSpace=wrap;html=1;fontSize=20;" parent="1" vertex="1">
          <mxGeometry x="212" y="590" width="150" height="60" as="geometry" />
        </mxCell>
        <mxCell id="JDOVnYZvjsqRy1ZlSJWy-15" style="rounded=0;orthogonalLoop=1;jettySize=auto;html=1;entryX=0;entryY=0.5;entryDx=0;entryDy=0;exitX=1;exitY=0.5;exitDx=0;exitDy=0;" parent="1" source="JDOVnYZvjsqRy1ZlSJWy-4" target="JDOVnYZvjsqRy1ZlSJWy-6" edge="1">
          <mxGeometry relative="1" as="geometry" />
        </mxCell>
        <mxCell id="JDOVnYZvjsqRy1ZlSJWy-4" value="Why does the model predict it as &quot;dog&quot;?" style="rounded=1;whiteSpace=wrap;html=1;fontSize=20;" parent="1" vertex="1">
          <mxGeometry x="412" y="590" width="198" height="60" as="geometry" />
        </mxCell>
        <mxCell id="JDOVnYZvjsqRy1ZlSJWy-14" style="rounded=0;orthogonalLoop=1;jettySize=auto;html=1;entryX=0;entryY=0.5;entryDx=0;entryDy=0;exitX=1;exitY=0.5;exitDx=0;exitDy=0;" parent="1" source="JDOVnYZvjsqRy1ZlSJWy-5" target="JDOVnYZvjsqRy1ZlSJWy-6" edge="1">
          <mxGeometry relative="1" as="geometry" />
        </mxCell>
        <mxCell id="JDOVnYZvjsqRy1ZlSJWy-5" value="The model predicts it as &quot;dog&quot;" style="rounded=1;whiteSpace=wrap;html=1;fontSize=20;" parent="1" vertex="1">
          <mxGeometry x="412" y="430" width="198" height="60" as="geometry" />
        </mxCell>
        <mxCell id="JDOVnYZvjsqRy1ZlSJWy-6" value="Understandable &amp;amp; trustworthy&lt;br style=&quot;font-size: 20px;&quot;&gt;decision-making" style="ellipse;whiteSpace=wrap;html=1;fontSize=20;" parent="1" vertex="1">
          <mxGeometry x="655" y="480" width="185" height="130" as="geometry" />
        </mxCell>
        <mxCell id="JDOVnYZvjsqRy1ZlSJWy-10" style="edgeStyle=orthogonalEdgeStyle;rounded=0;orthogonalLoop=1;jettySize=auto;html=1;entryX=0;entryY=0.5;entryDx=0;entryDy=0;" parent="1" source="JDOVnYZvjsqRy1ZlSJWy-7" target="JDOVnYZvjsqRy1ZlSJWy-2" edge="1">
          <mxGeometry relative="1" as="geometry">
            <Array as="points">
              <mxPoint x="180" y="540" />
              <mxPoint x="180" y="460" />
            </Array>
          </mxGeometry>
        </mxCell>
        <mxCell id="JDOVnYZvjsqRy1ZlSJWy-7" value="" style="rounded=1;whiteSpace=wrap;html=1;" parent="1" vertex="1">
          <mxGeometry x="13" y="465" width="150" height="150" as="geometry" />
        </mxCell>
        <mxCell id="JDOVnYZvjsqRy1ZlSJWy-8" value="Picture of a dog" style="text;html=1;strokeColor=none;fillColor=none;align=center;verticalAlign=middle;whiteSpace=wrap;rounded=0;fontSize=19;" parent="1" vertex="1">
          <mxGeometry x="13" y="575" width="150" height="30" as="geometry" />
        </mxCell>
        <mxCell id="JDOVnYZvjsqRy1ZlSJWy-9" value="" style="shape=image;verticalLabelPosition=bottom;labelBackgroundColor=default;verticalAlign=top;aspect=fixed;imageAspect=0;image=https://c4.wallpaperflare.com/wallpaper/679/909/65/look-smile-puppy-wallpaper-preview.jpg;clipPath=inset(7.98% 20.33% 7.98% 19.67%);" parent="1" vertex="1">
          <mxGeometry x="31.04" y="472" width="113.92" height="100" as="geometry" />
        </mxCell>
        <mxCell id="JDOVnYZvjsqRy1ZlSJWy-11" style="edgeStyle=orthogonalEdgeStyle;rounded=0;orthogonalLoop=1;jettySize=auto;html=1;entryX=-0.02;entryY=0.521;entryDx=0;entryDy=0;entryPerimeter=0;" parent="1" source="JDOVnYZvjsqRy1ZlSJWy-7" target="JDOVnYZvjsqRy1ZlSJWy-3" edge="1">
          <mxGeometry relative="1" as="geometry">
            <Array as="points">
              <mxPoint x="180" y="540" />
              <mxPoint x="180" y="621" />
            </Array>
          </mxGeometry>
        </mxCell>
      </root>
    </mxGraphModel>
  </diagram>
</mxfile>
